TwilioSansMono-Regular.ufo
<glyph name="numbersign" format="2">
	<unicode hex="0023"/>
	<advance width="600"/>
	<outline>
		<contour>
			<point x="37" y="236" type="line"/>
			<point x="37" y="169" type="line"/>
			<point x="141" y="169" type="line"/>
			<point x="125" y="0" type="line"/>
			<point x="197" y="0" type="line"/>
			<point x="213" y="169" type="line"/>
			<point x="354" y="169" type="line"/>
			<point x="338" y="0" type="line"/>
			<point x="408" y="0" type="line"/>
			<point x="424" y="169" type="line"/>
			<point x="539" y="169" type="line"/>
			<point x="539" y="236" type="line"/>
			<point x="431" y="236" type="line"/>
			<point x="452" y="460" type="line"/>
			<point x="563" y="460" type="line"/>
			<point x="563" y="528" type="line"/>
			<point x="459" y="528" type="line"/>
			<point x="474" y="684" type="line"/>
			<point x="403" y="684" type="line"/>
			<point x="388" y="528" type="line"/>
			<point x="246" y="528" type="line"/>
			<point x="261" y="684" type="line"/>
			<point x="191" y="684" type="line"/>
			<point x="176" y="528" type="line"/>
			<point x="61" y="528" type="line"/>
			<point x="61" y="460" type="line"/>
			<point x="169" y="460" type="line"/>
			<point x="148" y="236" type="line"/>
		</contour>
		<contour>
			<point x="219" y="236" type="line"/>
			<point x="240" y="460" type="line"/>
			<point x="382" y="460" type="line"/>
			<point x="360" y="236" type="line"/>
		</contour>
	</outline>
</glyph>
<glyph name="dollar" format="2">
	<unicode hex="0024"/>
	<advance width="600"/>
	<outline>
		<contour>
			<point x="196" y="-93" type="line"/>
			<point x="264" y="-93" type="line"/>
			<point x="277" y="-10" type="line"/>
			<point x="289" y="-11"/>
			<point x="302" y="-11"/>
			<point x="316" y="-11" type="curve" smooth="yes"/>
			<point x="450" y="-11"/>
			<point x="546" y="63"/>
			<point x="546" y="199" type="curve" smooth="yes"/>
			<point x="546" y="334"/>
			<point x="445" y="359"/>
			<point x="336" y="377" type="curve"/>
			<point x="374" y="618" type="line"/>
			<point x="431" y="608"/>
			<point x="485" y="586"/>
			<point x="527" y="551" type="curve"/>
			<point x="527" y="631" type="line"/>
			<point x="494" y="656"/>
			<point x="447" y="676"/>
			<point x="388" y="687" type="curve"/>
			<point x="401" y="774" type="line"/>
			<point x="333" y="774" type="line"/>
			<point x="320" y="695" type="line"/>
			<point x="297" y="695" type="line" smooth="yes"/>
			<point x="156" y="695"/>
			<point x="57" y="623"/>
			<point x="57" y="490" type="curve" smooth="yes"/>
			<point x="57" y="355"/>
			<point x="152" y="324"/>
			<point x="260" y="306" type="curve"/>
			<point x="223" y="71" type="line"/>
			<point x="163" y="85"/>
			<point x="110" y="114"/>
			<point x="65" y="155" type="curve"/>
			<point x="65" y="70" type="line"/>
			<point x="104" y="39"/>
			<point x="151" y="14"/>
			<point x="210" y="0" type="curve"/>
		</contour>
		<contour>
			<point x="141" y="497" type="curve" smooth="yes"/>
			<point x="141" y="582"/>
			<point x="204" y="626"/>
			<point x="294" y="626" type="curve" smooth="yes"/>
			<point x="311" y="626" type="line"/>
			<point x="273" y="387" type="line"/>
			<point x="195" y="401"/>
			<point x="141" y="420"/>
		</contour>
		<contour>
			<point x="460" y="190" type="curve" smooth="yes"/>
			<point x="460" y="100"/>
			<point x="401" y="60"/>
			<point x="316" y="60" type="curve" smooth="yes"/>
			<point x="306" y="60"/>
			<point x="296" y="60"/>
			<point x="287" y="61" type="curve"/>
			<point x="323" y="297" type="line"/>
			<point x="404" y="284"/>
			<point x="460" y="268"/>
		</contour>
	</outline>
</glyph>
<glyph name="ampersand" format="2">
	<unicode hex="0026"/>
	<advance width="600"/>
	<outline>
		<contour>
			<point x="226" y="-14" type="curve" smooth="yes"/>
			<point x="310" y="-14"/>
			<point x="378" y="19"/>
			<point x="431" y="75" type="curve"/>
			<point x="500" y="0" type="line"/>
			<point x="609" y="0" type="line"/>
			<point x="481" y="139" type="line"/>
			<point x="523" y="207"/>
			<point x="551" y="293"/>
			<point x="565" y="387" type="curve"/>
			<point x="486" y="387" type="line"/>
			<point x="475" y="317"/>
			<point x="456" y="250"/>
			<point x="429" y="195" type="curve"/>
			<point x="258" y="380" type="line" smooth="yes"/>
			<point x="218" y="424"/>
			<point x="182" y="460"/>
			<point x="182" y="521" type="curve" smooth="yes"/>
			<point x="182" y="587"/>
			<point x="226" y="627"/>
			<point x="301" y="627" type="curve" smooth="yes"/>
			<point x="369" y="627"/>
			<point x="435" y="600"/>
			<point x="485" y="565" type="curve"/>
			<point x="485" y="644" type="line"/>
			<point x="439" y="674"/>
			<point x="372" y="698"/>
			<point x="299" y="698" type="curve" smooth="yes"/>
			<point x="170" y="698"/>
			<point x="99" y="618"/>
			<point x="99" y="517" type="curve" smooth="yes"/>
			<point x="99" y="469"/>
			<point x="114" y="432"/>
			<point x="137" y="400" type="curve"/>
			<point x="73" y="360"/>
			<point x="16" y="287"/>
			<point x="16" y="186" type="curve" smooth="yes"/>
			<point x="16" y="56"/>
			<point x="104" y="-14"/>
		</contour>
		<contour>
			<point x="99" y="197" type="curve" smooth="yes"/>
			<point x="99" y="268"/>
			<point x="133" y="317"/>
			<point x="180" y="347" type="curve"/>
			<point x="185" y="341"/>
			<point x="191" y="336"/>
			<point x="196" y="330" type="curve" smooth="yes"/>
			<point x="383" y="126" type="line"/>
			<point x="346" y="83"/>
			<point x="297" y="57"/>
			<point x="237" y="57" type="curve" smooth="yes"/>
			<point x="150" y="57"/>
			<point x="99" y="110"/>
		</contour>
	</outline>
</glyph>
<glyph name="quotesingle" format="2">
	<unicode hex="0027"/>
	<advance width="600"/>
	<outline>
		<contour>
			<point x="268" y="498" type="line"/>
			<point x="331" y="498" type="line"/>
			<point x="355" y="750" type="line"/>
			<point x="245" y="750" type="line"/>
		</contour>
	</outline>
</glyph>
<glyph name="parenleft" format="2">
	<unicode hex="0028"/>
	<advance width="600"/>
	<outline>
		<contour>
			<point x="466" y="-168" type="curve"/>
			<point x="492" y="-98" type="line"/>
			<point x="314" y="-29"/>
			<point x="248" y="107"/>
			<point x="248" y="315" type="curve" smooth="yes"/>
			<point x="248" y="516"/>
			<point x="310" y="659"/>
			<point x="492" y="728" type="curve"/>
			<point x="466" y="798" type="line"/>
			<point x="253" y="711"/>
			<point x="167" y="558"/>
			<point x="167" y="316" type="curve" smooth="yes"/>
			<point x="167" y="77"/>
			<point x="247" y="-78"/>
		</contour>
	</outline>
</glyph>
<glyph name="plus" format="2">
	<unicode hex="002B"/>
	<advance width="600"/>
	<outline>
		<contour>
			<point x="262" y="527" type="line"/>
			<point x="262" y="338" type="line"/>
			<point x="75" y="338" type="line"/>
			<point x="75" y="264" type="line"/>
			<point x="262" y="264" type="line"/>
			<point x="262" y="74" type="line"/>
			<point x="338" y="74" type="line"/>
			<point x="338" y="264" type="line"/>
			<point x="525" y="264" type="line"/>
			<point x="525" y="338" type="line"/>
			<point x="338" y="338" type="line"/>
			<point x="338" y="527" type="line"/>
		</contour>
	</outline>
</glyph>
<glyph name="period" format="2">
	<unicode hex="002E"/>
	<advance width="600"/>
	<outline>
		<contour>
			<point x="300" y="-12" type="curve" smooth="yes"/>
			<point x="347" y="-12"/>
			<point x="373" y="6"/>
			<point x="373" y="55" type="curve" smooth="yes"/>
			<point x="373" y="103"/>
			<point x="347" y="120"/>
			<point x="300" y="120" type="curve" smooth="yes"/>
			<point x="253" y="120"/>
			<point x="227" y="103"/>
			<point x="227" y="55" type="curve" smooth="yes"/>
			<point x="227" y="6"/>
			<point x="253" y="-12"/>
		</contour>
	</outline>
</glyph>
<glyph name="slash" format="2">
	<unicode hex="002F"/>
	<advance width="600"/>
	<outline>
		<contour>
			<point x="446" y="792" type="line"/>
			<point x="68" y="-163" type="line"/>
			<point x="153" y="-163" type="line"/>
			<point x="532" y="792" type="line"/>
		</contour>
	</outline>
</glyph>
<glyph name="zero" format="2">
	<unicode hex="0030"/>
	<advance width="600"/>
	<outline>
		<contour>
			<point x="300" y="-14" type="curve" smooth="yes"/>
			<point x="451" y="-14"/>
			<point x="544" y="104"/>
			<point x="544" y="335" type="curve" smooth="yes"/>
			<point x="544" y="349" type="line" smooth="yes"/>
			<point x="544" y="579"/>
			<point x="451" y="698"/>
			<point x="300" y="698" type="curve" smooth="yes"/>
			<point x="149" y="698"/>
			<point x="56" y="579"/>
			<point x="56" y="349" type="curve" smooth="yes"/>
			<point x="56" y="335" type="line" smooth="yes"/>
			<point x="56" y="104"/>
			<point x="149" y="-14"/>
		</contour>
		<contour>
			<point x="300" y="58" type="curve" smooth="yes"/>
			<point x="199" y="58"/>
			<point x="139" y="145"/>
			<point x="139" y="338" type="curve" smooth="yes"/>
			<point x="139" y="345" type="line" smooth="yes"/>
			<point x="139" y="540"/>
			<point x="199" y="626"/>
			<point x="300" y="626" type="curve" smooth="yes"/>
			<point x="400" y="626"/>
			<point x="461" y="540"/>
			<point x="461" y="345" type="curve" smooth="yes"/>
			<point x="461" y="338" type="line" smooth="yes"/>
			<point x="461" y="145"/>
			<point x="400" y="58"/>
		</contour>
		<contour>
			<point x="300" y="277" type="curve" smooth="yes"/>
			<point x="340" y="277"/>
			<point x="364" y="295"/>
			<point x="364" y="343" type="curve" smooth="yes"/>
			<point x="364" y="392"/>
			<point x="339" y="409"/>
			<point x="300" y="409" type="curve" smooth="yes"/>
			<point x="260" y="409"/>
			<point x="236" y="392"/>
			<point x="236" y="343" type="curve" smooth="yes"/>
			<point x="236" y="295"/>
			<point x="260" y="277"/>
		</contour>
	</outline>
</glyph>
<glyph name="one" format="2">
	<unicode hex="0031"/>
	<advance width="600"/>
	<outline>
		<contour>
			<point x="61" y="0" type="line"/>
			<point x="562" y="0" type="line"/>
			<point x="562" y="75" type="line"/>
			<point x="367" y="75" type="line"/>
			<point x="367" y="684" type="line"/>
			<point x="277" y="684" type="line"/>
			<point x="63" y="515" type="line"/>
			<point x="63" y="427" type="line"/>
			<point x="281" y="597" type="line"/>
			<point x="281" y="75" type="line"/>
			<point x="61" y="75" type="line"/>
		</contour>
	</outline>
</glyph>
<glyph name="two" format="2">
	<unicode hex="0032"/>
	<advance width="600"/>
	<outline>
		<contour>
			<point x="73" y="0" type="line"/>
			<point x="524" y="0" type="line"/>
			<point x="524" y="76" type="line"/>
			<point x="193" y="76" type="line"/>
			<point x="295" y="152" type="line" smooth="yes"/>
			<point x="410" y="238"/>
			<point x="508" y="329"/>
			<point x="508" y="481" type="curve" smooth="yes"/>
			<point x="508" y="609"/>
			<point x="442" y="698"/>
			<point x="286" y="698" type="curve" smooth="yes"/>
			<point x="191" y="698"/>
			<point x="115" y="660"/>
			<point x="75" y="625" type="curve"/>
			<point x="75" y="543" type="line"/>
			<point x="132" y="595"/>
			<point x="199" y="624"/>
			<point x="272" y="624" type="curve" smooth="yes"/>
			<point x="380" y="624"/>
			<point x="421" y="565"/>
			<point x="421" y="472" type="curve" smooth="yes"/>
			<point x="421" y="345"/>
			<point x="330" y="271"/>
			<point x="226" y="189" type="curve" smooth="yes"/>
			<point x="73" y="68" type="line"/>
		</contour>
	</outline>
</glyph>
<glyph name="four" format="2">
	<unicode hex="0034"/>
	<advance width="600"/>
	<outline>
		<contour>
			<point x="385" y="0" type="line"/>
			<point x="469" y="0" type="line"/>
			<point x="469" y="146" type="line"/>
			<point x="549" y="146" type="line"/>
			<point x="549" y="217" type="line"/>
			<point x="469" y="217" type="line"/>
			<point x="469" y="687" type="line"/>
			<point x="352" y="687" type="line"/>
			<point x="36" y="218" type="line"/>
			<point x="36" y="146" type="line"/>
			<point x="385" y="146" type="line"/>
		</contour>
		<contour>
			<point x="121" y="217" type="line"/>
			<point x="385" y="612" type="line"/>
			<point x="385" y="217" type="line"/>
		</contour>
	</outline>
</glyph>
<glyph name="five" format="2">
	<unicode hex="0035"/>
	<advance width="600"/>
	<outline>
		<contour>
			<point x="295" y="-14" type="curve" smooth="yes"/>
			<point x="434" y="-14"/>
			<point x="525" y="75"/>
			<point x="525" y="217" type="curve" smooth="yes"/>
			<point x="525" y="347"/>
			<point x="450" y="415"/>
			<point x="312" y="415" type="curve" smooth="yes"/>
			<point x="259" y="415"/>
			<point x="216" y="408"/>
			<point x="178" y="396" type="curve"/>
			<point x="179" y="612" type="line"/>
			<point x="513" y="612" type="line"/>
			<point x="513" y="684" type="line"/>
			<point x="100" y="684" type="line"/>
			<point x="100" y="306" type="line"/>
			<point x="154" y="330"/>
			<point x="213" y="346"/>
			<point x="282" y="346" type="curve" smooth="yes"/>
			<point x="394" y="346"/>
			<point x="439" y="297"/>
			<point x="439" y="211" type="curve" smooth="yes"/>
			<point x="439" y="113"/>
			<point x="383" y="59"/>
			<point x="292" y="59" type="curve" smooth="yes"/>
			<point x="226" y="59"/>
			<point x="150" y="82"/>
			<point x="76" y="146" type="curve"/>
			<point x="76" y="64" type="line"/>
			<point x="129" y="18"/>
			<point x="199" y="-14"/>
		</contour>
	</outline>
</glyph>
<glyph name="seven" format="2">
	<unicode hex="0037"/>
	<advance width="600"/>
	<outline>
		<contour>
			<point x="146" y="0" type="line"/>
			<point x="239" y="0" type="line"/>
			<point x="550" y="604" type="line"/>
			<point x="550" y="684" type="line"/>
			<point x="64" y="684" type="line"/>
			<point x="64" y="482" type="line"/>
			<point x="141" y="482" type="line"/>
			<point x="141" y="614" type="line"/>
			<point x="463" y="614" type="line"/>
		</contour>
	</outline>
</glyph>
<glyph name="eight" format="2">
	<unicode hex="0038"/>
	<advance width="600"/>
	<outline>
		<contour>
			<point x="300" y="-14" type="curve" smooth="yes"/>
			<point x="448" y="-14"/>
			<point x="549" y="48"/>
			<point x="549" y="182" type="curve" smooth="yes"/>
			<point x="549" y="291"/>
			<point x="478" y="337"/>
			<point x="407" y="351" type="curve"/>
			<point x="476" y="364"/>
			<point x="537" y="418"/>
			<point x="537" y="511" type="curve" smooth="yes"/>
			<point x="537" y="641"/>
			<point x="441" y="698"/>
			<point x="301" y="698" type="curve" smooth="yes"/>
			<point x="159" y="698"/>
			<point x="63" y="640"/>
			<point x="63" y="511" type="curve" smooth="yes"/>
			<point x="63" y="417"/>
			<point x="124" y="364"/>
			<point x="192" y="351" type="curve"/>
			<point x="121" y="337"/>
			<point x="51" y="291"/>
			<point x="51" y="182" type="curve" smooth="yes"/>
			<point x="51" y="48"/>
			<point x="152" y="-14"/>
		</contour>
		<contour>
			<point x="301" y="383" type="curve" smooth="yes"/>
			<point x="211" y="383"/>
			<point x="148" y="416"/>
			<point x="148" y="505" type="curve"/>
			<point x="148" y="597"/>
			<point x="211" y="630"/>
			<point x="300" y="630" type="curve" smooth="yes"/>
			<point x="390" y="630"/>
			<point x="452" y="597"/>
			<point x="452" y="505" type="curve"/>
			<point x="452" y="416"/>
			<point x="390" y="383"/>
		</contour>
		<contour>
			<point x="300" y="55" type="curve" smooth="yes"/>
			<point x="204" y="55"/>
			<point x="138" y="95"/>
			<point x="138" y="192" type="curve" smooth="yes"/>
			<point x="138" y="286"/>
			<point x="201" y="315"/>
			<point x="300" y="315" type="curve" smooth="yes"/>
			<point x="399" y="315"/>
			<point x="462" y="286"/>
			<point x="462" y="192" type="curve" smooth="yes"/>
			<point x="462" y="95"/>
			<point x="396" y="55"/>
		</contour>
	</outline>
</glyph>
<glyph name="nine" format="2">
	<unicode hex="0039"/>
	<advance width="600"/>
	<outline>
		<contour>
			<point x="268" y="-14" type="curve" smooth="yes"/>
			<point x="495" y="-14"/>
			<point x="544" y="176"/>
			<point x="544" y="360" type="curve" smooth="yes"/>
			<point x="544" y="372" type="line" smooth="yes"/>
			<point x="544" y="553"/>
			<point x="499" y="698"/>
			<point x="297" y="698" type="curve" smooth="yes"/>
			<point x="146" y="698"/>
			<point x="58" y="595"/>
			<point x="58" y="456" type="curve" smooth="yes"/>
			<point x="58" y="330"/>
			<point x="123" y="239"/>
			<point x="268" y="239" type="curve" smooth="yes"/>
			<point x="355" y="239"/>
			<point x="421" y="281"/>
			<point x="454" y="364" type="curve"/>
			<point x="452" y="164"/>
			<point x="413" y="58"/>
			<point x="261" y="58" type="curve" smooth="yes"/>
			<point x="195" y="58"/>
			<point x="113" y="87"/>
			<point x="71" y="127" type="curve"/>
			<point x="71" y="46" type="line"/>
			<point x="110" y="15"/>
			<point x="186" y="-14"/>
		</contour>
		<contour>
			<point x="294" y="307" type="curve" smooth="yes"/>
			<point x="198" y="307"/>
			<point x="145" y="357"/>
			<point x="145" y="460" type="curve" smooth="yes"/>
			<point x="145" y="570"/>
			<point x="204" y="627"/>
			<point x="298" y="627" type="curve" smooth="yes"/>
			<point x="400" y="627"/>
			<point x="452" y="555"/>
			<point x="452" y="458" type="curve" smooth="yes"/>
			<point x="451" y="363"/>
			<point x="388" y="307"/>
		</contour>
	</outline>
</glyph>
<glyph name="less" format="2">
	<unicode hex="003C"/>
	<advance width="600"/>
	<outline>
		<contour>
			<point x="525" y="39" type="line"/>
			<point x="525" y="126" type="line"/>
			<point x="147" y="302" type="line"/>
			<point x="525" y="479" type="line"/>
			<point x="525" y="565" type="line"/>
			<point x="75" y="348" type="line"/>
			<point x="75" y="256" type="line"/>
		</contour>
	</outline>
</glyph>
<glyph name="question" format="2">
	<unicode hex="003F"/>
	<advance width="600"/>
	<outline>
		<contour>
			<point x="226" y="198" type="curve"/>
			<point x="300" y="198" type="line"/>
			<point x="301" y="242" type="line" smooth="yes"/>
			<point x="304" y="371"/>
			<point x="493" y="387"/>
			<point x="493" y="545" type="curve" smooth="yes"/>
			<point x="493" y="636"/>
			<point x="428" y="698"/>
			<point x="294" y="698" type="curve" smooth="yes"/>
			<point x="193" y="698"/>
			<point x="130" y="663"/>
			<point x="98" y="642" type="curve"/>
			<point x="98" y="564" type="line"/>
			<point x="140" y="597"/>
			<point x="204" y="625"/>
			<point x="281" y="625" type="curve" smooth="yes"/>
			<point x="369" y="625"/>
			<point x="408" y="588"/>
			<point x="408" y="534" type="curve" smooth="yes"/>
			<point x="408" y="414"/>
			<point x="222" y="404"/>
			<point x="222" y="237" type="curve" smooth="yes"/>
			<point x="222" y="223"/>
			<point x="223" y="212"/>
		</contour>
		<contour>
			<point x="264" y="-12" type="curve" smooth="yes"/>
			<point x="308" y="-12"/>
			<point x="331" y="5"/>
			<point x="331" y="48" type="curve" smooth="yes"/>
			<point x="331" y="91"/>
			<point x="309" y="108"/>
			<point x="264" y="108" type="curve" smooth="yes"/>
			<point x="220" y="108"/>
			<point x="197" y="91"/>
			<point x="197" y="48" type="curve" smooth="yes"/>
			<point x="197" y="5"/>
			<point x="220" y="-12"/>
		</contour>
	</outline>
</glyph>
<glyph name="at" format="2">
	<unicode hex="0040"/>
	<advance width="600"/>
	<outline>
		<contour>
			<point x="369" y="-135" type="curve" smooth="yes"/>
			<point x="442" y="-135"/>
			<point x="503" y="-118"/>
			<point x="543" y="-95" type="curve"/>
			<point x="543" y="-27" type="line"/>
			<point x="497" y="-52"/>
			<point x="444" y="-64"/>
			<point x="370" y="-64" type="curve" smooth="yes"/>
			<point x="188" y="-64"/>
			<point x="119" y="75"/>
			<point x="119" y="287" type="curve" smooth="yes"/>
			<point x="119" y="294" type="line" smooth="yes"/>
			<point x="119" y="513"/>
			<point x="189" y="630"/>
			<point x="324" y="630" type="curve" smooth="yes"/>
			<point x="440" y="630"/>
			<point x="471" y="566"/>
			<point x="471" y="470" type="curve" smooth="yes"/>
			<point x="471" y="397" type="line"/>
			<point x="451" y="455"/>
			<point x="410" y="491"/>
			<point x="352" y="491" type="curve" smooth="yes"/>
			<point x="261" y="491"/>
			<point x="200" y="413"/>
			<point x="200" y="276" type="curve" smooth="yes"/>
			<point x="200" y="143"/>
			<point x="256" y="63"/>
			<point x="350" y="63" type="curve" smooth="yes"/>
			<point x="417" y="63"/>
			<point x="456" y="104"/>
			<point x="472" y="169" type="curve"/>
			<point x="472" y="66" type="line"/>
			<point x="543" y="66" type="line"/>
			<point x="543" y="473" type="line" smooth="yes"/>
			<point x="543" y="616"/>
			<point x="484" y="698"/>
			<point x="326" y="698" type="curve" smooth="yes"/>
			<point x="139" y="698"/>
			<point x="45" y="543"/>
			<point x="45" y="298" type="curve" smooth="yes"/>
			<point x="45" y="284" type="line" smooth="yes"/>
			<point x="45" y="4"/>
			<point x="156" y="-135"/>
		</contour>
		<contour>
			<point x="370" y="125" type="curve" smooth="yes"/>
			<point x="306" y="125"/>
			<point x="273" y="179"/>
			<point x="273" y="277" type="curve" smooth="yes"/>
			<point x="273" y="375"/>
			<point x="306" y="430"/>
			<point x="370" y="430" type="curve" smooth="yes"/>
			<point x="430" y="430"/>
			<point x="473" y="373"/>
			<point x="473" y="276" type="curve" smooth="yes"/>
			<point x="473" y="177"/>
			<point x="435" y="125"/>
		</contour>
	</outline>
</glyph>
<glyph name="A" format="2">
	<unicode hex="0041"/>
	<advance width="600"/>
	<outline>
		<contour>
			<point x="24" y="0" type="line"/>
			<point x="113" y="0" type="line"/>
			<point x="166" y="176" type="line"/>
			<point x="433" y="176" type="line"/>
			<point x="487" y="0" type="line"/>
			<point x="576" y="0" type="line"/>
			<point x="355" y="687" type="line"/>
			<point x="241" y="687" type="line"/>
		</contour>
		<contour>
			<point x="187" y="248" type="line"/>
			<point x="298" y="618" type="line"/>
			<point x="411" y="248" type="line"/>
		</contour>
	</outline>
	<anchor name="ogonek" x="576" y="0"/>
	<anchor name="bottom" x="314" y="0"/>
	<anchor name="top" x="299" y="684"/>
</glyph>
<glyph name="B" format="2">
	<unicode hex="0042"/>
	<advance width="600"/>
	<outline>
		<contour>
			<point x="340" y="686" type="curve" smooth="yes"/>
			<point x="81" y="686" type="line"/>
			<point x="81" y="0" type="line"/>
			<point x="340" y="0" type="line" smooth="yes"/>
			<point x="479" y="0"/>
			<point x="544" y="82"/>
			<point x="544" y="186" type="curve" smooth="yes"/>
			<point x="544" y="279"/>
			<point x="496" y="337"/>
			<point x="399" y="351" type="curve"/>
			<point x="482" y="369"/>
			<point x="532" y="427"/>
			<point x="532" y="511" type="curve" smooth="yes"/>
			<point x="532" y="620"/>
			<point x="468" y="686"/>
		</contour>
		<contour>
			<point x="323" y="615" type="line" smooth="yes"/>
			<point x="410" y="615"/>
			<point x="445" y="569"/>
			<point x="445" y="501" type="curve" smooth="yes"/>
			<point x="445" y="433"/>
			<point x="403" y="381"/>
			<point x="323" y="381" type="curve" smooth="yes"/>
			<point x="166" y="381" type="line"/>
			<point x="166" y="615" type="line"/>
		</contour>
		<contour>
			<point x="322" y="311" type="line" smooth="yes"/>
			<point x="421" y="311"/>
			<point x="455" y="257"/>
			<point x="455" y="191" type="curve" smooth="yes"/>
			<point x="455" y="132"/>
			<point x="429" y="72"/>
			<point x="325" y="72" type="curve" smooth="yes"/>
			<point x="166" y="72" type="line"/>
			<point x="166" y="311" type="line"/>
		</contour>
	</outline>
	<anchor name="top" x="311" y="684"/>
	<anchor name="bottom" x="326" y="0"/>
</glyph>
<glyph name="I" format="2">
	<unicode hex="0049"/>
	<advance width="600"/>
	<outline>
		<contour>
			<point x="84" y="0" type="line"/>
			<point x="516" y="0" type="line"/>
			<point x="516" y="71" type="line"/>
			<point x="343" y="71" type="line"/>
			<point x="343" y="614" type="line"/>
			<point x="516" y="614" type="line"/>
			<point x="516" y="684" type="line"/>
			<point x="84" y="684" type="line"/>
			<point x="84" y="614" type="line"/>
			<point x="257" y="614" type="line"/>
			<point x="257" y="71" type="line"/>
			<point x="84" y="71" type="line"/>
		</contour>
	</outline>
	<anchor name="ogonek" x="515" y="0"/>
	<anchor name="bottom" x="301" y="0"/>
	<anchor name="top" x="300" y="684"/>
</glyph>
<glyph name="O" format="2">
	<unicode hex="004F"/>
	<advance width="600"/>
	<outline>
		<contour>
			<point x="300" y="-14" type="curve" smooth="yes"/>
			<point x="451" y="-14"/>
			<point x="544" y="104"/>
			<point x="544" y="335" type="curve" smooth="yes"/>
			<point x="544" y="349" type="line" smooth="yes"/>
			<point x="544" y="579"/>
			<point x="451" y="698"/>
			<point x="300" y="698" type="curve" smooth="yes"/>
			<point x="149" y="698"/>
			<point x="56" y="579"/>
			<point x="56" y="349" type="curve" smooth="yes"/>
			<point x="56" y="335" type="line" smooth="yes"/>
			<point x="56" y="104"/>
			<point x="149" y="-14"/>
		</contour>
		<contour>
			<point x="300" y="58" type="curve" smooth="yes"/>
			<point x="202" y="58"/>
			<point x="145" y="145"/>
			<point x="145" y="338" type="curve" smooth="yes"/>
			<point x="145" y="345" type="line" smooth="yes"/>
			<point x="145" y="540"/>
			<point x="202" y="626"/>
			<point x="300" y="626" type="curve" smooth="yes"/>
			<point x="397" y="626"/>
			<point x="455" y="540"/>
			<point x="455" y="345" type="curve" smooth="yes"/>
			<point x="455" y="338" type="line" smooth="yes"/>
			<point x="455" y="145"/>
			<point x="397" y="58"/>
		</contour>
	</outline>
	<anchor name="center" x="306" y="351"/>
	<anchor name="bottom" x="301" y="0"/>
	<anchor name="top" x="301" y="684"/>
</glyph>
<glyph name="P" format="2">
	<unicode hex="0050"/>
	<advance width="600"/>
	<outline>
		<contour>
			<point x="85" y="0" type="line"/>
			<point x="170" y="0" type="line"/>
			<point x="170" y="227" type="line"/>
			<point x="331" y="227" type="line" smooth="yes"/>
			<point x="470" y="227"/>
			<point x="559" y="320"/>
			<point x="559" y="459" type="curve" smooth="yes"/>
			<point x="559" y="597"/>
			<point x="469" y="684"/>
			<point x="331" y="684" type="curve" smooth="yes"/>
			<point x="85" y="684" type="line"/>
		</contour>
		<contour>
			<point x="319" y="612" type="line" smooth="yes"/>
			<point x="418" y="612"/>
			<point x="471" y="551"/>
			<point x="471" y="459" type="curve" smooth="yes"/>
			<point x="471" y="366"/>
			<point x="420" y="299"/>
			<point x="319" y="299" type="curve" smooth="yes"/>
			<point x="170" y="299" type="line"/>
			<point x="170" y="612" type="line"/>
		</contour>
	</outline>
	<anchor name="top" x="338" y="684"/>
	<anchor name="bottom" x="187" y="0"/>
</glyph>
<glyph name="Q" format="2">
	<unicode hex="0051"/>
	<advance width="600"/>
	<outline>
		<contour>
			<point x="334" y="-68" type="curve" smooth="yes"/>
			<point x="498" y="-121" type="line"/>
			<point x="533" y="-51" type="line"/>
			<point x="336" y="6" type="line"/>
			<point x="484" y="23"/>
			<point x="544" y="175"/>
			<point x="544" y="346" type="curve" smooth="yes"/>
			<point x="544" y="364" type="line" smooth="yes"/>
			<point x="544" y="580"/>
			<point x="452" y="698"/>
			<point x="301" y="698" type="curve" smooth="yes"/>
			<point x="149" y="698"/>
			<point x="56" y="579"/>
			<point x="56" y="351" type="curve" smooth="yes"/>
			<point x="56" y="334" type="line" smooth="yes"/>
			<point x="56" y="125"/>
			<point x="125" y="-1"/>
		</contour>
		<contour>
			<point x="299" y="58" type="curve" smooth="yes"/>
			<point x="202" y="58"/>
			<point x="146" y="150"/>
			<point x="146" y="336" type="curve" smooth="yes"/>
			<point x="146" y="350" type="line" smooth="yes"/>
			<point x="146" y="540"/>
			<point x="202" y="626"/>
			<point x="300" y="626" type="curve" smooth="yes"/>
			<point x="397" y="626"/>
			<point x="454" y="537"/>
			<point x="454" y="358" type="curve" smooth="yes"/>
			<point x="454" y="343" type="line" smooth="yes"/>
			<point x="454" y="161"/>
			<point x="392" y="58"/>
		</contour>
	</outline>
	<anchor name="top" x="285" y="684"/>
	<anchor name="bottom" x="291" y="0"/>
</glyph>
<glyph name="S" format="2">
	<unicode hex="0053"/>
	<advance width="600"/>
	<outline>
		<contour>
			<point x="309" y="-14" type="curve" smooth="yes"/>
			<point x="443" y="-14"/>
			<point x="538" y="60"/>
			<point x="538" y="194" type="curve" smooth="yes"/>
			<point x="538" y="341"/>
			<point x="422" y="360"/>
			<point x="305" y="382" type="curve" smooth="yes"/>
			<point x="207" y="400"/>
			<point x="150" y="422"/>
			<point x="150" y="501" type="curve" smooth="yes"/>
			<point x="150" y="585"/>
			<point x="213" y="628"/>
			<point x="299" y="628" type="curve" smooth="yes"/>
			<point x="384" y="628"/>
			<point x="466" y="600"/>
			<point x="520" y="556" type="curve"/>
			<point x="520" y="638" type="line"/>
			<point x="468" y="673"/>
			<point x="392" y="698"/>
			<point x="301" y="698" type="curve" smooth="yes"/>
			<point x="164" y="698"/>
			<point x="64" y="624"/>
			<point x="64" y="492" type="curve" smooth="yes"/>
			<point x="64" y="349"/>
			<point x="168" y="321"/>
			<point x="284" y="302" type="curve" smooth="yes"/>
			<point x="380" y="285"/>
			<point x="452" y="272"/>
			<point x="452" y="185" type="curve" smooth="yes"/>
			<point x="452" y="99"/>
			<point x="392" y="58"/>
			<point x="308" y="58" type="curve" smooth="yes"/>
			<point x="217" y="58"/>
			<point x="138" y="92"/>
			<point x="71" y="151" type="curve"/>
			<point x="71" y="63" type="line"/>
			<point x="128" y="21"/>
			<point x="200" y="-14"/>
		</contour>
	</outline>
	<anchor name="top" x="306" y="684"/>
	<anchor name="bottom" x="312" y="0"/>
</glyph>
<glyph name="V" format="2">
	<unicode hex="0056"/>
	<advance width="600"/>
	<outline>
		<contour>
			<point x="241" y="-2" type="line"/>
			<point x="359" y="-2" type="line"/>
			<point x="568" y="684" type="line"/>
			<point x="478" y="684" type="line"/>
			<point x="301" y="77" type="line"/>
			<point x="122" y="684" type="line"/>
			<point x="32" y="684" type="line"/>
		</contour>
	</outline>
	<anchor name="overlap" x="305" y="684"/>
	<anchor name="ogonek" x="601" y="0"/>
	<anchor name="top" x="310" y="684"/>
	<anchor name="bottom" x="314" y="0"/>
</glyph>
<glyph name="W" format="2">
	<unicode hex="0057"/>
	<advance width="600"/>
	<outline>
		<contour>
			<point x="105" y="0" type="line"/>
			<point x="223" y="0" type="line"/>
			<point x="296" y="420" type="line"/>
			<point x="303" y="420" type="line"/>
			<point x="377" y="0" type="line"/>
			<point x="495" y="0" type="line"/>
			<point x="564" y="684" type="line"/>
			<point x="484" y="685" type="line"/>
			<point x="431" y="94" type="line"/>
			<point x="425" y="94" type="line"/>
			<point x="351" y="525" type="line"/>
			<point x="251" y="525" type="line"/>
			<point x="177" y="94" type="line"/>
			<point x="170" y="94" type="line"/>
			<point x="116" y="684" type="line"/>
			<point x="36" y="684" type="line"/>
		</contour>
	</outline>
	<anchor name="top" x="300" y="684"/>
</glyph>
<glyph name="Z" format="2">
	<unicode hex="005A"/>
	<advance width="600"/>
	<outline>
		<contour>
			<point x="63" y="0" type="line"/>
			<point x="538" y="0" type="line"/>
			<point x="538" y="73" type="line"/>
			<point x="169" y="73" type="line"/>
			<point x="537" y="614" type="line"/>
			<point x="537" y="684" type="line"/>
			<point x="79" y="684" type="line"/>
			<point x="79" y="612" type="line"/>
			<point x="440" y="612" type="line"/>
			<point x="63" y="66" type="line"/>
		</contour>
	</outline>
	<anchor name="top" x="306" y="684"/>
	<anchor name="bottom" x="300" y="0"/>
</glyph>
<glyph name="underscore" format="2">
	<unicode hex="005F"/>
	<advance width="600"/>
	<outline>
		<contour>
			<point x="30" y="-102" type="line"/>
			<point x="30" y="-171" type="line"/>
			<point x="570" y="-171" type="line"/>
			<point x="570" y="-102" type="line"/>
		</contour>
	</outline>
</glyph>
<glyph name="b" format="2">
	<unicode hex="0062"/>
	<advance width="600"/>
	<outline>
		<contour>
			<point x="336" y="-14" type="curve" smooth="yes"/>
			<point x="453" y="-14"/>
			<point x="539" y="85"/>
			<point x="539" y="255" type="curve" smooth="yes"/>
			<point x="539" y="269" type="line" smooth="yes"/>
			<point x="539" y="436"/>
			<point x="460" y="537"/>
			<point x="343" y="537" type="curve" smooth="yes"/>
			<point x="261" y="537"/>
			<point x="200" y="488"/>
			<point x="168" y="412" type="curve"/>
			<point x="168" y="750" type="line"/>
			<point x="84" y="750" type="line"/>
			<point x="84" y="0" type="line"/>
			<point x="167" y="0" type="line"/>
			<point x="167" y="97" type="line"/>
			<point x="201" y="24"/>
			<point x="259" y="-14"/>
		</contour>
		<contour>
			<point x="309" y="56" type="curve" smooth="yes"/>
			<point x="223" y="56"/>
			<point x="164" y="125"/>
			<point x="164" y="258" type="curve" smooth="yes"/>
			<point x="164" y="265" type="line" smooth="yes"/>
			<point x="164" y="400"/>
			<point x="229" y="468"/>
			<point x="312" y="468" type="curve" smooth="yes"/>
			<point x="396" y="468"/>
			<point x="452" y="401"/>
			<point x="452" y="265" type="curve" smooth="yes"/>
			<point x="452" y="258" type="line" smooth="yes"/>
			<point x="452" y="125"/>
			<point x="397" y="56"/>
		</contour>
	</outline>
</glyph>
<glyph name="c" format="2">
	<unicode hex="0063"/>
	<advance width="600"/>
	<outline>
		<contour>
			<point x="360" y="-12" type="curve" smooth="yes"/>
			<point x="420" y="-12"/>
			<point x="473" y="2"/>
			<point x="506" y="24" type="curve"/>
			<point x="506" y="93" type="line"/>
			<point x="472" y="73"/>
			<point x="423" y="58"/>
			<point x="372" y="58" type="curve" smooth="yes"/>
			<point x="253" y="58"/>
			<point x="180" y="132"/>
			<point x="180" y="259" type="curve" smooth="yes"/>
			<point x="180" y="266" type="line" smooth="yes"/>
			<point x="180" y="390"/>
			<point x="251" y="465"/>
			<point x="376" y="465" type="curve" smooth="yes"/>
			<point x="418" y="465"/>
			<point x="467" y="455"/>
			<point x="506" y="432" type="curve"/>
			<point x="506" y="504" type="line"/>
			<point x="474" y="522"/>
			<point x="420" y="535"/>
			<point x="367" y="535" type="curve" smooth="yes"/>
			<point x="203" y="535"/>
			<point x="93" y="428"/>
			<point x="93" y="267" type="curve" smooth="yes"/>
			<point x="93" y="256" type="line" smooth="yes"/>
			<point x="93" y="90"/>
			<point x="195" y="-12"/>
		</contour>
	</outline>
	<anchor name="top" x="366" y="523"/>
	<anchor name="bottom" x="350" y="0"/>
</glyph>
<glyph name="f" format="2">
	<unicode hex="0066"/>
	<advance width="600"/>
	<outline>
		<contour>
			<point x="62" y="0" type="line"/>
			<point x="517" y="0" type="line"/>
			<point x="517" y="70" type="line"/>
			<point x="315" y="70" type="line"/>
			<point x="315" y="453" type="line"/>
			<point x="520" y="453" type="line"/>
			<point x="520" y="523" type="line"/>
			<point x="315" y="523" type="line"/>
			<point x="315" y="607" type="line" smooth="yes"/>
			<point x="315" y="667"/>
			<point x="351" y="692"/>
			<point x="409" y="692" type="curve" smooth="yes"/>
			<point x="448" y="692"/>
			<point x="490" y="684"/>
			<point x="513" y="671" type="curve"/>
			<point x="513" y="737" type="line"/>
			<point x="486" y="751"/>
			<point x="441" y="760"/>
			<point x="395" y="760" type="curve" smooth="yes"/>
			<point x="298" y="760"/>
			<point x="231" y="709"/>
			<point x="231" y="611" type="curve" smooth="yes"/>
			<point x="231" y="523" type="line"/>
			<point x="66" y="523" type="line"/>
			<point x="66" y="453" type="line"/>
			<point x="231" y="453" type="line"/>
			<point x="231" y="70" type="line"/>
			<point x="62" y="70" type="line"/>
		</contour>
	</outline>
</glyph>
<glyph name="h" format="2">
	<unicode hex="0068"/>
	<advance width="600"/>
	<outline>
		<contour>
			<point x="348" y="537" type="curve" smooth="yes"/>
			<point x="269" y="537"/>
			<point x="212" y="492"/>
			<point x="178" y="420" type="curve"/>
			<point x="178" y="750" type="line"/>
			<point x="94" y="750" type="line"/>
			<point x="94" y="0" type="line"/>
			<point x="178" y="0" type="line"/>
			<point x="178" y="302" type="line" smooth="yes"/>
			<point x="178" y="332"/>
			<point x="182" y="361"/>
			<point x="194" y="385" type="curve" smooth="yes"/>
			<point x="216" y="430"/>
			<point x="251" y="466"/>
			<point x="315" y="466" type="curve" smooth="yes"/>
			<point x="384" y="466"/>
			<point x="426" y="419"/>
			<point x="426" y="329" type="curve" smooth="yes"/>
			<point x="426" y="0" type="line"/>
			<point x="510" y="0" type="line"/>
			<point x="510" y="346" type="line" smooth="yes"/>
			<point x="510" y="474"/>
			<point x="446" y="537"/>
		</contour>
	</outline>
	<anchor name="bottom" x="303" y="0"/>
	<anchor name="caron" x="5473" y="748"/>
	<anchor name="top" x="136" y="728"/>
	<anchor name="center" x="180" y="626"/>
</glyph>
<glyph name="i" format="2">
	<unicode hex="0069"/>
	<advance width="600"/>
	<outline>
		<contour>
			<point x="317" y="636" type="curve" smooth="yes"/>
			<point x="363" y="636"/>
			<point x="379" y="654"/>
			<point x="379" y="689" type="curve" smooth="yes"/>
			<point x="379" y="724"/>
			<point x="362" y="743"/>
			<point x="317" y="743" type="curve" smooth="yes"/>
			<point x="273" y="743"/>
			<point x="256" y="725"/>
			<point x="256" y="689" type="curve" smooth="yes"/>
			<point x="256" y="654"/>
			<point x="272" y="636"/>
		</contour>
		<contour>
			<point x="87" y="0" type="line"/>
			<point x="543" y="0" type="line"/>
			<point x="543" y="70" type="line"/>
			<point x="362" y="70" type="line"/>
			<point x="362" y="523" type="line"/>
			<point x="88" y="523" type="line"/>
			<point x="88" y="453" type="line"/>
			<point x="278" y="453" type="line"/>
			<point x="278" y="70" type="line"/>
			<point x="87" y="70" type="line"/>
		</contour>
	</outline>
	<anchor name="ogonek" x="541" y="0"/>
</glyph>
<glyph name="k" format="2">
	<unicode hex="006B"/>
	<advance width="600"/>
	<outline>
		<contour>
			<point x="112" y="0" type="line"/>
			<point x="195" y="0" type="line"/>
			<point x="195" y="136" type="line"/>
			<point x="290" y="250" type="line"/>
			<point x="440" y="0" type="line"/>
			<point x="535" y="0" type="line"/>
			<point x="353" y="305" type="line"/>
			<point x="527" y="524" type="line"/>
			<point x="430" y="524" type="line"/>
			<point x="195" y="222" type="line"/>
			<point x="195" y="750" type="line"/>
			<point x="112" y="750" type="line"/>
		</contour>
	</outline>
	<anchor name="top" x="229" y="523"/>
	<anchor name="bottom" x="310" y="0"/>
</glyph>
<glyph name="m" format="2">
	<unicode hex="006D"/>
	<advance width="600"/>
	<outline>
		<contour>
			<point x="57" y="0" type="line"/>
			<point x="133" y="0" type="line"/>
			<point x="133" y="358" type="line" smooth="yes"/>
			<point x="133" y="393"/>
			<point x="141" y="421"/>
			<point x="154" y="441" type="curve" smooth="yes"/>
			<point x="166" y="460"/>
			<point x="184" y="470"/>
			<point x="207" y="470" type="curve" smooth="yes"/>
			<point x="246" y="470"/>
			<point x="264" y="442"/>
			<point x="264" y="392" type="curve" smooth="yes"/>
			<point x="264" y="0" type="line"/>
			<point x="338" y="0" type="line"/>
			<point x="338" y="361" type="line"/>
			<point x="338" y="397"/>
			<point x="344" y="426"/>
			<point x="359" y="445" type="curve" smooth="yes"/>
			<point x="371" y="461"/>
			<point x="389" y="470"/>
			<point x="413" y="470" type="curve" smooth="yes"/>
			<point x="452" y="470"/>
			<point x="469" y="442"/>
			<point x="469" y="387" type="curve" smooth="yes"/>
			<point x="469" y="0" type="line"/>
			<point x="544" y="0" type="line"/>
			<point x="544" y="399" type="line" smooth="yes"/>
			<point x="544" y="481"/>
			<point x="515" y="537"/>
			<point x="442" y="537" type="curve" smooth="yes"/>
			<point x="393" y="537"/>
			<point x="356" y="506"/>
			<point x="335" y="450" type="curve"/>
			<point x="325" y="506"/>
			<point x="288" y="536"/>
			<point x="236" y="536" type="curve" smooth="yes"/>
			<point x="185" y="536"/>
			<point x="151" y="502"/>
			<point x="132" y="450" type="curve"/>
			<point x="132" y="523" type="line"/>
			<point x="57" y="523" type="line"/>
		</contour>
	</outline>
	<anchor name="top" x="324" y="523"/>
	<anchor name="bottom" x="283" y="0"/>
</glyph>
<glyph name="n" format="2">
	<unicode hex="006E"/>
	<advance width="600"/>
	<outline>
		<contour>
			<point x="94" y="0" type="line"/>
			<point x="178" y="0" type="line"/>
			<point x="178" y="302" type="line" smooth="yes"/>
			<point x="178" y="332"/>
			<point x="182" y="360"/>
			<point x="194" y="385" type="curve" smooth="yes"/>
			<point x="215" y="430"/>
			<point x="251" y="466"/>
			<point x="313" y="466" type="curve" smooth="yes"/>
			<point x="384" y="466"/>
			<point x="426" y="419"/>
			<point x="426" y="329" type="curve" smooth="yes"/>
			<point x="426" y="0" type="line"/>
			<point x="510" y="0" type="line"/>
			<point x="510" y="346" type="line" smooth="yes"/>
			<point x="510" y="474"/>
			<point x="446" y="537"/>
			<point x="347" y="537" type="curve" smooth="yes"/>
			<point x="266" y="537"/>
			<point x="209" y="491"/>
			<point x="176" y="415" type="curve"/>
			<point x="176" y="523" type="line"/>
			<point x="94" y="523" type="line"/>
		</contour>
	</outline>
	<anchor name="top" x="306" y="523"/>
	<anchor name="bottom" x="303" y="0"/>
</glyph>
<glyph name="q" format="2">
	<unicode hex="0071"/>
	<advance width="600"/>
	<outline>
		<contour>
			<point x="432" y="-194" type="line"/>
			<point x="517" y="-194" type="line"/>
			<point x="517" y="523" type="line"/>
			<point x="434" y="523" type="line"/>
			<point x="434" y="424" type="line"/>
			<point x="401" y="496"/>
			<point x="346" y="537"/>
			<point x="265" y="537" type="curve" smooth="yes"/>
			<point x="152" y="537"/>
			<point x="63" y="437"/>
			<point x="63" y="269" type="curve" smooth="yes"/>
			<point x="63" y="257" type="line" smooth="yes"/>
			<point x="63" y="86"/>
			<point x="139" y="-14"/>
			<point x="259" y="-14" type="curve" smooth="yes"/>
			<point x="342" y="-14"/>
			<point x="400" y="35"/>
			<point x="432" y="110" type="curve"/>
		</contour>
		<contour>
			<point x="288" y="55" type="curve" smooth="yes"/>
			<point x="207" y="55"/>
			<point x="150" y="122"/>
			<point x="150" y="258" type="curve" smooth="yes"/>
			<point x="150" y="265" type="line" smooth="yes"/>
			<point x="150" y="398"/>
			<point x="207" y="467"/>
			<point x="291" y="467" type="curve" smooth="yes"/>
			<point x="379" y="467"/>
			<point x="436" y="398"/>
			<point x="436" y="264" type="curve" smooth="yes"/>
			<point x="436" y="258" type="line" smooth="yes"/>
			<point x="436" y="123"/>
			<point x="372" y="55"/>
		</contour>
	</outline>
</glyph>
<glyph name="v" format="2">
	<unicode hex="0076"/>
	<advance width="600"/>
	<outline>
		<contour>
			<point x="67" y="523" type="line"/>
			<point x="243" y="-1" type="line"/>
			<point x="356" y="-1" type="line"/>
			<point x="533" y="523" type="line"/>
			<point x="445" y="523" type="line"/>
			<point x="302" y="71" type="line"/>
			<point x="156" y="523" type="line"/>
		</contour>
	</outline>
</glyph>
<glyph name="w" format="2">
	<unicode hex="0077"/>
	<advance width="600"/>
	<outline>
		<contour>
			<point x="112" y="0" type="line"/>
			<point x="224" y="0" type="line"/>
			<point x="298" y="432" type="line"/>
			<point x="304" y="432" type="line"/>
			<point x="374" y="0" type="line"/>
			<point x="487" y="0" type="line"/>
			<point x="571" y="523" type="line"/>
			<point x="494" y="523" type="line"/>
			<point x="428" y="79" type="line"/>
			<point x="422" y="79" type="line"/>
			<point x="348" y="523" type="line"/>
			<point x="252" y="523" type="line"/>
			<point x="178" y="79" type="line"/>
			<point x="171" y="79" type="line"/>
			<point x="108" y="523" type="line"/>
			<point x="29" y="523" type="line"/>
		</contour>
	</outline>
	<anchor name="top" x="300" y="523"/>
	<anchor name="bottom" x="262" y="1"/>
</glyph>
<glyph name="x" format="2">
	<unicode hex="0078"/>
	<advance width="600"/>
	<outline>
		<contour>
			<point x="66" y="0" type="line"/>
			<point x="162" y="0" type="line"/>
			<point x="298" y="217" type="line"/>
			<point x="437" y="0" type="line"/>
			<point x="534" y="0" type="line"/>
			<point x="352" y="276" type="line"/>
			<point x="523" y="523" type="line"/>
			<point x="428" y="523" type="line"/>
			<point x="300" y="328" type="line"/>
			<point x="173" y="523" type="line"/>
			<point x="77" y="523" type="line"/>
			<point x="247" y="272" type="line"/>
		</contour>
	</outline>
	<anchor name="top" x="333" y="523"/>
	<anchor name="bottom" x="337" y="0"/>
</glyph>
<glyph name="y" format="2">
	<unicode hex="0079"/>
	<advance width="600"/>
	<outline>
		<contour>
			<point x="168" y="-204" type="curve" smooth="yes"/>
			<point x="246" y="-204"/>
			<point x="299" y="-165"/>
			<point x="329" y="-73" type="curve" smooth="yes"/>
			<point x="533" y="523" type="line"/>
			<point x="445" y="523" type="line"/>
			<point x="300" y="65" type="line"/>
			<point x="156" y="523" type="line"/>
			<point x="67" y="523" type="line"/>
			<point x="237" y="4" type="line"/>
			<point x="279" y="4" type="line"/>
			<point x="258" y="-55" type="line" smooth="yes"/>
			<point x="239" y="-116"/>
			<point x="207" y="-137"/>
			<point x="158" y="-137" type="curve" smooth="yes"/>
			<point x="136" y="-137"/>
			<point x="115" y="-134"/>
			<point x="99" y="-129" type="curve"/>
			<point x="99" y="-193" type="line"/>
			<point x="118" y="-200"/>
			<point x="138" y="-204"/>
		</contour>
	</outline>
	<anchor name="top" x="301" y="523"/>
	<anchor name="bottom" x="271" y="-47"/>
</glyph>
<glyph name="braceright" format="2">
	<unicode hex="007D"/>
	<advance width="600"/>
	<outline>
		<contour>
			<point x="112" y="-163" type="line"/>
			<point x="255" y="-163" type="line" smooth="yes"/>
			<point x="371" y="-163"/>
			<point x="424" y="-102"/>
			<point x="424" y="-23" type="curve" smooth="yes"/>
			<point x="424" y="71"/>
			<point x="316" y="135"/>
			<point x="316" y="205" type="curve" smooth="yes"/>
			<point x="316" y="235"/>
			<point x="339" y="275"/>
			<point x="416" y="275" type="curve" smooth="yes"/>
			<point x="472" y="275" type="line"/>
			<point x="472" y="352" type="line"/>
			<point x="416" y="352" type="line" smooth="yes"/>
			<point x="339" y="352"/>
			<point x="316" y="392"/>
			<point x="316" y="422" type="curve" smooth="yes"/>
			<point x="316" y="493"/>
			<point x="424" y="558"/>
			<point x="424" y="653" type="curve" smooth="yes"/>
			<point x="424" y="730"/>
			<point x="365" y="792"/>
			<point x="255" y="792" type="curve" smooth="yes"/>
			<point x="112" y="792" type="line"/>
			<point x="112" y="728" type="line"/>
			<point x="237" y="728" type="line" smooth="yes"/>
			<point x="297" y="728"/>
			<point x="340" y="703"/>
			<point x="340" y="646" type="curve" smooth="yes"/>
			<point x="340" y="571"/>
			<point x="233" y="512"/>
			<point x="233" y="419" type="curve" smooth="yes"/>
			<point x="233" y="365"/>
			<point x="285" y="325"/>
			<point x="352" y="314" type="curve"/>
			<point x="285" y="303"/>
			<point x="233" y="262"/>
			<point x="233" y="208" type="curve" smooth="yes"/>
			<point x="233" y="116"/>
			<point x="340" y="58"/>
			<point x="340" y="-16" type="curve" smooth="yes"/>
			<point x="340" y="-73"/>
			<point x="299" y="-99"/>
			<point x="235" y="-99" type="curve" smooth="yes"/>
			<point x="112" y="-99" type="line"/>
		</contour>
	</outline>
</glyph>
<glyph name="asciitilde" format="2">
	<unicode hex="007E"/>
	<advance width="600"/>
	<outline>
		<contour>
			<point x="76" y="216" type="curve"/>
			<point x="148" y="216" type="line"/>
			<point x="148" y="294"/>
			<point x="161" y="335"/>
			<point x="204" y="335" type="curve" smooth="yes"/>
			<point x="269" y="335"/>
			<point x="304" y="212"/>
			<point x="403" y="212" type="curve" smooth="yes"/>
			<point x="477" y="212"/>
			<point x="524" y="260"/>
			<point x="524" y="405" type="curve"/>
			<point x="452" y="405" type="line"/>
			<point x="452" y="324"/>
			<point x="440" y="289"/>
			<point x="399" y="289" type="curve" smooth="yes"/>
			<point x="337" y="289"/>
			<point x="296" y="412"/>
			<point x="196" y="412" type="curve" smooth="yes"/>
			<point x="111" y="412"/>
			<point x="76" y="340"/>
		</contour>
	</outline>
</glyph>
<glyph name="sterling" format="2">
	<unicode hex="00A3"/>
	<advance width="600"/>
	<outline>
		<contour>
			<point x="79" y="71" type="curve"/>
			<point x="79" y="-1" type="line"/>
			<point x="535" y="-1" type="line"/>
			<point x="535" y="73" type="line"/>
			<point x="177" y="73" type="line"/>
			<point x="208" y="96"/>
			<point x="265" y="163"/>
			<point x="245" y="292" type="curve"/>
			<point x="432" y="292" type="line"/>
			<point x="432" y="359" type="line"/>
			<point x="234" y="359" type="line"/>
			<point x="223" y="402"/>
			<point x="205" y="444"/>
			<point x="205" y="491" type="curve" smooth="yes"/>
			<point x="204" y="577"/>
			<point x="253" y="624"/>
			<point x="343" y="624" type="curve" smooth="yes"/>
			<point x="410" y="624"/>
			<point x="481" y="599"/>
			<point x="535" y="557" type="curve"/>
			<point x="535" y="640" type="line"/>
			<point x="490" y="671"/>
			<point x="426" y="698"/>
			<point x="336" y="698" type="curve" smooth="yes"/>
			<point x="203" y="698"/>
			<point x="120" y="617"/>
			<point x="120" y="501" type="curve" smooth="yes"/>
			<point x="120" y="449"/>
			<point x="138" y="398"/>
			<point x="151" y="359" type="curve"/>
			<point x="69" y="359" type="line"/>
			<point x="69" y="292" type="line"/>
			<point x="161" y="292" type="line"/>
			<point x="178" y="177"/>
			<point x="128" y="102"/>
		</contour>
	</outline>
</glyph>
<glyph name="currency" format="2">
	<unicode hex="00A4"/>
	<advance width="600"/>
	<outline>
		<contour>
			<point x="103" y="68" type="line"/>
			<point x="179" y="152" type="line"/>
			<point x="212" y="129"/>
			<point x="252" y="117"/>
			<point x="299" y="117" type="curve" smooth="yes"/>
			<point x="346" y="117"/>
			<point x="388" y="130"/>
			<point x="421" y="154" type="curve"/>
			<point x="500" y="68" type="line"/>
			<point x="549" y="117" type="line"/>
			<point x="467" y="204" type="line"/>
			<point x="489" y="240"/>
			<point x="502" y="286"/>
			<point x="502" y="340" type="curve" smooth="yes"/>
			<point x="502" y="395"/>
			<point x="489" y="442"/>
			<point x="467" y="478" type="curve"/>
			<point x="548" y="566" type="line"/>
			<point x="497" y="612" type="line"/>
			<point x="419" y="528" type="line"/>
			<point x="387" y="551"/>
			<point x="346" y="563"/>
			<point x="300" y="563" type="curve" smooth="yes"/>
			<point x="254" y="563"/>
			<point x="213" y="551"/>
			<point x="181" y="528" type="curve"/>
			<point x="101" y="612" type="line"/>
			<point x="53" y="564" type="line"/>
			<point x="133" y="478" type="line"/>
			<point x="110" y="442"/>
			<point x="97" y="396"/>
			<point x="97" y="340" type="curve" smooth="yes"/>
			<point x="97" y="285"/>
			<point x="109" y="238"/>
			<point x="132" y="203" type="curve"/>
			<point x="51" y="115" type="line"/>
		</contour>
		<contour>
			<point x="299" y="185" type="curve" smooth="yes"/>
			<point x="216" y="185"/>
			<point x="168" y="243"/>
			<point x="168" y="340" type="curve" smooth="yes"/>
			<point x="168" y="437"/>
			<point x="216" y="495"/>
			<point x="300" y="495" type="curve" smooth="yes"/>
			<point x="383" y="495"/>
			<point x="430" y="437"/>
			<point x="430" y="340" type="curve" smooth="yes"/>
			<point x="430" y="243"/>
			<point x="383" y="185"/>
		</contour>
	</outline>
</glyph>
<glyph name="section" format="2">
	<unicode hex="00A7"/>
	<advance width="600"/>
	<outline>
		<contour>
			<point x="309" y="-85" type="curve" smooth="yes"/>
			<point x="421" y="-85"/>
			<point x="493" y="-20"/>
			<point x="493" y="77" type="curve" smooth="yes"/>
			<point x="493" y="148"/>
			<point x="460" y="186"/>
			<point x="407" y="207" type="curve"/>
			<point x="474" y="225"/>
			<point x="513" y="266"/>
			<point x="513" y="326" type="curve" smooth="yes"/>
			<point x="513" y="415"/>
			<point x="420" y="438"/>
			<point x="312" y="452" type="curve" smooth="yes"/>
			<point x="236" y="462"/>
			<point x="182" y="476"/>
			<point x="182" y="541" type="curve" smooth="yes"/>
			<point x="182" y="598"/>
			<point x="219" y="635"/>
			<point x="304" y="635" type="curve" smooth="yes"/>
			<point x="372" y="635"/>
			<point x="439" y="617"/>
			<point x="485" y="584" type="curve"/>
			<point x="485" y="654" type="line"/>
			<point x="443" y="680"/>
			<point x="380" y="698"/>
			<point x="303" y="698" type="curve" smooth="yes"/>
			<point x="189" y="698"/>
			<point x="107" y="637"/>
			<point x="107" y="533" type="curve" smooth="yes"/>
			<point x="107" y="463"/>
			<point x="140" y="425"/>
			<point x="199" y="404" type="curve"/>
			<point x="124" y="384"/>
			<point x="87" y="344"/>
			<point x="87" y="286" type="curve" smooth="yes"/>
			<point x="87" y="187"/>
			<point x="189" y="173"/>
			<point x="292" y="160" type="curve" smooth="yes"/>
			<point x="365" y="151"/>
			<point x="418" y="141"/>
			<point x="418" y="72" type="curve" smooth="yes"/>
			<point x="418" y="15"/>
			<point x="377" y="-20"/>
			<point x="305" y="-20" type="curve" smooth="yes"/>
			<point x="236" y="-20"/>
			<point x="168" y="5"/>
			<point x="110" y="43" type="curve"/>
			<point x="110" y="-29" type="line"/>
			<point x="150" y="-54"/>
			<point x="216" y="-85"/>
		</contour>
		<contour>
			<point x="313" y="229" type="curve" smooth="yes"/>
			<point x="240" y="239"/>
			<point x="155" y="247"/>
			<point x="155" y="313" type="curve" smooth="yes"/>
			<point x="155" y="369"/>
			<point x="216" y="391"/>
			<point x="285" y="383" type="curve" smooth="yes"/>
			<point x="363" y="374"/>
			<point x="445" y="364"/>
			<point x="445" y="299" type="curve" smooth="yes"/>
			<point x="445" y="243"/>
			<point x="385" y="220"/>
		</contour>
	</outline>
</glyph>
<glyph name="dieresis" format="2">
	<unicode hex="00A8"/>
	<advance width="600"/>
	<outline>
		<contour>
			<point x="397" y="630" type="curve" smooth="yes"/>
			<point x="439" y="630"/>
			<point x="453" y="648"/>
			<point x="453" y="681" type="curve" smooth="yes"/>
			<point x="453" y="714"/>
			<point x="439" y="732"/>
			<point x="397" y="732" type="curve" smooth="yes"/>
			<point x="355" y="732"/>
			<point x="341" y="714"/>
			<point x="341" y="681" type="curve" smooth="yes"/>
			<point x="341" y="648"/>
			<point x="355" y="630"/>
		</contour>
		<contour>
			<point x="204" y="630" type="curve" smooth="yes"/>
			<point x="246" y="630"/>
			<point x="259" y="648"/>
			<point x="259" y="681" type="curve" smooth="yes"/>
			<point x="259" y="714"/>
			<point x="246" y="732"/>
			<point x="204" y="732" type="curve" smooth="yes"/>
			<point x="161" y="732"/>
			<point x="147" y="714"/>
			<point x="147" y="681" type="curve" smooth="yes"/>
			<point x="147" y="648"/>
			<point x="161" y="630"/>
		</contour>
	</outline>
	<anchor name="_top" x="300" y="523"/>
</glyph>
<glyph name="ordfeminine" format="2">
	<unicode hex="00AA"/>
	<advance width="600"/>
	<outline>
		<contour>
			<point x="239" y="224" type="curve" smooth="yes"/>
			<point x="312" y="224"/>
			<point x="371" y="264"/>
			<point x="401" y="330" type="curve"/>
			<point x="401" y="235" type="line"/>
			<point x="471" y="235" type="line"/>
			<point x="471" y="531" type="line" smooth="yes"/>
			<point x="471" y="641"/>
			<point x="400" y="696"/>
			<point x="280" y="696" type="curve" smooth="yes"/>
			<point x="205" y="696"/>
			<point x="147" y="672"/>
			<point x="114" y="647" type="curve"/>
			<point x="114" y="580" type="line"/>
			<point x="160" y="620"/>
			<point x="216" y="638"/>
			<point x="275" y="638" type="curve" smooth="yes"/>
			<point x="357" y="638"/>
			<point x="399" y="602"/>
			<point x="399" y="526" type="curve" smooth="yes"/>
			<point x="399" y="514" type="line"/>
			<point x="307" y="501" type="line" smooth="yes"/>
			<point x="167" y="482"/>
			<point x="105" y="425"/>
			<point x="105" y="346" type="curve" smooth="yes"/>
			<point x="105" y="269"/>
			<point x="159" y="224"/>
		</contour>
		<contour>
			<point x="264" y="280" type="curve" smooth="yes"/>
			<point x="215" y="280"/>
			<point x="176" y="304"/>
			<point x="176" y="353" type="curve" smooth="yes"/>
			<point x="176" y="407"/>
			<point x="212" y="438"/>
			<point x="315" y="454" type="curve" smooth="yes"/>
			<point x="399" y="467" type="line"/>
			<point x="399" y="417" type="line" smooth="yes"/>
			<point x="399" y="323"/>
			<point x="329" y="280"/>
		</contour>
	</outline>
	<anchor name="ogonek" x="410" y="235"/>
	<anchor name="top" x="233" y="685"/>
	<anchor name="right" x="430" y="235"/>
	<anchor name="bottom" x="232" y="234"/>
</glyph>
<glyph name="logicalnot" format="2">
	<unicode hex="00AC"/>
	<advance width="600"/>
	<outline>
		<contour>
			<point x="525" y="56" type="line"/>
			<point x="524" y="338" type="line"/>
			<point x="75" y="338" type="line"/>
			<point x="75" y="264" type="line"/>
			<point x="443" y="264" type="line"/>
			<point x="445" y="56" type="line"/>
		</contour>
	</outline>
</glyph>
<glyph name="acute" format="2">
	<unicode hex="00B4"/>
	<advance width="600"/>
	<outline>
		<contour>
			<point x="400" y="750" type="line"/>
			<point x="302" y="750" type="line"/>
			<point x="223" y="605" type="line"/>
			<point x="294" y="605" type="line"/>
		</contour>
	</outline>
	<anchor name="_top" x="259" y="523"/>
</glyph>
<glyph name="cedilla" format="2">
	<unicode hex="00B8"/>
	<advance width="600"/>
	<outline>
		<contour>
			<point x="281" y="-219" type="curve" smooth="yes"/>
			<point x="351" y="-219"/>
			<point x="396" y="-187"/>
			<point x="396" y="-124" type="curve" smooth="yes"/>
			<point x="396" y="-77"/>
			<point x="365" y="-49"/>
			<point x="305" y="-47" type="curve"/>
			<point x="327" y="0" type="line"/>
			<point x="274" y="0" type="line"/>
			<point x="234" y="-91" type="line"/>
			<point x="241" y="-89"/>
			<point x="255" y="-87"/>
			<point x="272" y="-87" type="curve" smooth="yes"/>
			<point x="308" y="-87"/>
			<point x="334" y="-96"/>
			<point x="334" y="-126" type="curve" smooth="yes"/>
			<point x="334" y="-157"/>
			<point x="311" y="-168"/>
			<point x="272" y="-168" type="curve" smooth="yes"/>
			<point x="251" y="-168"/>
			<point x="227" y="-162"/>
			<point x="202" y="-150" type="curve"/>
			<point x="202" y="-201" type="line"/>
			<point x="220" y="-211"/>
			<point x="252" y="-219"/>
		</contour>
	</outline>
	<anchor name="_bottom" x="301" y="0"/>
</glyph>
<glyph name="guillemetright" format="2">
	<unicode hex="00BB"/>
	<advance width="600"/>
	<outline>
		<contour>
			<point x="275" y="77" type="line"/>
			<point x="367" y="77" type="line"/>
			<point x="532" y="287" type="line"/>
			<point x="367" y="497" type="line"/>
			<point x="275" y="497" type="line"/>
			<point x="441" y="288" type="line"/>
		</contour>
		<contour>
			<point x="73" y="77" type="line"/>
			<point x="164" y="77" type="line"/>
			<point x="330" y="287" type="line"/>
			<point x="164" y="497" type="line"/>
			<point x="73" y="497" type="line"/>
			<point x="238" y="288" type="line"/>
		</contour>
	</outline>
</glyph>
<glyph name="Ccedilla" format="2">
	<unicode hex="00C7"/>
	<advance width="600"/>
	<outline>
		<contour>
			<point x="339" y="-219" type="curve" smooth="yes"/>
			<point x="409" y="-219"/>
			<point x="454" y="-187"/>
			<point x="454" y="-124" type="curve" smooth="yes"/>
			<point x="454" y="-77"/>
			<point x="423" y="-49"/>
			<point x="363" y="-47" type="curve"/>
			<point x="379" y="-12" type="line"/>
			<point x="446" y="-12"/>
			<point x="490" y="-1"/>
			<point x="534" y="27" type="curve"/>
			<point x="534" y="102" type="line"/>
			<point x="485" y="68"/>
			<point x="427" y="62"/>
			<point x="384" y="62" type="curve" smooth="yes"/>
			<point x="240" y="62"/>
			<point x="153" y="152"/>
			<point x="153" y="338" type="curve" smooth="yes"/>
			<point x="153" y="345" type="line" smooth="yes"/>
			<point x="153" y="529"/>
			<point x="239" y="623"/>
			<point x="387" y="623" type="curve" smooth="yes"/>
			<point x="436" y="623"/>
			<point x="486" y="613"/>
			<point x="532" y="586" type="curve"/>
			<point x="532" y="666" type="line"/>
			<point x="492" y="684"/>
			<point x="442" y="696"/>
			<point x="378" y="696" type="curve" smooth="yes"/>
			<point x="188" y="696"/>
			<point x="64" y="569"/>
			<point x="64" y="350" type="curve" smooth="yes"/>
			<point x="64" y="336" type="line" smooth="yes"/>
			<point x="64" y="127"/>
			<point x="161" y="9"/>
			<point x="328" y="-9" type="curve"/>
			<point x="292" y="-91" type="line"/>
			<point x="299" y="-89"/>
			<point x="313" y="-87"/>
			<point x="330" y="-87" type="curve" smooth="yes"/>
			<point x="366" y="-87"/>
			<point x="392" y="-96"/>
			<point x="392" y="-126" type="curve" smooth="yes"/>
			<point x="392" y="-157"/>
			<point x="369" y="-168"/>
			<point x="330" y="-168" type="curve" smooth="yes"/>
			<point x="309" y="-168"/>
			<point x="285" y="-162"/>
			<point x="260" y="-150" type="curve"/>
			<point x="260" y="-201" type="line"/>
			<point x="278" y="-211"/>
			<point x="310" y="-219"/>
		</contour>
	</outline>
</glyph>
<glyph name="Thorn" format="2">
	<unicode hex="00DE"/>
	<advance width="600"/>
	<outline>
		<contour>
			<point x="85" y="684" type="line"/>
			<point x="85" y="0" type="line"/>
			<point x="170" y="0" type="line"/>
			<point x="170" y="127" type="line"/>
			<point x="331" y="127" type="line" smooth="yes"/>
			<point x="470" y="127"/>
			<point x="559" y="220"/>
			<point x="559" y="359" type="curve" smooth="yes"/>
			<point x="559" y="497"/>
			<point x="469" y="584"/>
			<point x="331" y="584" type="curve" smooth="yes"/>
			<point x="170" y="584" type="line"/>
			<point x="170" y="684" type="line"/>
		</contour>
		<contour>
			<point x="319" y="512" type="line" smooth="yes"/>
			<point x="418" y="512"/>
			<point x="471" y="451"/>
			<point x="471" y="358" type="curve" smooth="yes"/>
			<point x="471" y="265"/>
			<point x="420" y="199"/>
			<point x="319" y="199" type="curve" smooth="yes"/>
			<point x="170" y="199" type="line"/>
			<point x="170" y="512" type="line"/>
		</contour>
	</outline>
</glyph>
<glyph name="ae" format="2">
	<unicode hex="00E6"/>
	<advance width="600"/>
	<outline>
		<contour>
			<point x="142" y="-14" type="curve" smooth="yes"/>
			<point x="204" y="-14"/>
			<point x="252" y="21"/>
			<point x="273" y="112" type="curve"/>
			<point x="299" y="34"/>
			<point x="349" y="-14"/>
			<point x="443" y="-14" type="curve" smooth="yes"/>
			<point x="506" y="-14"/>
			<point x="546" y="8"/>
			<point x="569" y="27" type="curve"/>
			<point x="569" y="95" type="line"/>
			<point x="537" y="68"/>
			<point x="498" y="53"/>
			<point x="458" y="53" type="curve" smooth="yes"/>
			<point x="369" y="53"/>
			<point x="327" y="110"/>
			<point x="326" y="240" type="curve"/>
			<point x="583" y="240" type="line"/>
			<point x="583" y="280" type="line" smooth="yes"/>
			<point x="583" y="454"/>
			<point x="530" y="537"/>
			<point x="427" y="537" type="curve" smooth="yes"/>
			<point x="373" y="537"/>
			<point x="331" y="509"/>
			<point x="302" y="458" type="curve"/>
			<point x="281" y="510"/>
			<point x="240" y="537"/>
			<point x="166" y="537" type="curve" smooth="yes"/>
			<point x="104" y="537"/>
			<point x="55" y="512"/>
			<point x="26" y="488" type="curve"/>
			<point x="26" y="416" type="line"/>
			<point x="60" y="446"/>
			<point x="108" y="470"/>
			<point x="158" y="470" type="curve" smooth="yes"/>
			<point x="230" y="470"/>
			<point x="252" y="430"/>
			<point x="252" y="348" type="curve" smooth="yes"/>
			<point x="252" y="323" type="line"/>
			<point x="193" y="311" type="line" smooth="yes"/>
			<point x="72" y="286"/>
			<point x="17" y="230"/>
			<point x="17" y="130" type="curve" smooth="yes"/>
			<point x="17" y="45"/>
			<point x="64" y="-14"/>
		</contour>
		<contour>
			<point x="423" y="474" type="curve" smooth="yes"/>
			<point x="480" y="474"/>
			<point x="506" y="421"/>
			<point x="509" y="298" type="curve"/>
			<point x="325" y="298" type="line"/>
			<point x="328" y="417"/>
			<point x="360" y="474"/>
		</contour>
		<contour>
			<point x="89" y="138" type="curve" smooth="yes"/>
			<point x="89" y="205"/>
			<point x="123" y="240"/>
			<point x="202" y="255" type="curve" smooth="yes"/>
			<point x="252" y="265" type="line"/>
			<point x="252" y="173" type="line" smooth="yes"/>
			<point x="252" y="88"/>
			<point x="213" y="48"/>
			<point x="165" y="48" type="curve" smooth="yes"/>
			<point x="119" y="48"/>
			<point x="89" y="83"/>
		</contour>
	</outline>
	<anchor name="top" x="300" y="523"/>
</glyph>
<glyph name="ccedilla" format="2">
	<unicode hex="00E7"/>
	<advance width="600"/>
	<outline>
		<contour>
			<point x="330" y="-219" type="curve" smooth="yes"/>
			<point x="400" y="-219"/>
			<point x="445" y="-187"/>
			<point x="445" y="-124" type="curve" smooth="yes"/>
			<point x="445" y="-77"/>
			<point x="414" y="-49"/>
			<point x="354" y="-47" type="curve"/>
			<point x="370" y="-12" type="line"/>
			<point x="426" y="-10"/>
			<point x="475" y="3"/>
			<point x="506" y="24" type="curve"/>
			<point x="506" y="93" type="line"/>
			<point x="472" y="73"/>
			<point x="423" y="58"/>
			<point x="372" y="58" type="curve" smooth="yes"/>
			<point x="253" y="58"/>
			<point x="180" y="132"/>
			<point x="180" y="259" type="curve" smooth="yes"/>
			<point x="180" y="266" type="line" smooth="yes"/>
			<point x="180" y="390"/>
			<point x="251" y="465"/>
			<point x="376" y="465" type="curve" smooth="yes"/>
			<point x="418" y="465"/>
			<point x="467" y="455"/>
			<point x="506" y="432" type="curve"/>
			<point x="506" y="504" type="line"/>
			<point x="474" y="522"/>
			<point x="420" y="535"/>
			<point x="367" y="535" type="curve" smooth="yes"/>
			<point x="203" y="535"/>
			<point x="93" y="428"/>
			<point x="93" y="267" type="curve" smooth="yes"/>
			<point x="93" y="256" type="line" smooth="yes"/>
			<point x="93" y="104"/>
			<point x="178" y="6"/>
			<point x="319" y="-10" type="curve"/>
			<point x="283" y="-91" type="line"/>
			<point x="290" y="-89"/>
			<point x="304" y="-87"/>
			<point x="321" y="-87" type="curve" smooth="yes"/>
			<point x="357" y="-87"/>
			<point x="383" y="-96"/>
			<point x="383" y="-126" type="curve" smooth="yes"/>
			<point x="383" y="-157"/>
			<point x="360" y="-168"/>
			<point x="321" y="-168" type="curve" smooth="yes"/>
			<point x="300" y="-168"/>
			<point x="276" y="-162"/>
			<point x="251" y="-150" type="curve"/>
			<point x="251" y="-201" type="line"/>
			<point x="269" y="-211"/>
			<point x="301" y="-219"/>
		</contour>
	</outline>
</glyph>
<glyph name="divide" format="2">
	<unicode hex="00F7"/>
	<advance width="600"/>
	<outline>
		<contour>
			<point x="300" y="441" type="curve" smooth="yes"/>
			<point x="345" y="441"/>
			<point x="370" y="455"/>
			<point x="370" y="495" type="curve" smooth="yes"/>
			<point x="370" y="535"/>
			<point x="345" y="548"/>
			<point x="300" y="548" type="curve" smooth="yes"/>
			<point x="255" y="548"/>
			<point x="230" y="535"/>
			<point x="230" y="495" type="curve" smooth="yes"/>
			<point x="230" y="455"/>
			<point x="255" y="441"/>
		</contour>
		<contour>
			<point x="75" y="264" type="line"/>
			<point x="525" y="264" type="line"/>
			<point x="525" y="338" type="line"/>
			<point x="75" y="338" type="line"/>
		</contour>
		<contour>
			<point x="299" y="52" type="curve" smooth="yes"/>
			<point x="344" y="52"/>
			<point x="370" y="66"/>
			<point x="370" y="106" type="curve" smooth="yes"/>
			<point x="370" y="146"/>
			<point x="344" y="159"/>
			<point x="299" y="159" type="curve" smooth="yes"/>
			<point x="255" y="159"/>
			<point x="230" y="146"/>
			<point x="230" y="106" type="curve" smooth="yes"/>
			<point x="230" y="66"/>
			<point x="255" y="52"/>
		</contour>
	</outline>
</glyph>
<glyph name="oslash" format="2">
	<unicode hex="00F8"/>
	<advance width="600"/>
	<outline>
		<contour>
			<point x="299" y="-14" type="curve" smooth="yes"/>
			<point x="434" y="-14"/>
			<point x="533" y="84"/>
			<point x="533" y="255" type="curve" smooth="yes"/>
			<point x="533" y="269" type="line" smooth="yes"/>
			<point x="533" y="344"/>
			<point x="514" y="406"/>
			<point x="480" y="451" type="curve"/>
			<point x="554" y="547" type="line"/>
			<point x="480" y="547" type="line"/>
			<point x="439" y="493" type="line"/>
			<point x="401" y="522"/>
			<point x="354" y="537"/>
			<point x="300" y="537" type="curve" smooth="yes"/>
			<point x="164" y="537"/>
			<point x="67" y="437"/>
			<point x="67" y="269" type="curve" smooth="yes"/>
			<point x="67" y="255" type="line" smooth="yes"/>
			<point x="67" y="178"/>
			<point x="86" y="116"/>
			<point x="120" y="71" type="curve"/>
			<point x="47" y="-24" type="line"/>
			<point x="122" y="-24" type="line"/>
			<point x="162" y="29" type="line"/>
			<point x="200" y="1"/>
			<point x="246" y="-14"/>
		</contour>
		<contour>
			<point x="154" y="258" type="curve" smooth="yes"/>
			<point x="154" y="265" type="line" smooth="yes"/>
			<point x="154" y="403"/>
			<point x="213" y="468"/>
			<point x="300" y="468" type="curve" smooth="yes"/>
			<point x="337" y="468"/>
			<point x="369" y="456"/>
			<point x="394" y="432" type="curve"/>
			<point x="174" y="142" type="line"/>
			<point x="161" y="172"/>
			<point x="154" y="211"/>
		</contour>
		<contour>
			<point x="300" y="56" type="curve" smooth="yes"/>
			<point x="264" y="56"/>
			<point x="233" y="67"/>
			<point x="208" y="90" type="curve"/>
			<point x="427" y="380" type="line"/>
			<point x="439" y="350"/>
			<point x="446" y="312"/>
			<point x="446" y="265" type="curve" smooth="yes"/>
			<point x="446" y="258" type="line" smooth="yes"/>
			<point x="446" y="121"/>
			<point x="387" y="56"/>
		</contour>
	</outline>
</glyph>
<glyph name="aogonek" format="2">
	<unicode hex="0105"/>
	<advance width="600"/>
	<outline>
		<contour>
			<point x="238" y="-14" type="curve" smooth="yes"/>
			<point x="317" y="-14"/>
			<point x="380" y="27"/>
			<point x="415" y="104" type="curve"/>
			<point x="415" y="0" type="line"/>
			<point x="427" y="0" type="line"/>
			<point x="368" y="-21"/>
			<point x="331" y="-68"/>
			<point x="331" y="-115" type="curve" smooth="yes"/>
			<point x="331" y="-176"/>
			<point x="371" y="-203"/>
			<point x="439" y="-203" type="curve" smooth="yes"/>
			<point x="468" y="-203"/>
			<point x="494" y="-197"/>
			<point x="506" y="-191" type="curve"/>
			<point x="506" y="-134" type="line"/>
			<point x="495" y="-138"/>
			<point x="477" y="-141"/>
			<point x="458" y="-141" type="curve" smooth="yes"/>
			<point x="426" y="-141"/>
			<point x="402" y="-128"/>
			<point x="402" y="-91" type="curve" smooth="yes"/>
			<point x="402" y="-58"/>
			<point x="427" y="-24"/>
			<point x="497" y="0" type="curve"/>
			<point x="497" y="347" type="line" smooth="yes"/>
			<point x="497" y="468"/>
			<point x="422" y="537"/>
			<point x="287" y="537" type="curve" smooth="yes"/>
			<point x="211" y="537"/>
			<point x="146" y="513"/>
			<point x="96" y="482" type="curve"/>
			<point x="96" y="405" type="line"/>
			<point x="154" y="450"/>
			<point x="224" y="466"/>
			<point x="279" y="466" type="curve" smooth="yes"/>
			<point x="361" y="466"/>
			<point x="414" y="423"/>
			<point x="414" y="339" type="curve" smooth="yes"/>
			<point x="414" y="326" type="line"/>
			<point x="298" y="309" type="line" smooth="yes"/>
			<point x="154" y="289"/>
			<point x="85" y="228"/>
			<point x="85" y="130" type="curve" smooth="yes"/>
			<point x="85" y="41"/>
			<point x="150" y="-14"/>
		</contour>
		<contour>
			<point x="269" y="51" type="curve" smooth="yes"/>
			<point x="214" y="51"/>
			<point x="167" y="82"/>
			<point x="167" y="140" type="curve" smooth="yes"/>
			<point x="167" y="211"/>
			<point x="218" y="238"/>
			<point x="318" y="253" type="curve" smooth="yes"/>
			<point x="414" y="268" type="line"/>
			<point x="414" y="203" type="line" smooth="yes"/>
			<point x="414" y="105"/>
			<point x="338" y="51"/>
		</contour>
	</outline>
</glyph>
<glyph name="dcaron" format="2">
	<unicode hex="010F"/>
	<advance width="600"/>
	<outline>
		<contour>
			<point x="248" y="-13" type="curve" smooth="yes"/>
			<point x="323" y="-13"/>
			<point x="381" y="35"/>
			<point x="413" y="111" type="curve"/>
			<point x="413" y="0" type="line"/>
			<point x="492" y="0" type="line"/>
			<point x="492" y="750" type="line"/>
			<point x="411" y="750" type="line"/>
			<point x="411" y="425" type="line"/>
			<point x="380" y="496"/>
			<point x="328" y="537"/>
			<point x="253" y="537" type="curve" smooth="yes"/>
			<point x="139" y="537"/>
			<point x="58" y="436"/>
			<point x="58" y="269" type="curve" smooth="yes"/>
			<point x="58" y="255" type="line" smooth="yes"/>
			<point x="58" y="88"/>
			<point x="129" y="-13"/>
		</contour>
		<contour>
			<point x="546" y="574" type="line"/>
			<point x="598" y="574" type="line"/>
			<point x="653" y="750" type="line"/>
			<point x="571" y="750" type="line"/>
		</contour>
		<contour>
			<point x="275" y="54" type="curve" smooth="yes"/>
			<point x="196" y="54"/>
			<point x="142" y="121"/>
			<point x="142" y="258" type="curve" smooth="yes"/>
			<point x="142" y="265" type="line" smooth="yes"/>
			<point x="142" y="399"/>
			<point x="196" y="468"/>
			<point x="278" y="468" type="curve" smooth="yes"/>
			<point x="359" y="468"/>
			<point x="415" y="399"/>
			<point x="415" y="264" type="curve" smooth="yes"/>
			<point x="415" y="259" type="line" smooth="yes"/>
			<point x="415" y="121"/>
			<point x="353" y="54"/>
		</contour>
	</outline>
</glyph>
<glyph name="Hbar" format="2">
	<unicode hex="0126"/>
	<advance width="600"/>
	<outline>
		<contour>
			<point x="76" y="0" type="line"/>
			<point x="161" y="0" type="line"/>
			<point x="161" y="303" type="line"/>
			<point x="439" y="303" type="line"/>
			<point x="439" y="0" type="line"/>
			<point x="524" y="0" type="line"/>
			<point x="524" y="492" type="line"/>
			<point x="600" y="492" type="line"/>
			<point x="600" y="550" type="line"/>
			<point x="524" y="550" type="line"/>
			<point x="524" y="684" type="line"/>
			<point x="439" y="684" type="line"/>
			<point x="439" y="550" type="line"/>
			<point x="161" y="550" type="line"/>
			<point x="161" y="684" type="line"/>
			<point x="76" y="684" type="line"/>
			<point x="76" y="550" type="line"/>
			<point x="0" y="550" type="line"/>
			<point x="0" y="492" type="line"/>
			<point x="76" y="492" type="line"/>
		</contour>
		<contour>
			<point x="161" y="376" type="line"/>
			<point x="161" y="492" type="line"/>
			<point x="439" y="492" type="line"/>
			<point x="439" y="376" type="line"/>
		</contour>
	</outline>
	<anchor name="center" x="300" y="523"/>
	<anchor name="bottom" x="287" y="0"/>
	<anchor name="top" x="300" y="684"/>
</glyph>
<glyph name="hbar" format="2">
	<unicode hex="0127"/>
	<advance width="600"/>
	<outline>
		<contour>
			<point x="25" y="597" type="line"/>
			<point x="94" y="597" type="line"/>
			<point x="94" y="0" type="line"/>
			<point x="178" y="0" type="line"/>
			<point x="178" y="302" type="line" smooth="yes"/>
			<point x="178" y="332"/>
			<point x="182" y="361"/>
			<point x="194" y="385" type="curve" smooth="yes"/>
			<point x="216" y="430"/>
			<point x="251" y="466"/>
			<point x="315" y="466" type="curve" smooth="yes"/>
			<point x="384" y="466"/>
			<point x="426" y="419"/>
			<point x="426" y="329" type="curve" smooth="yes"/>
			<point x="426" y="0" type="line"/>
			<point x="510" y="0" type="line"/>
			<point x="510" y="346" type="line" smooth="yes"/>
			<point x="510" y="474"/>
			<point x="446" y="537"/>
			<point x="348" y="537" type="curve" smooth="yes"/>
			<point x="269" y="537"/>
			<point x="212" y="492"/>
			<point x="178" y="420" type="curve"/>
			<point x="178" y="597" type="line"/>
			<point x="337" y="597" type="line"/>
			<point x="337" y="653" type="line"/>
			<point x="178" y="653" type="line"/>
			<point x="178" y="750" type="line"/>
			<point x="94" y="750" type="line"/>
			<point x="94" y="653" type="line"/>
			<point x="25" y="653" type="line"/>
		</contour>
	</outline>
</glyph>
<glyph name="iogonek" format="2">
	<unicode hex="012F"/>
	<advance width="600"/>
	<outline>
		<contour>
			<point x="317" y="636" type="curve" smooth="yes"/>
			<point x="363" y="636"/>
			<point x="379" y="654"/>
			<point x="379" y="689" type="curve" smooth="yes"/>
			<point x="379" y="724"/>
			<point x="362" y="743"/>
			<point x="317" y="743" type="curve" smooth="yes"/>
			<point x="273" y="743"/>
			<point x="256" y="725"/>
			<point x="256" y="689" type="curve" smooth="yes"/>
			<point x="256" y="654"/>
			<point x="272" y="636"/>
		</contour>
		<contour>
			<point x="87" y="0" type="line"/>
			<point x="471" y="0" type="line"/>
			<point x="412" y="-21"/>
			<point x="375" y="-68"/>
			<point x="375" y="-115" type="curve" smooth="yes"/>
			<point x="375" y="-176"/>
			<point x="415" y="-203"/>
			<point x="483" y="-203" type="curve" smooth="yes"/>
			<point x="512" y="-203"/>
			<point x="538" y="-197"/>
			<point x="550" y="-191" type="curve"/>
			<point x="550" y="-134" type="line"/>
			<point x="539" y="-138"/>
			<point x="521" y="-141"/>
			<point x="502" y="-141" type="curve" smooth="yes"/>
			<point x="470" y="-141"/>
			<point x="446" y="-128"/>
			<point x="446" y="-91" type="curve" smooth="yes"/>
			<point x="446" y="-58"/>
			<point x="471" y="-24"/>
			<point x="541" y="0" type="curve"/>
			<point x="543" y="0" type="line"/>
			<point x="543" y="70" type="line"/>
			<point x="362" y="70" type="line"/>
			<point x="362" y="523" type="line"/>
			<point x="88" y="523" type="line"/>
			<point x="88" y="453" type="line"/>
			<point x="278" y="453" type="line"/>
			<point x="278" y="70" type="line"/>
			<point x="87" y="70" type="line"/>
		</contour>
	</outline>
</glyph>
<glyph name="ij" format="2">
	<unicode hex="0133"/>
	<advance width="600"/>
	<outline>
		<contour>
			<point x="156" y="636" type="curve" smooth="yes"/>
			<point x="202" y="636"/>
			<point x="218" y="654"/>
			<point x="218" y="689" type="curve" smooth="yes"/>
			<point x="218" y="724"/>
			<point x="201" y="743"/>
			<point x="156" y="743" type="curve" smooth="yes"/>
			<point x="112" y="743"/>
			<point x="95" y="725"/>
			<point x="95" y="689" type="curve" smooth="yes"/>
			<point x="95" y="654"/>
			<point x="111" y="636"/>
		</contour>
		<contour>
			<point x="443" y="636" type="curve" smooth="yes"/>
			<point x="489" y="636"/>
			<point x="505" y="654"/>
			<point x="505" y="689" type="curve" smooth="yes"/>
			<point x="505" y="724"/>
			<point x="488" y="743"/>
			<point x="443" y="743" type="curve" smooth="yes"/>
			<point x="400" y="743"/>
			<point x="382" y="725"/>
			<point x="382" y="689" type="curve" smooth="yes"/>
			<point x="382" y="654"/>
			<point x="398" y="636"/>
		</contour>
		<contour>
			<point x="285" y="-204" type="curve" smooth="yes"/>
			<point x="390" y="-204"/>
			<point x="486" y="-161"/>
			<point x="486" y="-21" type="curve" smooth="yes"/>
			<point x="486" y="523" type="line"/>
			<point x="402" y="523" type="line"/>
			<point x="402" y="-11" type="line" smooth="yes"/>
			<point x="402" y="-98"/>
			<point x="366" y="-133"/>
			<point x="276" y="-133" type="curve" smooth="yes"/>
			<point x="227" y="-133"/>
			<point x="184" y="-122"/>
			<point x="158" y="-113" type="curve"/>
			<point x="158" y="-183" type="line"/>
			<point x="184" y="-194"/>
			<point x="237" y="-204"/>
		</contour>
		<contour>
			<point x="114" y="0" type="line"/>
			<point x="198" y="0" type="line"/>
			<point x="198" y="523" type="line"/>
			<point x="114" y="523" type="line"/>
		</contour>
	</outline>
</glyph>
<glyph name="kgreenlandic" format="2">
	<unicode hex="0138"/>
	<advance width="600"/>
	<outline>
		<contour>
			<point x="111" y="0" type="line"/>
			<point x="194" y="0" type="line"/>
			<point x="194" y="137" type="line"/>
			<point x="289" y="252" type="line"/>
			<point x="440" y="0" type="line"/>
			<point x="535" y="0" type="line"/>
			<point x="354" y="306" type="line"/>
			<point x="527" y="524" type="line"/>
			<point x="430" y="524" type="line"/>
			<point x="194" y="222" type="line"/>
			<point x="194" y="524" type="line"/>
			<point x="111" y="524" type="line"/>
		</contour>
	</outline>
</glyph>
<glyph name="ldot" format="2">
	<unicode hex="0140"/>
	<advance width="600"/>
	<outline>
		<contour>
			<point x="76" y="0" type="line"/>
			<point x="532" y="0" type="line"/>
			<point x="532" y="70" type="line"/>
			<point x="350" y="70" type="line"/>
			<point x="350" y="750" type="line"/>
			<point x="77" y="750" type="line"/>
			<point x="77" y="680" type="line"/>
			<point x="266" y="680" type="line"/>
			<point x="266" y="70" type="line"/>
			<point x="76" y="70" type="line"/>
		</contour>
		<contour>
			<point x="596" y="309" type="curve" smooth="yes"/>
			<point x="638" y="309"/>
			<point x="663" y="326"/>
			<point x="663" y="378" type="curve" smooth="yes"/>
			<point x="663" y="428"/>
			<point x="638" y="444"/>
			<point x="596" y="444" type="curve" smooth="yes"/>
			<point x="552" y="444"/>
			<point x="529" y="428"/>
			<point x="529" y="378" type="curve" smooth="yes"/>
			<point x="529" y="326"/>
			<point x="552" y="309"/>
		</contour>
	</outline>
</glyph>
<glyph name="lslash" format="2">
	<unicode hex="0142"/>
	<advance width="600"/>
	<outline>
		<contour>
			<point x="76" y="0" type="line"/>
			<point x="532" y="0" type="line"/>
			<point x="532" y="70" type="line"/>
			<point x="350" y="70" type="line"/>
			<point x="350" y="359" type="line"/>
			<point x="518" y="424" type="line"/>
			<point x="518" y="491" type="line"/>
			<point x="350" y="425" type="line"/>
			<point x="350" y="750" type="line"/>
			<point x="77" y="750" type="line"/>
			<point x="77" y="680" type="line"/>
			<point x="266" y="680" type="line"/>
			<point x="266" y="393" type="line"/>
			<point x="100" y="328" type="line"/>
			<point x="100" y="262" type="line"/>
			<point x="266" y="326" type="line"/>
			<point x="266" y="70" type="line"/>
			<point x="76" y="70" type="line"/>
		</contour>
	</outline>
</glyph>
<glyph name="Eng" format="2">
	<unicode hex="014A"/>
	<advance width="600"/>
	<outline>
		<contour>
			<point x="328" y="-212" type="curve" smooth="yes"/>
			<point x="444" y="-212"/>
			<point x="524" y="-148"/>
			<point x="524" y="-15" type="curve" smooth="yes"/>
			<point x="524" y="684" type="line"/>
			<point x="448" y="684" type="line"/>
			<point x="448" y="331" type="line" smooth="yes"/>
			<point x="448" y="232"/>
			<point x="451" y="173"/>
			<point x="458" y="102" type="curve"/>
			<point x="451" y="102" type="line"/>
			<point x="184" y="684" type="line"/>
			<point x="76" y="684" type="line"/>
			<point x="76" y="0" type="line"/>
			<point x="152" y="0" type="line"/>
			<point x="152" y="354" type="line" smooth="yes"/>
			<point x="152" y="448"/>
			<point x="148" y="512"/>
			<point x="143" y="582" type="curve"/>
			<point x="150" y="582" type="line"/>
			<point x="416" y="0" type="line"/>
			<point x="446" y="0" type="line"/>
			<point x="446" y="-11" type="line" smooth="yes"/>
			<point x="446" y="-99"/>
			<point x="400" y="-145"/>
			<point x="316" y="-145" type="curve" smooth="yes"/>
			<point x="279" y="-145"/>
			<point x="245" y="-137"/>
			<point x="223" y="-130" type="curve"/>
			<point x="223" y="-197" type="line"/>
			<point x="247" y="-205"/>
			<point x="278" y="-212"/>
		</contour>
	</outline>
	<anchor name="top" x="343" y="720"/>
	<anchor name="bottom" x="302" y="0"/>
</glyph>
<glyph name="eng" format="2">
	<unicode hex="014B"/>
	<advance width="600"/>
	<outline>
		<contour>
			<point x="368" y="-206" type="curve" smooth="yes"/>
			<point x="446" y="-206"/>
			<point x="510" y="-168"/>
			<point x="510" y="-64" type="curve" smooth="yes"/>
			<point x="510" y="346" type="line" smooth="yes"/>
			<point x="510" y="474"/>
			<point x="446" y="537"/>
			<point x="347" y="537" type="curve" smooth="yes"/>
			<point x="265" y="537"/>
			<point x="208" y="491"/>
			<point x="176" y="415" type="curve"/>
			<point x="176" y="523" type="line"/>
			<point x="94" y="523" type="line"/>
			<point x="94" y="0" type="line"/>
			<point x="178" y="0" type="line"/>
			<point x="178" y="302" type="line" smooth="yes"/>
			<point x="178" y="332"/>
			<point x="182" y="361"/>
			<point x="194" y="385" type="curve" smooth="yes"/>
			<point x="216" y="430"/>
			<point x="251" y="466"/>
			<point x="313" y="466" type="curve" smooth="yes"/>
			<point x="384" y="466"/>
			<point x="426" y="419"/>
			<point x="426" y="329" type="curve" smooth="yes"/>
			<point x="426" y="-58" type="line" smooth="yes"/>
			<point x="426" y="-110"/>
			<point x="402" y="-137"/>
			<point x="351" y="-137" type="curve" smooth="yes"/>
			<point x="332" y="-137"/>
			<point x="311" y="-133"/>
			<point x="299" y="-129" type="curve"/>
			<point x="299" y="-195" type="line"/>
			<point x="312" y="-200"/>
			<point x="341" y="-206"/>
		</contour>
	</outline>
</glyph>
<glyph name="OE" format="2">
	<unicode hex="0152"/>
	<advance width="600"/>
	<outline>
		<contour>
			<point x="187" y="-13" type="curve" smooth="yes"/>
			<point x="240" y="-13"/>
			<point x="277" y="18"/>
			<point x="300" y="80" type="curve"/>
			<point x="300" y="0" type="line"/>
			<point x="568" y="0" type="line"/>
			<point x="568" y="73" type="line"/>
			<point x="379" y="73" type="line"/>
			<point x="379" y="307" type="line"/>
			<point x="541" y="307" type="line"/>
			<point x="541" y="378" type="line"/>
			<point x="379" y="378" type="line"/>
			<point x="379" y="613" type="line"/>
			<point x="564" y="613" type="line"/>
			<point x="564" y="684" type="line"/>
			<point x="260" y="684" type="line" smooth="yes"/>
			<point x="92" y="684"/>
			<point x="33" y="540"/>
			<point x="33" y="319" type="curve" smooth="yes"/>
			<point x="33" y="305" type="line" smooth="yes"/>
			<point x="33" y="93"/>
			<point x="79" y="-13"/>
		</contour>
		<contour>
			<point x="214" y="59" type="curve" smooth="yes"/>
			<point x="140" y="59"/>
			<point x="116" y="139"/>
			<point x="116" y="308" type="curve" smooth="yes"/>
			<point x="116" y="315" type="line" smooth="yes"/>
			<point x="116" y="495"/>
			<point x="143" y="613"/>
			<point x="260" y="613" type="curve" smooth="yes"/>
			<point x="299" y="613" type="line"/>
			<point x="299" y="194" type="line" smooth="yes"/>
			<point x="299" y="112"/>
			<point x="269" y="59"/>
		</contour>
	</outline>
</glyph>
<glyph name="oe" format="2">
	<unicode hex="0153"/>
	<advance width="600"/>
	<outline>
		<contour>
			<point x="153" y="-14" type="curve" smooth="yes"/>
			<point x="215" y="-14"/>
			<point x="260" y="29"/>
			<point x="279" y="131" type="curve"/>
			<point x="299" y="42"/>
			<point x="349" y="-14"/>
			<point x="444" y="-14" type="curve" smooth="yes"/>
			<point x="507" y="-14"/>
			<point x="549" y="7"/>
			<point x="572" y="26" type="curve"/>
			<point x="572" y="94" type="line"/>
			<point x="539" y="67"/>
			<point x="501" y="53"/>
			<point x="458" y="53" type="curve" smooth="yes"/>
			<point x="381" y="53"/>
			<point x="340" y="104"/>
			<point x="338" y="240" type="curve"/>
			<point x="586" y="240" type="line"/>
			<point x="586" y="280" type="line" smooth="yes"/>
			<point x="586" y="454"/>
			<point x="532" y="536"/>
			<point x="435" y="536" type="curve" smooth="yes"/>
			<point x="376" y="536"/>
			<point x="332" y="504"/>
			<point x="305" y="442" type="curve"/>
			<point x="282" y="502"/>
			<point x="238" y="536"/>
			<point x="178" y="536" type="curve" smooth="yes"/>
			<point x="70" y="536"/>
			<point x="14" y="437"/>
			<point x="14" y="265" type="curve" smooth="yes"/>
			<point x="14" y="251" type="line" smooth="yes"/>
			<point x="14" y="87"/>
			<point x="58" y="-14"/>
		</contour>
		<contour>
			<point x="430" y="474" type="curve" smooth="yes"/>
			<point x="485" y="474"/>
			<point x="511" y="420"/>
			<point x="513" y="298" type="curve"/>
			<point x="337" y="298" type="line"/>
			<point x="340" y="418"/>
			<point x="373" y="474"/>
		</contour>
		<contour>
			<point x="175" y="54" type="curve" smooth="yes"/>
			<point x="115" y="54"/>
			<point x="90" y="122"/>
			<point x="90" y="258" type="curve" smooth="yes"/>
			<point x="90" y="265" type="line" smooth="yes"/>
			<point x="90" y="403"/>
			<point x="118" y="473"/>
			<point x="177" y="473" type="curve" smooth="yes"/>
			<point x="238" y="473"/>
			<point x="263" y="400"/>
			<point x="263" y="265" type="curve" smooth="yes"/>
			<point x="263" y="258" type="line" smooth="yes"/>
			<point x="263" y="125"/>
			<point x="237" y="54"/>
		</contour>
	</outline>
</glyph>
<glyph name="tbar" format="2">
	<unicode hex="0167"/>
	<advance width="600"/>
	<outline>
		<contour>
			<point x="73" y="263" type="line"/>
			<point x="208" y="263" type="line"/>
			<point x="208" y="162" type="line" smooth="yes"/>
			<point x="208" y="35"/>
			<point x="274" y="-12"/>
			<point x="383" y="-12" type="curve" smooth="yes"/>
			<point x="432" y="-12"/>
			<point x="480" y="1"/>
			<point x="505" y="15" type="curve"/>
			<point x="505" y="81" type="line"/>
			<point x="480" y="68"/>
			<point x="435" y="58"/>
			<point x="402" y="58" type="curve" smooth="yes"/>
			<point x="333" y="58"/>
			<point x="292" y="90"/>
			<point x="292" y="173" type="curve" smooth="yes"/>
			<point x="292" y="263" type="line"/>
			<point x="499" y="263" type="line"/>
			<point x="499" y="321" type="line"/>
			<point x="292" y="321" type="line"/>
			<point x="292" y="453" type="line"/>
			<point x="507" y="453" type="line"/>
			<point x="507" y="523" type="line"/>
			<point x="291" y="523" type="line"/>
			<point x="291" y="692" type="line"/>
			<point x="221" y="692" type="line"/>
			<point x="213" y="582" type="line" smooth="yes"/>
			<point x="209" y="523"/>
			<point x="179" y="519"/>
			<point x="152" y="519" type="curve" smooth="yes"/>
			<point x="63" y="519" type="line"/>
			<point x="63" y="453" type="line"/>
			<point x="208" y="453" type="line"/>
			<point x="208" y="321" type="line"/>
			<point x="73" y="321" type="line"/>
		</contour>
	</outline>
</glyph>
<glyph name="Uogonek" format="2">
	<unicode hex="0172"/>
	<advance width="600"/>
	<outline>
		<contour>
			<point x="331" y="-203" type="curve" smooth="yes"/>
			<point x="360" y="-203"/>
			<point x="386" y="-197"/>
			<point x="398" y="-191" type="curve"/>
			<point x="398" y="-134" type="line"/>
			<point x="387" y="-138"/>
			<point x="369" y="-141"/>
			<point x="350" y="-141" type="curve" smooth="yes"/>
			<point x="318" y="-141"/>
			<point x="294" y="-128"/>
			<point x="294" y="-91" type="curve" smooth="yes"/>
			<point x="294" y="-58"/>
			<point x="319" y="-24"/>
			<point x="389" y="0" type="curve"/>
			<point x="389" y="0" type="line"/>
			<point x="482" y="32"/>
			<point x="526" y="119"/>
			<point x="526" y="248" type="curve" smooth="yes"/>
			<point x="526" y="684" type="line"/>
			<point x="441" y="684" type="line"/>
			<point x="441" y="248" type="line" smooth="yes"/>
			<point x="441" y="135"/>
			<point x="400" y="60"/>
			<point x="300" y="60" type="curve" smooth="yes"/>
			<point x="200" y="60"/>
			<point x="159" y="135"/>
			<point x="159" y="248" type="curve" smooth="yes"/>
			<point x="159" y="684" type="line"/>
			<point x="74" y="684" type="line"/>
			<point x="74" y="248" type="line" smooth="yes"/>
			<point x="74" y="84"/>
			<point x="138" y="-11"/>
			<point x="290" y="-14" type="curve"/>
			<point x="247" y="-39"/>
			<point x="223" y="-77"/>
			<point x="223" y="-115" type="curve" smooth="yes"/>
			<point x="223" y="-176"/>
			<point x="263" y="-203"/>
		</contour>
	</outline>
</glyph>
<glyph name="uogonek" format="2">
	<unicode hex="0173"/>
	<advance width="600"/>
	<outline>
		<contour>
			<point x="448" y="-203" type="curve" smooth="yes"/>
			<point x="477" y="-203"/>
			<point x="503" y="-197"/>
			<point x="515" y="-191" type="curve"/>
			<point x="515" y="-134" type="line"/>
			<point x="504" y="-138"/>
			<point x="486" y="-141"/>
			<point x="467" y="-141" type="curve" smooth="yes"/>
			<point x="435" y="-141"/>
			<point x="411" y="-128"/>
			<point x="411" y="-91" type="curve" smooth="yes"/>
			<point x="411" y="-58"/>
			<point x="436" y="-24"/>
			<point x="506" y="0" type="curve"/>
			<point x="506" y="523" type="line"/>
			<point x="422" y="523" type="line"/>
			<point x="422" y="220" type="line" smooth="yes"/>
			<point x="422" y="190"/>
			<point x="420" y="158"/>
			<point x="408" y="134" type="curve" smooth="yes"/>
			<point x="386" y="89"/>
			<point x="349" y="56"/>
			<point x="287" y="56" type="curve" smooth="yes"/>
			<point x="216" y="56"/>
			<point x="174" y="104"/>
			<point x="174" y="193" type="curve" smooth="yes"/>
			<point x="174" y="523" type="line"/>
			<point x="90" y="523" type="line"/>
			<point x="90" y="177" type="line" smooth="yes"/>
			<point x="90" y="49"/>
			<point x="153" y="-14"/>
			<point x="254" y="-14" type="curve" smooth="yes"/>
			<point x="332" y="-14"/>
			<point x="390" y="30"/>
			<point x="424" y="102" type="curve"/>
			<point x="424" y="0" type="line"/>
			<point x="436" y="0" type="line"/>
			<point x="377" y="-21"/>
			<point x="340" y="-68"/>
			<point x="340" y="-115" type="curve" smooth="yes"/>
			<point x="340" y="-176"/>
			<point x="380" y="-203"/>
		</contour>
	</outline>
</glyph>
<glyph name="dotlessj" format="2">
	<unicode hex="0237"/>
	<advance width="600"/>
	<outline>
		<contour>
			<point x="221" y="-204" type="curve" smooth="yes"/>
			<point x="346" y="-204"/>
			<point x="456" y="-161"/>
			<point x="456" y="-1" type="curve" smooth="yes"/>
			<point x="456" y="523" type="line"/>
			<point x="86" y="523" type="line"/>
			<point x="86" y="453" type="line"/>
			<point x="372" y="453" type="line"/>
			<point x="372" y="10" type="line" smooth="yes"/>
			<point x="372" y="-97"/>
			<point x="326" y="-133"/>
			<point x="212" y="-133" type="curve" smooth="yes"/>
			<point x="159" y="-133"/>
			<point x="113" y="-122"/>
			<point x="86" y="-112" type="curve"/>
			<point x="86" y="-181" type="line"/>
			<point x="113" y="-194"/>
			<point x="169" y="-204"/>
		</contour>
	</outline>
	<anchor name="top" x="414" y="523"/>
</glyph>
<glyph name="caron" format="2">
	<unicode hex="02C7"/>
	<advance width="600"/>
	<outline>
		<contour>
			<point x="462" y="750" type="line"/>
			<point x="382" y="750" type="line"/>
			<point x="300" y="648" type="line"/>
			<point x="218" y="750" type="line"/>
			<point x="138" y="750" type="line"/>
			<point x="257" y="605" type="line"/>
			<point x="344" y="605" type="line"/>
		</contour>
	</outline>
	<anchor name="_top" x="301" y="523"/>
</glyph>
<glyph name="dotaccent" format="2">
	<unicode hex="02D9"/>
	<advance width="600"/>
	<outline>
		<contour>
			<point x="299" y="626" type="curve" smooth="yes"/>
			<point x="345" y="626"/>
			<point x="362" y="645"/>
			<point x="362" y="680" type="curve" smooth="yes"/>
			<point x="362" y="715"/>
			<point x="345" y="733"/>
			<point x="299" y="733" type="curve" smooth="yes"/>
			<point x="256" y="733"/>
			<point x="238" y="715"/>
			<point x="238" y="680" type="curve" smooth="yes"/>
			<point x="238" y="645"/>
			<point x="255" y="626"/>
		</contour>
	</outline>
	<anchor name="_top" x="300" y="523"/>
</glyph>
<glyph name="tilde" format="2">
	<unicode hex="02DC"/>
	<advance width="600"/>
	<outline>
		<contour>
			<point x="140" y="615" type="curve"/>
			<point x="202" y="615" type="line"/>
			<point x="202" y="659"/>
			<point x="212" y="680"/>
			<point x="238" y="680" type="curve" smooth="yes"/>
			<point x="280" y="680"/>
			<point x="300" y="611"/>
			<point x="368" y="611" type="curve" smooth="yes"/>
			<point x="421" y="611"/>
			<point x="460" y="640"/>
			<point x="460" y="733" type="curve"/>
			<point x="397" y="733" type="line"/>
			<point x="397" y="689"/>
			<point x="389" y="670"/>
			<point x="364" y="670" type="curve" smooth="yes"/>
			<point x="323" y="670"/>
			<point x="298" y="737"/>
			<point x="231" y="737" type="curve" smooth="yes"/>
			<point x="172" y="737"/>
			<point x="140" y="694"/>
		</contour>
	</outline>
	<anchor name="_top" x="300" y="523"/>
</glyph>
<glyph name="quoteleft" format="2">
	<unicode hex="2018"/>
	<advance width="600"/>
	<outline>
		<contour>
			<point x="332" y="468" type="line"/>
			<point x="385" y="750" type="line"/>
			<point x="327" y="750" type="line"/>
			<point x="218" y="468" type="line"/>
		</contour>
	</outline>
</glyph>
<glyph name="quoteright" format="2">
	<unicode hex="2019"/>
	<advance width="600"/>
	<outline>
		<contour>
			<point x="268" y="750" type="line"/>
			<point x="215" y="468" type="line"/>
			<point x="273" y="468" type="line"/>
			<point x="382" y="750" type="line"/>
		</contour>
	</outline>
</glyph>
<glyph name="quotedblleft" format="2">
	<unicode hex="201C"/>
	<advance width="600"/>
	<outline>
		<contour>
			<point x="409" y="468" type="line"/>
			<point x="462" y="750" type="line"/>
			<point x="404" y="750" type="line"/>
			<point x="296" y="468" type="line"/>
		</contour>
		<contour>
			<point x="229" y="468" type="line"/>
			<point x="282" y="750" type="line"/>
			<point x="225" y="750" type="line"/>
			<point x="116" y="468" type="line"/>
		</contour>
	</outline>
</glyph>
<glyph name="dagger" format="2">
	<unicode hex="2020"/>
	<advance width="600"/>
	<outline>
		<contour>
			<point x="79" y="570" type="line"/>
			<point x="79" y="494" type="line"/>
			<point x="258" y="494" type="line"/>
			<point x="258" y="-143" type="line"/>
			<point x="341" y="-143" type="line"/>
			<point x="341" y="494" type="line"/>
			<point x="521" y="494" type="line"/>
			<point x="521" y="570" type="line"/>
			<point x="341" y="570" type="line"/>
			<point x="341" y="765" type="line"/>
			<point x="258" y="765" type="line"/>
			<point x="258" y="570" type="line"/>
		</contour>
	</outline>
</glyph>
<glyph name="daggerdbl" format="2">
	<unicode hex="2021"/>
	<advance width="600"/>
	<outline>
		<contour>
			<point x="79" y="205" type="line"/>
			<point x="79" y="132" type="line"/>
			<point x="259" y="132" type="line"/>
			<point x="259" y="-143" type="line"/>
			<point x="342" y="-143" type="line"/>
			<point x="342" y="132" type="line"/>
			<point x="521" y="132" type="line"/>
			<point x="521" y="205" type="line"/>
			<point x="342" y="205" type="line"/>
			<point x="342" y="502" type="line"/>
			<point x="521" y="502" type="line"/>
			<point x="521" y="574" type="line"/>
			<point x="342" y="574" type="line"/>
			<point x="342" y="765" type="line"/>
			<point x="259" y="765" type="line"/>
			<point x="259" y="574" type="line"/>
			<point x="79" y="574" type="line"/>
			<point x="79" y="502" type="line"/>
			<point x="259" y="502" type="line"/>
			<point x="259" y="205" type="line"/>
		</contour>
	</outline>
</glyph>
<glyph name="bullet" format="2">
	<unicode hex="2022"/>
	<advance width="600"/>
	<outline>
		<contour>
			<point x="300" y="160" type="curve" smooth="yes"/>
			<point x="378" y="160"/>
			<point x="424" y="197"/>
			<point x="424" y="290" type="curve" smooth="yes"/>
			<point x="424" y="384"/>
			<point x="378" y="418"/>
			<point x="300" y="418" type="curve" smooth="yes"/>
			<point x="221" y="418"/>
			<point x="176" y="383"/>
			<point x="176" y="290" type="curve" smooth="yes"/>
			<point x="176" y="197"/>
			<point x="221" y="160"/>
		</contour>
	</outline>
</glyph>
<glyph name="ellipsis" format="2">
	<unicode hex="2026"/>
	<advance width="600"/>
	<outline>
		<contour>
			<point x="119" y="-12" type="curve" smooth="yes"/>
			<point x="154" y="-12"/>
			<point x="174" y="4"/>
			<point x="174" y="52" type="curve" smooth="yes"/>
			<point x="174" y="101"/>
			<point x="154" y="116"/>
			<point x="119" y="116" type="curve" smooth="yes"/>
			<point x="83" y="116"/>
			<point x="63" y="101"/>
			<point x="63" y="52" type="curve" smooth="yes"/>
			<point x="63" y="4"/>
			<point x="83" y="-12"/>
		</contour>
		<contour>
			<point x="300" y="-12" type="curve" smooth="yes"/>
			<point x="336" y="-12"/>
			<point x="355" y="5"/>
			<point x="355" y="52" type="curve" smooth="yes"/>
			<point x="355" y="100"/>
			<point x="336" y="116"/>
			<point x="300" y="116" type="curve" smooth="yes"/>
			<point x="265" y="116"/>
			<point x="245" y="100"/>
			<point x="245" y="52" type="curve" smooth="yes"/>
			<point x="245" y="5"/>
			<point x="265" y="-12"/>
		</contour>
		<contour>
			<point x="482" y="-12" type="curve" smooth="yes"/>
			<point x="517" y="-12"/>
			<point x="537" y="5"/>
			<point x="537" y="52" type="curve" smooth="yes"/>
			<point x="537" y="100"/>
			<point x="517" y="116"/>
			<point x="482" y="116" type="curve" smooth="yes"/>
			<point x="446" y="116"/>
			<point x="426" y="100"/>
			<point x="426" y="52" type="curve" smooth="yes"/>
			<point x="426" y="5"/>
			<point x="446" y="-12"/>
		</contour>
	</outline>
</glyph>
<glyph name="Euro" format="2">
	<unicode hex="20AC"/>
	<advance width="600"/>
	<outline>
		<contour>
			<point x="28" y="245" type="line"/>
			<point x="112" y="245" type="line"/>
			<point x="138" y="76"/>
			<point x="238" y="-12"/>
			<point x="393" y="-12" type="curve" smooth="yes"/>
			<point x="464" y="-12"/>
			<point x="515" y="3"/>
			<point x="552" y="28" type="curve"/>
			<point x="552" y="101" type="line"/>
			<point x="509" y="72"/>
			<point x="458" y="62"/>
			<point x="405" y="62" type="curve" smooth="yes"/>
			<point x="297" y="62"/>
			<point x="226" y="122"/>
			<point x="203" y="245" type="curve"/>
			<point x="444" y="245" type="line"/>
			<point x="444" y="304" type="line"/>
			<point x="196" y="304" type="line"/>
			<point x="195" y="315"/>
			<point x="195" y="328"/>
			<point x="195" y="340" type="curve" smooth="yes"/>
			<point x="195" y="347" type="line" smooth="yes"/>
			<point x="195" y="357"/>
			<point x="195" y="367"/>
			<point x="196" y="377" type="curve"/>
			<point x="444" y="377" type="line"/>
			<point x="444" y="436" type="line"/>
			<point x="202" y="436" type="line"/>
			<point x="225" y="559"/>
			<point x="298" y="624"/>
			<point x="410" y="623" type="curve" smooth="yes"/>
			<point x="459" y="623"/>
			<point x="508" y="613"/>
			<point x="549" y="588" type="curve"/>
			<point x="549" y="664" type="line"/>
			<point x="512" y="683"/>
			<point x="460" y="695"/>
			<point x="401" y="695" type="curve" smooth="yes"/>
			<point x="243" y="695"/>
			<point x="138" y="601"/>
			<point x="112" y="436" type="curve"/>
			<point x="28" y="436" type="line"/>
			<point x="28" y="377" type="line"/>
			<point x="107" y="377" type="line"/>
			<point x="106" y="369"/>
			<point x="106" y="360"/>
			<point x="106" y="351" type="curve" smooth="yes"/>
			<point x="106" y="337" type="line" smooth="yes"/>
			<point x="106" y="326"/>
			<point x="106" y="315"/>
			<point x="107" y="304" type="curve"/>
			<point x="28" y="304" type="line"/>
		</contour>
	</outline>
</glyph>
<glyph name="published" format="2">
	<unicode hex="2117"/>
	<advance width="600"/>
	<outline>
		<contour>
			<point x="300" y="105" type="curve" smooth="yes"/>
			<point x="445" y="105"/>
			<point x="556" y="199"/>
			<point x="556" y="374" type="curve" smooth="yes"/>
			<point x="556" y="388" type="line" smooth="yes"/>
			<point x="556" y="561"/>
			<point x="443" y="657"/>
			<point x="300" y="657" type="curve" smooth="yes"/>
			<point x="157" y="657"/>
			<point x="44" y="561"/>
			<point x="44" y="388" type="curve" smooth="yes"/>
			<point x="44" y="374" type="line" smooth="yes"/>
			<point x="44" y="199"/>
			<point x="155" y="105"/>
		</contour>
		<contour>
			<point x="300" y="152" type="curve" smooth="yes"/>
			<point x="168" y="152"/>
			<point x="92" y="238"/>
			<point x="92" y="377" type="curve" smooth="yes"/>
			<point x="92" y="384" type="line" smooth="yes"/>
			<point x="92" y="524"/>
			<point x="171" y="610"/>
			<point x="300" y="610" type="curve" smooth="yes"/>
			<point x="429" y="610"/>
			<point x="508" y="523"/>
			<point x="508" y="384" type="curve" smooth="yes"/>
			<point x="508" y="377" type="line" smooth="yes"/>
			<point x="508" y="237"/>
			<point x="432" y="152"/>
		</contour>
		<contour>
			<point x="212" y="249" type="line"/>
			<point x="258" y="249" type="line"/>
			<point x="258" y="334" type="line"/>
			<point x="316" y="334" type="line" smooth="yes"/>
			<point x="374" y="334"/>
			<point x="413" y="369"/>
			<point x="413" y="424" type="curve" smooth="yes"/>
			<point x="413" y="478"/>
			<point x="378" y="510"/>
			<point x="317" y="510" type="curve" smooth="yes"/>
			<point x="212" y="510" type="line"/>
		</contour>
		<contour>
			<point x="312" y="473" type="line" smooth="yes"/>
			<point x="345" y="473"/>
			<point x="367" y="454"/>
			<point x="367" y="424" type="curve" smooth="yes"/>
			<point x="367" y="394"/>
			<point x="346" y="372"/>
			<point x="312" y="372" type="curve" smooth="yes"/>
			<point x="258" y="372" type="line"/>
			<point x="258" y="473" type="line"/>
		</contour>
	</outline>
</glyph>
<glyph name="trademark" format="2">
	<unicode hex="2122"/>
	<advance width="600"/>
	<outline>
		<contour>
			<point x="294" y="342" type="line"/>
			<point x="340" y="342" type="line"/>
			<point x="340" y="517" type="line" smooth="yes"/>
			<point x="340" y="557"/>
			<point x="338" y="596"/>
			<point x="335" y="632" type="curve"/>
			<point x="339" y="632" type="line"/>
			<point x="398" y="434" type="line"/>
			<point x="446" y="434" type="line"/>
			<point x="506" y="632" type="line"/>
			<point x="511" y="632" type="line"/>
			<point x="507" y="597"/>
			<point x="506" y="557"/>
			<point x="506" y="517" type="curve" smooth="yes"/>
			<point x="506" y="342" type="line"/>
			<point x="551" y="342" type="line"/>
			<point x="551" y="684" type="line"/>
			<point x="479" y="684" type="line"/>
			<point x="423" y="487" type="line"/>
			<point x="421" y="487" type="line"/>
			<point x="366" y="684" type="line"/>
			<point x="294" y="684" type="line"/>
		</contour>
		<contour>
			<point x="115" y="342" type="line"/>
			<point x="166" y="342" type="line"/>
			<point x="166" y="641" type="line"/>
			<point x="261" y="641" type="line"/>
			<point x="261" y="684" type="line"/>
			<point x="18" y="684" type="line"/>
			<point x="18" y="641" type="line"/>
			<point x="115" y="641" type="line"/>
		</contour>
	</outline>
</glyph>
<glyph name="arrowup" format="2">
	<unicode hex="2191"/>
	<advance width="600"/>
	<outline>
		<contour>
			<point x="264" y="0" type="line"/>
			<point x="336" y="0" type="line"/>
			<point x="336" y="574" type="line"/>
			<point x="525" y="384" type="line"/>
			<point x="525" y="479" type="line"/>
			<point x="300" y="703" type="line"/>
			<point x="75" y="477" type="line"/>
			<point x="75" y="384" type="line"/>
			<point x="264" y="574" type="line"/>
		</contour>
	</outline>
</glyph>
<glyph name="arrowright" format="2">
	<unicode hex="2192"/>
	<advance width="600"/>
	<outline>
		<contour>
			<point x="259" y="585" type="line"/>
			<point x="452" y="395" type="line"/>
			<point x="42" y="395" type="line"/>
			<point x="42" y="323" type="line"/>
			<point x="452" y="323" type="line"/>
			<point x="260" y="134" type="line"/>
			<point x="355" y="134" type="line"/>
			<point x="580" y="359" type="line"/>
			<point x="353" y="585" type="line"/>
		</contour>
	</outline>
</glyph>
<glyph name="arrowdown" format="2">
	<unicode hex="2193"/>
	<advance width="600"/>
	<outline>
		<contour>
			<point x="525" y="300" type="line"/>
			<point x="336" y="110" type="line"/>
			<point x="336" y="684" type="line"/>
			<point x="264" y="684" type="line"/>
			<point x="264" y="110" type="line"/>
			<point x="75" y="300" type="line"/>
			<point x="75" y="205" type="line"/>
			<point x="300" y="-19" type="line"/>
			<point x="525" y="207" type="line"/>
		</contour>
	</outline>
</glyph>
<glyph name="uni2196" format="2">
	<unicode hex="2196"/>
	<advance width="600"/>
	<outline>
		<contour>
			<point x="532" y="73" type="line"/>
			<point x="584" y="124" type="line"/>
			<point x="163" y="544" type="line"/>
			<point x="452" y="543" type="line"/>
			<point x="386" y="610" type="line"/>
			<point x="46" y="610" type="line"/>
			<point x="46" y="269" type="line"/>
			<point x="112" y="204" type="line"/>
			<point x="111" y="494" type="line"/>
		</contour>
	</outline>
</glyph>
<glyph name="uni2198" format="2">
	<unicode hex="2198"/>
	<advance width="600"/>
	<outline>
		<contour>
			<point x="214" y="73" type="line"/>
			<point x="554" y="73" type="line"/>
			<point x="554" y="413" type="line"/>
			<point x="488" y="479" type="line"/>
			<point x="489" y="189" type="line"/>
			<point x="68" y="610" type="line"/>
			<point x="16" y="558" type="line"/>
			<point x="438" y="138" type="line"/>
			<point x="148" y="139" type="line"/>
		</contour>
	</outline>
</glyph>
<glyph name="uni2199" format="2">
	<unicode hex="2199"/>
	<advance width="600"/>
	<outline>
		<contour>
			<point x="46" y="73" type="line"/>
			<point x="387" y="73" type="line"/>
			<point x="452" y="138" type="line"/>
			<point x="161" y="137" type="line"/>
			<point x="584" y="558" type="line"/>
			<point x="532" y="610" type="line"/>
			<point x="112" y="188" type="line"/>
			<point x="113" y="479" type="line"/>
			<point x="46" y="413" type="line"/>
		</contour>
	</outline>
</glyph>
<glyph name="increment" format="2">
	<unicode hex="2206"/>
	<advance width="600"/>
	<outline>
		<contour>
			<point x="24" y="0" type="line"/>
			<point x="576" y="0" type="line"/>
			<point x="355" y="687" type="line"/>
			<point x="241" y="687" type="line"/>
		</contour>
		<contour>
			<point x="135" y="73" type="line"/>
			<point x="297" y="619" type="line"/>
			<point x="464" y="73" type="line"/>
		</contour>
	</outline>
</glyph>
<glyph name="integral" format="2">
	<unicode hex="222B"/>
	<advance width="600"/>
	<outline>
		<contour>
			<point x="165" y="-204" type="curve" smooth="yes"/>
			<point x="256" y="-204"/>
			<point x="331" y="-159"/>
			<point x="331" y="-29" type="curve" smooth="yes"/>
			<point x="331" y="505" type="line" smooth="yes"/>
			<point x="331" y="597"/>
			<point x="372" y="628"/>
			<point x="433" y="628" type="curve" smooth="yes"/>
			<point x="460" y="628"/>
			<point x="486" y="623"/>
			<point x="507" y="617" type="curve"/>
			<point x="507" y="681" type="line"/>
			<point x="487" y="690"/>
			<point x="455" y="696"/>
			<point x="420" y="696" type="curve" smooth="yes"/>
			<point x="316" y="696"/>
			<point x="248" y="639"/>
			<point x="248" y="514" type="curve" smooth="yes"/>
			<point x="248" y="-23" type="line" smooth="yes"/>
			<point x="248" y="-104"/>
			<point x="220" y="-138"/>
			<point x="152" y="-138" type="curve" smooth="yes"/>
			<point x="123" y="-138"/>
			<point x="95" y="-133"/>
			<point x="68" y="-123" type="curve"/>
			<point x="68" y="-186" type="line"/>
			<point x="87" y="-196"/>
			<point x="127" y="-204"/>
		</contour>
	</outline>
</glyph>
<glyph name="approxequal" format="2">
	<unicode hex="2248"/>
	<advance width="600"/>
	<outline>
		<contour>
			<point x="176" y="391" type="curve" smooth="yes"/>
			<point x="243" y="391"/>
			<point x="331" y="335"/>
			<point x="425" y="335" type="curve" smooth="yes"/>
			<point x="466" y="335"/>
			<point x="509" y="351"/>
			<point x="525" y="376" type="curve"/>
			<point x="525" y="456" type="line"/>
			<point x="496" y="418"/>
			<point x="457" y="406"/>
			<point x="417" y="408" type="curve" smooth="yes"/>
			<point x="368" y="410"/>
			<point x="254" y="464"/>
			<point x="175" y="464" type="curve" smooth="yes"/>
			<point x="134" y="464"/>
			<point x="91" y="449"/>
			<point x="75" y="424" type="curve"/>
			<point x="75" y="343" type="line"/>
			<point x="99" y="376"/>
			<point x="139" y="391"/>
		</contour>
		<contour>
			<point x="176" y="178" type="curve" smooth="yes"/>
			<point x="243" y="178"/>
			<point x="331" y="122"/>
			<point x="425" y="122" type="curve" smooth="yes"/>
			<point x="467" y="122"/>
			<point x="509" y="138"/>
			<point x="525" y="163" type="curve"/>
			<point x="525" y="243" type="line"/>
			<point x="496" y="207"/>
			<point x="458" y="193"/>
			<point x="417" y="195" type="curve" smooth="yes"/>
			<point x="370" y="197"/>
			<point x="252" y="251"/>
			<point x="172" y="251" type="curve" smooth="yes"/>
			<point x="131" y="251"/>
			<point x="91" y="235"/>
			<point x="75" y="211" type="curve"/>
			<point x="75" y="130" type="line"/>
			<point x="99" y="163"/>
			<point x="139" y="178"/>
		</contour>
	</outline>
</glyph>
<glyph name="lessequal" format="2">
	<unicode hex="2264"/>
	<advance width="600"/>
	<outline>
		<contour>
			<point x="525" y="128" type="line"/>
			<point x="525" y="211" type="line"/>
			<point x="149" y="362" type="line"/>
			<point x="525" y="513" type="line"/>
			<point x="525" y="597" type="line"/>
			<point x="75" y="408" type="line"/>
			<point x="75" y="315" type="line"/>
		</contour>
		<contour>
			<point x="75" y="0" type="line"/>
			<point x="525" y="0" type="line"/>
			<point x="525" y="74" type="line"/>
			<point x="75" y="74" type="line"/>
		</contour>
	</outline>
</glyph>
<glyph name="lozenge" format="2">
	<unicode hex="25CA"/>
	<advance width="600"/>
	<outline>
		<contour>
			<point x="249" y="0" type="line"/>
			<point x="351" y="0" type="line"/>
			<point x="565" y="342" type="line"/>
			<point x="350" y="684" type="line"/>
			<point x="247" y="684" type="line"/>
			<point x="35" y="342" type="line"/>
		</contour>
		<contour>
			<point x="129" y="342" type="line"/>
			<point x="299" y="622" type="line"/>
			<point x="471" y="342" type="line"/>
			<point x="300" y="63" type="line"/>
		</contour>
	</outline>
</glyph>
<glyph name="commaaccent" format="2">
	<unicode hex="F6C3"/>
	<advance width="600"/>
	<outline>
		<contour>
			<point x="253" y="-270" type="curve"/>
			<point x="307" y="-270" type="line"/>
			<point x="331" y="-246"/>
			<point x="361" y="-181"/>
			<point x="361" y="-123" type="curve" smooth="yes"/>
			<point x="361" y="-83"/>
			<point x="347" y="-61"/>
			<point x="302" y="-61" type="curve" smooth="yes"/>
			<point x="267" y="-61"/>
			<point x="243" y="-73"/>
			<point x="243" y="-113" type="curve" smooth="yes"/>
			<point x="243" y="-147"/>
			<point x="259" y="-161"/>
			<point x="293" y="-162" type="curve"/>
			<point x="288" y="-195"/>
			<point x="272" y="-237"/>
		</contour>
	</outline>
	<anchor name="_bottom" x="302" y="0"/>
	<anchor name="anchor" x="296" y="0"/>
</glyph>
<glyph name="acute.cap" format="2">
	<advance width="600"/>
	<outline>
		<contour>
			<point x="220" y="748" type="line"/>
			<point x="290" y="748" type="line"/>
			<point x="379" y="884" type="line"/>
			<point x="285" y="884" type="line"/>
		</contour>
	</outline>
	<anchor name="_top" x="254" y="684"/>
</glyph>
<glyph name="ampersand_ampersand.cLig" format="2">
	<advance width="600"/>
	<outline>
		<contour>
			<point x="-298" y="-14" type="curve" smooth="yes"/>
			<point x="-210" y="-14"/>
			<point x="-136" y="17"/>
			<point x="-75" y="89" type="curve"/>
			<point x="-42" y="24"/>
			<point x="27" y="-14"/>
			<point x="113" y="-14" type="curve" smooth="yes"/>
			<point x="203" y="-14"/>
			<point x="276" y="22"/>
			<point x="332" y="82" type="curve"/>
			<point x="414" y="0" type="line"/>
			<point x="517" y="0" type="line"/>
			<point x="378" y="142" type="line"/>
			<point x="420" y="210"/>
			<point x="448" y="295"/>
			<point x="462" y="387" type="curve"/>
			<point x="388" y="387" type="line"/>
			<point x="377" y="316"/>
			<point x="357" y="249"/>
			<point x="328" y="193" type="curve"/>
			<point x="145" y="380" type="line" smooth="yes"/>
			<point x="103" y="423"/>
			<point x="69" y="460"/>
			<point x="69" y="521" type="curve" smooth="yes"/>
			<point x="69" y="587"/>
			<point x="115" y="627"/>
			<point x="193" y="627" type="curve" smooth="yes"/>
			<point x="257" y="627"/>
			<point x="318" y="604"/>
			<point x="356" y="578" type="curve"/>
			<point x="356" y="655" type="line"/>
			<point x="321" y="676"/>
			<point x="258" y="698"/>
			<point x="190" y="698" type="curve" smooth="yes"/>
			<point x="58" y="698"/>
			<point x="-12" y="620"/>
			<point x="-12" y="519" type="curve" smooth="yes"/>
			<point x="-12" y="471"/>
			<point x="3" y="434"/>
			<point x="25" y="402" type="curve"/>
			<point x="-35" y="365"/>
			<point x="-90" y="299"/>
			<point x="-97" y="207" type="curve"/>
			<point x="-265" y="380" type="line" smooth="yes"/>
			<point x="-307" y="423"/>
			<point x="-341" y="460"/>
			<point x="-341" y="521" type="curve" smooth="yes"/>
			<point x="-341" y="587"/>
			<point x="-296" y="627"/>
			<point x="-219" y="627" type="curve" smooth="yes"/>
			<point x="-160" y="627"/>
			<point x="-105" y="604"/>
			<point x="-70" y="581" type="curve"/>
			<point x="-70" y="659" type="line"/>
			<point x="-102" y="677"/>
			<point x="-158" y="698"/>
			<point x="-221" y="698" type="curve" smooth="yes"/>
			<point x="-352" y="698"/>
			<point x="-422" y="620"/>
			<point x="-422" y="519" type="curve" smooth="yes"/>
			<point x="-422" y="471"/>
			<point x="-407" y="434"/>
			<point x="-385" y="401" type="curve"/>
			<point x="-450" y="362"/>
			<point x="-508" y="289"/>
			<point x="-508" y="187" type="curve" smooth="yes"/>
			<point x="-508" y="56"/>
			<point x="-420" y="-14"/>
		</contour>
		<contour>
			<point x="-19" y="197" type="curve" smooth="yes"/>
			<point x="-19" y="269"/>
			<point x="18" y="321"/>
			<point x="68" y="351" type="curve"/>
			<point x="74" y="344"/>
			<point x="81" y="337"/>
			<point x="88" y="330" type="curve" smooth="yes"/>
			<point x="285" y="130" type="line"/>
			<point x="245" y="83"/>
			<point x="192" y="55"/>
			<point x="125" y="55" type="curve" smooth="yes"/>
			<point x="35" y="55"/>
			<point x="-19" y="116"/>
		</contour>
		<contour>
			<point x="-429" y="197" type="curve" smooth="yes"/>
			<point x="-429" y="268"/>
			<point x="-393" y="320"/>
			<point x="-342" y="350" type="curve"/>
			<point x="-336" y="344"/>
			<point x="-329" y="337"/>
			<point x="-323" y="330" type="curve" smooth="yes"/>
			<point x="-128" y="133" type="line"/>
			<point x="-167" y="84"/>
			<point x="-219" y="55"/>
			<point x="-286" y="55" type="curve" smooth="yes"/>
			<point x="-375" y="55"/>
			<point x="-429" y="108"/>
		</contour>
	</outline>
</glyph>
<glyph name="ampersand_ampersand_ampersand.rem" format="2">
	<advance width="600"/>
	<outline>
		<contour>
			<point x="-835" y="-14" type="curve" smooth="yes"/>
			<point x="-741" y="-14"/>
			<point x="-659" y="16"/>
			<point x="-594" y="89" type="curve"/>
			<point x="-559" y="20"/>
			<point x="-482" y="-14"/>
			<point x="-390" y="-14" type="curve" smooth="yes"/>
			<point x="-296" y="-14"/>
			<point x="-213" y="17"/>
			<point x="-148" y="90" type="curve"/>
			<point x="-115" y="23"/>
			<point x="-42" y="-14"/>
			<point x="46" y="-14" type="curve" smooth="yes"/>
			<point x="143" y="-14"/>
			<point x="222" y="23"/>
			<point x="281" y="85" type="curve"/>
			<point x="367" y="0" type="line"/>
			<point x="470" y="0" type="line"/>
			<point x="328" y="143" type="line"/>
			<point x="372" y="210"/>
			<point x="402" y="295"/>
			<point x="415" y="387" type="curve"/>
			<point x="342" y="387" type="line"/>
			<point x="330" y="316"/>
			<point x="309" y="248"/>
			<point x="278" y="193" type="curve"/>
			<point x="91" y="380" type="line" smooth="yes"/>
			<point x="50" y="423"/>
			<point x="17" y="460"/>
			<point x="17" y="521" type="curve" smooth="yes"/>
			<point x="17" y="587"/>
			<point x="64" y="627"/>
			<point x="145" y="627" type="curve" smooth="yes"/>
			<point x="208" y="627"/>
			<point x="270" y="602"/>
			<point x="307" y="576" type="curve"/>
			<point x="307" y="653" type="line"/>
			<point x="272" y="675"/>
			<point x="209" y="698"/>
			<point x="142" y="698" type="curve" smooth="yes"/>
			<point x="8" y="698"/>
			<point x="-64" y="620"/>
			<point x="-64" y="519" type="curve" smooth="yes"/>
			<point x="-64" y="472"/>
			<point x="-51" y="436"/>
			<point x="-30" y="404" type="curve"/>
			<point x="-94" y="366"/>
			<point x="-157" y="298"/>
			<point x="-166" y="202" type="curve"/>
			<point x="-355" y="380" type="line" smooth="yes"/>
			<point x="-398" y="422"/>
			<point x="-431" y="460"/>
			<point x="-431" y="521" type="curve" smooth="yes"/>
			<point x="-431" y="587"/>
			<point x="-382" y="627"/>
			<point x="-299" y="627" type="curve" smooth="yes"/>
			<point x="-240" y="627"/>
			<point x="-183" y="604"/>
			<point x="-148" y="580" type="curve"/>
			<point x="-148" y="657" type="line"/>
			<point x="-180" y="677"/>
			<point x="-239" y="698"/>
			<point x="-302" y="698" type="curve" smooth="yes"/>
			<point x="-439" y="698"/>
			<point x="-512" y="620"/>
			<point x="-512" y="519" type="curve" smooth="yes"/>
			<point x="-512" y="472"/>
			<point x="-499" y="436"/>
			<point x="-478" y="404" type="curve"/>
			<point x="-542" y="367"/>
			<point x="-604" y="302"/>
			<point x="-613" y="204" type="curve"/>
			<point x="-800" y="380" type="line" smooth="yes"/>
			<point x="-843" y="422"/>
			<point x="-876" y="460"/>
			<point x="-876" y="521" type="curve" smooth="yes"/>
			<point x="-876" y="587"/>
			<point x="-828" y="627"/>
			<point x="-745" y="627" type="curve" smooth="yes"/>
			<point x="-686" y="627"/>
			<point x="-629" y="604"/>
			<point x="-594" y="580" type="curve"/>
			<point x="-594" y="657" type="line"/>
			<point x="-626" y="676"/>
			<point x="-684" y="698"/>
			<point x="-747" y="698" type="curve" smooth="yes"/>
			<point x="-884" y="698"/>
			<point x="-957" y="620"/>
			<point x="-957" y="519" type="curve" smooth="yes"/>
			<point x="-957" y="472"/>
			<point x="-944" y="436"/>
			<point x="-923" y="403" type="curve"/>
			<point x="-990" y="364"/>
			<point x="-1055" y="291"/>
			<point x="-1055" y="180" type="curve" smooth="yes"/>
			<point x="-1055" y="50"/>
			<point x="-958" y="-14"/>
		</contour>
		<contour>
			<point x="-88" y="186" type="curve" smooth="yes"/>
			<point x="-88" y="264"/>
			<point x="-41" y="320"/>
			<point x="11" y="353" type="curve"/>
			<point x="18" y="346"/>
			<point x="26" y="338"/>
			<point x="33" y="330" type="curve" smooth="yes"/>
			<point x="234" y="132" type="line"/>
			<point x="189" y="84"/>
			<point x="131" y="55"/>
			<point x="58" y="55" type="curve" smooth="yes"/>
			<point x="-29" y="55"/>
			<point x="-88" y="108"/>
		</contour>
		<contour>
			<point x="-533" y="189" type="curve" smooth="yes"/>
			<point x="-533" y="271"/>
			<point x="-487" y="322"/>
			<point x="-436" y="352" type="curve"/>
			<point x="-428" y="345"/>
			<point x="-421" y="338"/>
			<point x="-413" y="330" type="curve" smooth="yes"/>
			<point x="-201" y="137" type="line"/>
			<point x="-244" y="85"/>
			<point x="-307" y="55"/>
			<point x="-378" y="55" type="curve" smooth="yes"/>
			<point x="-471" y="55"/>
			<point x="-533" y="102"/>
		</contour>
		<contour>
			<point x="-976" y="189" type="curve" smooth="yes"/>
			<point x="-976" y="271"/>
			<point x="-931" y="321"/>
			<point x="-880" y="352" type="curve"/>
			<point x="-873" y="345"/>
			<point x="-865" y="338"/>
			<point x="-858" y="330" type="curve" smooth="yes"/>
			<point x="-646" y="137" type="line"/>
			<point x="-689" y="85"/>
			<point x="-752" y="55"/>
			<point x="-823" y="55" type="curve" smooth="yes"/>
			<point x="-914" y="55"/>
			<point x="-976" y="102"/>
		</contour>
	</outline>
</glyph>
<glyph name="asciicircum_equal.cLig" format="2">
	<advance width="600"/>
	<outline>
		<contour>
			<point x="-446" y="369" type="line"/>
			<point x="-364" y="369" type="line"/>
			<point x="-223" y="642" type="line"/>
			<point x="-82" y="369" type="line"/>
			<point x="-38" y="369" type="line"/>
			<point x="-38" y="364" type="line"/>
			<point x="412" y="364" type="line"/>
			<point x="412" y="438" type="line"/>
			<point x="-37" y="438" type="line"/>
			<point x="-183" y="711" type="line"/>
			<point x="-265" y="711" type="line"/>
		</contour>
		<contour>
			<point x="-38" y="152" type="line"/>
			<point x="412" y="152" type="line"/>
			<point x="412" y="226" type="line"/>
			<point x="-38" y="226" type="line"/>
		</contour>
	</outline>
</glyph>
<glyph name="asciitilde_asciitilde_asciitilde.rem" format="2">
	<advance width="600"/>
	<outline>
		<contour>
			<point x="-610" y="214" type="curve"/>
			<point x="-499" y="214"/>
			<point x="-486" y="341"/>
			<point x="-408" y="341" type="curve" smooth="yes"/>
			<point x="-331" y="341"/>
			<point x="-305" y="214"/>
			<point x="-193" y="214" type="curve" smooth="yes"/>
			<point x="-78" y="214"/>
			<point x="-67" y="341"/>
			<point x="15" y="341" type="curve"/>
			<point x="95" y="341"/>
			<point x="116" y="214"/>
			<point x="227" y="214" type="curve"/>
			<point x="325" y="214"/>
			<point x="379" y="293"/>
			<point x="393" y="413" type="curve"/>
			<point x="319" y="413" type="line"/>
			<point x="309" y="343"/>
			<point x="286" y="293"/>
			<point x="226" y="293" type="curve"/>
			<point x="147" y="293"/>
			<point x="135" y="418"/>
			<point x="15" y="418" type="curve"/>
			<point x="-102" y="418"/>
			<point x="-114" y="292"/>
			<point x="-192" y="292" type="curve" smooth="yes"/>
			<point x="-275" y="292"/>
			<point x="-289" y="418"/>
			<point x="-406" y="418" type="curve" smooth="yes"/>
			<point x="-522" y="418"/>
			<point x="-531" y="292"/>
			<point x="-610" y="292" type="curve"/>
			<point x="-694" y="292"/>
			<point x="-715" y="418"/>
			<point x="-826" y="418" type="curve" smooth="yes"/>
			<point x="-923" y="418"/>
			<point x="-979" y="338"/>
			<point x="-993" y="219" type="curve"/>
			<point x="-919" y="219" type="line"/>
			<point x="-909" y="284"/>
			<point x="-888" y="340"/>
			<point x="-826" y="340" type="curve" smooth="yes"/>
			<point x="-747" y="340"/>
			<point x="-733" y="214"/>
		</contour>
	</outline>
</glyph>
<glyph name="asciitilde_asciitilde_greater.cLig" format="2">
	<advance width="600"/>
	<outline>
		<contour>
			<point x="104" y="627" type="line"/>
			<point x="358" y="351" type="line"/>
			<point x="-15" y="351" type="line"/>
			<point x="-43" y="397"/>
			<point x="-84" y="421"/>
			<point x="-130" y="421" type="curve" smooth="yes"/>
			<point x="-248" y="421"/>
			<point x="-249" y="283"/>
			<point x="-333" y="283" type="curve" smooth="yes"/>
			<point x="-413" y="283"/>
			<point x="-423" y="419"/>
			<point x="-537" y="419" type="curve" smooth="yes"/>
			<point x="-653" y="419"/>
			<point x="-661" y="282"/>
			<point x="-737" y="282" type="curve"/>
			<point x="-817" y="282"/>
			<point x="-825" y="420"/>
			<point x="-947" y="420" type="curve" smooth="yes"/>
			<point x="-1035" y="420"/>
			<point x="-1095" y="350"/>
			<point x="-1112" y="228" type="curve"/>
			<point x="-1039" y="228" type="line"/>
			<point x="-1029" y="302"/>
			<point x="-994" y="341"/>
			<point x="-946" y="341" type="curve" smooth="yes"/>
			<point x="-862" y="341"/>
			<point x="-854" y="205"/>
			<point x="-738" y="205" type="curve"/>
			<point x="-623" y="205"/>
			<point x="-622" y="341"/>
			<point x="-539" y="341" type="curve" smooth="yes"/>
			<point x="-458" y="341"/>
			<point x="-452" y="205"/>
			<point x="-337" y="205" type="curve" smooth="yes"/>
			<point x="-216" y="205"/>
			<point x="-220" y="344"/>
			<point x="-136" y="344" type="curve" smooth="yes"/>
			<point x="-97" y="344"/>
			<point x="-71" y="319"/>
			<point x="-53" y="274" type="curve"/>
			<point x="359" y="274" type="line"/>
			<point x="108" y="-2" type="line"/>
			<point x="210" y="-2" type="line"/>
			<point x="489" y="312" type="line"/>
			<point x="207" y="627" type="line"/>
		</contour>
	</outline>
</glyph>
<glyph name="asciitilde_at.cLig" format="2">
	<advance width="600"/>
	<outline>
		<contour>
			<point x="375" y="-15" type="curve"/>
			<point x="473" y="-15"/>
			<point x="529" y="79"/>
			<point x="529" y="289" type="curve" smooth="yes"/>
			<point x="529" y="303" type="line" smooth="yes"/>
			<point x="529" y="553"/>
			<point x="437" y="698"/>
			<point x="199" y="698" type="curve" smooth="yes"/>
			<point x="-34" y="698"/>
			<point x="-118" y="580"/>
			<point x="-160" y="381" type="curve" smooth="yes"/>
			<point x="-174" y="314"/>
			<point x="-185" y="284"/>
			<point x="-228" y="284" type="curve" smooth="yes"/>
			<point x="-288" y="284"/>
			<point x="-309" y="410"/>
			<point x="-415" y="410" type="curve" smooth="yes"/>
			<point x="-501" y="410"/>
			<point x="-538" y="340"/>
			<point x="-538" y="216" type="curve"/>
			<point x="-467" y="216" type="line"/>
			<point x="-467" y="293"/>
			<point x="-453" y="332"/>
			<point x="-411" y="332" type="curve" smooth="yes"/>
			<point x="-349" y="332"/>
			<point x="-326" y="204"/>
			<point x="-227" y="204" type="curve" smooth="yes"/>
			<point x="-150" y="204"/>
			<point x="-110" y="252"/>
			<point x="-88" y="363" type="curve" smooth="yes"/>
			<point x="-55" y="539"/>
			<point x="21" y="627"/>
			<point x="196" y="627" type="curve" smooth="yes"/>
			<point x="393" y="627"/>
			<point x="452" y="503"/>
			<point x="452" y="306" type="curve" smooth="yes"/>
			<point x="452" y="288" type="line" smooth="yes"/>
			<point x="452" y="112"/>
			<point x="426" y="50"/>
			<point x="382" y="50" type="curve"/>
			<point x="345" y="50"/>
			<point x="335" y="76"/>
			<point x="335" y="131" type="curve"/>
			<point x="335" y="481" type="line"/>
			<point x="265" y="481" type="line"/>
			<point x="265" y="396" type="line"/>
			<point x="245" y="454"/>
			<point x="206" y="492"/>
			<point x="144" y="492" type="curve" smooth="yes"/>
			<point x="53" y="491"/>
			<point x="-7" y="413"/>
			<point x="-7" y="274" type="curve" smooth="yes"/>
			<point x="-7" y="142"/>
			<point x="49" y="63"/>
			<point x="142" y="63" type="curve" smooth="yes"/>
			<point x="212" y="63"/>
			<point x="250" y="105"/>
			<point x="266" y="170" type="curve"/>
			<point x="266" y="122" type="line" smooth="yes"/>
			<point x="266" y="24"/>
			<point x="303" y="-15"/>
		</contour>
		<contour>
			<point x="162" y="127" type="curve" smooth="yes"/>
			<point x="100" y="127"/>
			<point x="72" y="180"/>
			<point x="72" y="277" type="curve" smooth="yes"/>
			<point x="72" y="375"/>
			<point x="101" y="424"/>
			<point x="163" y="424" type="curve" smooth="yes"/>
			<point x="222" y="424"/>
			<point x="261" y="373"/>
			<point x="261" y="276" type="curve" smooth="yes"/>
			<point x="261" y="178"/>
			<point x="227" y="127"/>
		</contour>
	</outline>
</glyph>
<glyph name="asciitilde_equal.cLig.x" format="2">
	<advance width="600"/>
	<outline>
		<contour>
			<point x="-320" y="329" type="line"/>
			<point x="-276" y="396"/>
			<point x="-220" y="422"/>
			<point x="-160" y="422" type="curve" smooth="yes"/>
			<point x="-56" y="422"/>
			<point x="24" y="316"/>
			<point x="155" y="316" type="curve" smooth="yes"/>
			<point x="225" y="316"/>
			<point x="287" y="345"/>
			<point x="320" y="395" type="curve"/>
			<point x="320" y="483" type="line"/>
			<point x="266" y="409"/>
			<point x="213" y="388"/>
			<point x="148" y="390" type="curve" smooth="yes"/>
			<point x="48" y="393"/>
			<point x="-33" y="496"/>
			<point x="-160" y="496" type="curve" smooth="yes"/>
			<point x="-227" y="496"/>
			<point x="-288" y="468"/>
			<point x="-320" y="419" type="curve"/>
		</contour>
		<contour>
			<point x="-320" y="157" type="line"/>
			<point x="320" y="157" type="line"/>
			<point x="320" y="231" type="line"/>
			<point x="-320" y="231" type="line"/>
		</contour>
	</outline>
</glyph>
<glyph name="aster_comp" format="2">
	<advance width="600"/>
	<outline>
		<contour>
			<point x="246" y="530" type="curve" smooth="yes"/>
			<point x="224" y="313" type="line"/>
			<point x="310" y="313" type="line"/>
			<point x="287" y="530" type="line" smooth="yes"/>
			<point x="286" y="540"/>
			<point x="282" y="546"/>
			<point x="277" y="550" type="curve"/>
			<point x="283" y="553"/>
			<point x="287" y="560"/>
			<point x="288" y="570" type="curve" smooth="yes"/>
			<point x="310" y="786" type="line"/>
			<point x="224" y="786" type="line"/>
			<point x="246" y="570" type="line" smooth="yes"/>
			<point x="247" y="560"/>
			<point x="251" y="553"/>
			<point x="257" y="550" type="curve"/>
			<point x="251" y="547"/>
			<point x="247" y="540"/>
		</contour>
	</outline>
</glyph>
<glyph name="asterisk_asterisk_asterisk.cLig" format="2">
	<advance width="600"/>
	<outline>
		<contour>
			<point x="-116" y="288" type="line"/>
			<point x="-72" y="363" type="line"/>
			<point x="-253" y="445" type="line"/>
			<point x="-71" y="526" type="line"/>
			<point x="-114" y="602" type="line"/>
			<point x="-276" y="485" type="line"/>
			<point x="-256" y="684" type="line"/>
			<point x="-342" y="684" type="line"/>
			<point x="-322" y="484" type="line"/>
			<point x="-486" y="603" type="line"/>
			<point x="-530" y="527" type="line"/>
			<point x="-346" y="445" type="line"/>
			<point x="-529" y="363" type="line"/>
			<point x="-485" y="288" type="line"/>
			<point x="-322" y="406" type="line"/>
			<point x="-342" y="206" type="line"/>
			<point x="-256" y="206" type="line"/>
			<point x="-277" y="404" type="line"/>
		</contour>
		<contour>
			<point x="-673" y="82" type="line"/>
			<point x="-629" y="157" type="line"/>
			<point x="-810" y="239" type="line"/>
			<point x="-628" y="320" type="line"/>
			<point x="-671" y="396" type="line"/>
			<point x="-833" y="279" type="line"/>
			<point x="-813" y="478" type="line"/>
			<point x="-899" y="478" type="line"/>
			<point x="-879" y="278" type="line"/>
			<point x="-1043" y="397" type="line"/>
			<point x="-1087" y="321" type="line"/>
			<point x="-903" y="239" type="line"/>
			<point x="-1086" y="157" type="line"/>
			<point x="-1042" y="82" type="line"/>
			<point x="-879" y="200" type="line"/>
			<point x="-899" y="0" type="line"/>
			<point x="-813" y="0" type="line"/>
			<point x="-834" y="198" type="line"/>
		</contour>
		<contour>
			<point x="442" y="82" type="line"/>
			<point x="486" y="157" type="line"/>
			<point x="305" y="239" type="line"/>
			<point x="487" y="320" type="line"/>
			<point x="444" y="396" type="line"/>
			<point x="282" y="279" type="line"/>
			<point x="302" y="478" type="line"/>
			<point x="216" y="478" type="line"/>
			<point x="236" y="278" type="line"/>
			<point x="72" y="397" type="line"/>
			<point x="28" y="321" type="line"/>
			<point x="212" y="239" type="line"/>
			<point x="29" y="157" type="line"/>
			<point x="73" y="82" type="line"/>
			<point x="236" y="200" type="line"/>
			<point x="216" y="0" type="line"/>
			<point x="302" y="0" type="line"/>
			<point x="281" y="198" type="line"/>
		</contour>
	</outline>
</glyph>
<glyph name="asterisk_greater.cLig" format="2">
	<advance width="600"/>
	<outline>
		<contour>
			<point x="57" y="-6" type="line"/>
			<point x="500" y="268" type="line"/>
			<point x="500" y="360" type="line"/>
			<point x="57" y="634" type="line"/>
			<point x="57" y="545" type="line"/>
			<point x="437" y="313" type="line"/>
			<point x="57" y="82" type="line"/>
		</contour>
		<contour>
			<point x="-64" y="159" type="line"/>
			<point x="-20" y="235" type="line"/>
			<point x="-204" y="317" type="line"/>
			<point x="-21" y="399" type="line"/>
			<point x="-65" y="474" type="line"/>
			<point x="-228" y="356" type="line"/>
			<point x="-208" y="556" type="line"/>
			<point x="-294" y="556" type="line"/>
			<point x="-273" y="358" type="line"/>
			<point x="-434" y="474" type="line"/>
			<point x="-478" y="399" type="line"/>
			<point x="-297" y="317" type="line"/>
			<point x="-479" y="236" type="line"/>
			<point x="-436" y="160" type="line"/>
			<point x="-274" y="276" type="line"/>
			<point x="-294" y="78" type="line"/>
			<point x="-208" y="78" type="line"/>
			<point x="-228" y="278" type="line"/>
		</contour>
	</outline>
</glyph>
<glyph name="backslash_backslash_backslash.rem" format="2">
	<advance width="600"/>
	<outline>
		<contour>
			<point x="-654" y="-163" type="line"/>
			<point x="-568" y="-163" type="line"/>
			<point x="-947" y="792" type="line"/>
			<point x="-1032" y="792" type="line"/>
		</contour>
		<contour>
			<point x="-154" y="-163" type="line"/>
			<point x="-68" y="-163" type="line"/>
			<point x="-447" y="792" type="line"/>
			<point x="-532" y="792" type="line"/>
		</contour>
		<contour>
			<point x="346" y="-163" type="line"/>
			<point x="432" y="-163" type="line"/>
			<point x="53" y="792" type="line"/>
			<point x="-32" y="792" type="line"/>
		</contour>
	</outline>
</glyph>
<glyph name="backslash_slash.cLig" format="2">
	<advance width="600"/>
	<outline>
		<contour>
			<point x="-62" y="-163" type="line"/>
			<point x="61" y="-163" type="line"/>
			<point x="440" y="792" type="line"/>
			<point x="354" y="792" type="line"/>
			<point x="0" y="-102" type="line"/>
			<point x="-355" y="792" type="line"/>
			<point x="-440" y="792" type="line"/>
		</contour>
	</outline>
</glyph>
<glyph name="bar_bar_bar.rem" format="2">
	<advance width="600"/>
	<outline>
		<contour>
			<point x="159" y="792" type="line"/>
			<point x="159" y="-163" type="line"/>
			<point x="239" y="-163" type="line"/>
			<point x="239" y="792" type="line"/>
		</contour>
		<contour>
			<point x="-839" y="792" type="line"/>
			<point x="-839" y="-163" type="line"/>
			<point x="-759" y="-163" type="line"/>
			<point x="-759" y="792" type="line"/>
		</contour>
		<contour>
			<point x="-340" y="792" type="line"/>
			<point x="-340" y="-163" type="line"/>
			<point x="-260" y="-163" type="line"/>
			<point x="-260" y="792" type="line"/>
		</contour>
	</outline>
</glyph>
<glyph name="bar_bar_equal.init" format="2">
	<advance width="600"/>
	<outline>
		<contour>
			<point x="-350" y="684" type="line"/>
			<point x="-350" y="-55" type="line"/>
			<point x="-270" y="-55" type="line"/>
			<point x="-270" y="684" type="line"/>
		</contour>
		<contour>
			<point x="30" y="684" type="line"/>
			<point x="30" y="-55" type="line"/>
			<point x="110" y="-55" type="line"/>
			<point x="110" y="171" type="line"/>
			<point x="600" y="171" type="line"/>
			<point x="600" y="246" type="line"/>
			<point x="110" y="246" type="line"/>
			<point x="110" y="383" type="line"/>
			<point x="600" y="383" type="line"/>
			<point x="600" y="458" type="line"/>
			<point x="110" y="458" type="line"/>
			<point x="110" y="684" type="line"/>
		</contour>
	</outline>
</glyph>
<glyph name="bar_bar_hyphen.init" format="2">
	<advance width="600"/>
	<outline>
		<contour>
			<point x="30" y="-55" type="line"/>
			<point x="110" y="-55" type="line"/>
			<point x="110" y="275" type="line"/>
			<point x="600" y="275" type="line"/>
			<point x="600" y="352" type="line"/>
			<point x="110" y="352" type="line"/>
			<point x="110" y="684" type="line"/>
			<point x="30" y="684" type="line"/>
		</contour>
		<contour>
			<point x="-350" y="-55" type="line"/>
			<point x="-270" y="-55" type="line"/>
			<point x="-270" y="684" type="line"/>
			<point x="-350" y="684" type="line"/>
		</contour>
	</outline>
</glyph>
<glyph name="bar_braceright.cLig" format="2">
	<advance width="600"/>
	<outline>
		<contour>
			<point x="200" y="-163" type="curve" smooth="yes"/>
			<point x="-41" y="-163" type="line"/>
			<point x="-41" y="-99" type="line"/>
			<point x="180" y="-99" type="line" smooth="yes"/>
			<point x="244" y="-99"/>
			<point x="284" y="-72"/>
			<point x="284" y="-16" type="curve" smooth="yes"/>
			<point x="284" y="59"/>
			<point x="184" y="119"/>
			<point x="184" y="210" type="curve" smooth="yes"/>
			<point x="184" y="263"/>
			<point x="236" y="303"/>
			<point x="303" y="314" type="curve"/>
			<point x="235" y="325"/>
			<point x="184" y="365"/>
			<point x="184" y="419" type="curve" smooth="yes"/>
			<point x="184" y="509"/>
			<point x="284" y="571"/>
			<point x="284" y="646" type="curve" smooth="yes"/>
			<point x="284" y="703"/>
			<point x="242" y="728"/>
			<point x="180" y="728" type="curve" smooth="yes"/>
			<point x="-41" y="728" type="line"/>
			<point x="-41" y="792" type="line"/>
			<point x="200" y="792" type="line" smooth="yes"/>
			<point x="310" y="792"/>
			<point x="369" y="729"/>
			<point x="369" y="653" type="curve" smooth="yes"/>
			<point x="369" y="558"/>
			<point x="268" y="493"/>
			<point x="268" y="422" type="curve" smooth="yes"/>
			<point x="268" y="392"/>
			<point x="290" y="352"/>
			<point x="367" y="352" type="curve" smooth="yes"/>
			<point x="425" y="352" type="line"/>
			<point x="425" y="276" type="line"/>
			<point x="367" y="276" type="line" smooth="yes"/>
			<point x="291" y="276"/>
			<point x="268" y="236"/>
			<point x="268" y="205" type="curve" smooth="yes"/>
			<point x="268" y="135"/>
			<point x="369" y="70"/>
			<point x="369" y="-24" type="curve" smooth="yes"/>
			<point x="369" y="-101"/>
			<point x="316" y="-163"/>
		</contour>
		<contour>
			<point x="-265" y="792" type="line"/>
			<point x="-265" y="-163" type="line"/>
			<point x="-345" y="-163" type="line"/>
			<point x="-345" y="792" type="line"/>
		</contour>
	</outline>
</glyph>
<glyph name="bar_equal.fina" format="2">
	<advance width="600"/>
	<outline>
		<contour>
			<point x="0" y="171" type="line"/>
			<point x="370" y="171" type="line"/>
			<point x="370" y="-55" type="line"/>
			<point x="450" y="-55" type="line"/>
			<point x="450" y="684" type="line"/>
			<point x="370" y="684" type="line"/>
			<point x="370" y="458" type="line"/>
			<point x="0" y="458" type="line"/>
			<point x="0" y="383" type="line"/>
			<point x="370" y="383" type="line"/>
			<point x="370" y="246" type="line"/>
			<point x="0" y="246" type="line"/>
		</contour>
	</outline>
</glyph>
<glyph name="bar_equal.init" format="2">
	<advance width="600"/>
	<outline>
		<contour>
			<point x="150" y="684" type="line"/>
			<point x="150" y="-55" type="line"/>
			<point x="230" y="-55" type="line"/>
			<point x="230" y="171" type="line"/>
			<point x="600" y="171" type="line"/>
			<point x="600" y="246" type="line"/>
			<point x="230" y="246" type="line"/>
			<point x="230" y="383" type="line"/>
			<point x="600" y="383" type="line"/>
			<point x="600" y="458" type="line"/>
			<point x="230" y="458" type="line"/>
			<point x="230" y="684" type="line"/>
		</contour>
	</outline>
</glyph>
<glyph name="bar_equal.rem" format="2">
	<advance width="600"/>
	<outline>
		<contour>
			<point x="-353" y="684" type="line"/>
			<point x="-353" y="-55" type="line"/>
			<point x="-273" y="-55" type="line"/>
			<point x="-273" y="171" type="line"/>
			<point x="426" y="171" type="line"/>
			<point x="426" y="246" type="line"/>
			<point x="-273" y="246" type="line"/>
			<point x="-273" y="383" type="line"/>
			<point x="426" y="383" type="line"/>
			<point x="426" y="458" type="line"/>
			<point x="-273" y="458" type="line"/>
			<point x="-273" y="684" type="line"/>
		</contour>
	</outline>
</glyph>
<glyph name="bar_equal_greater.rem" format="2">
	<advance width="600"/>
	<outline>
		<contour>
			<point x="-1026" y="629" type="line"/>
			<point x="-1026" y="0" type="line"/>
			<point x="-948" y="0" type="line"/>
			<point x="-948" y="171" type="line"/>
			<point x="247" y="171" type="line"/>
			<point x="95" y="0" type="line"/>
			<point x="196" y="0" type="line"/>
			<point x="473" y="313" type="line"/>
			<point x="193" y="629" type="line"/>
			<point x="92" y="629" type="line"/>
			<point x="245" y="458" type="line"/>
			<point x="-948" y="458" type="line"/>
			<point x="-948" y="629" type="line"/>
		</contour>
		<contour>
			<point x="374" y="314" type="line"/>
			<point x="313" y="246" type="line"/>
			<point x="-948" y="246" type="line"/>
			<point x="-948" y="383" type="line"/>
			<point x="312" y="383" type="line"/>
		</contour>
	</outline>
</glyph>
<glyph name="bar_hyphen.init" format="2">
	<advance width="600"/>
	<outline>
		<contour>
			<point x="150" y="-55" type="line"/>
			<point x="230" y="-55" type="line"/>
			<point x="230" y="275" type="line"/>
			<point x="600" y="275" type="line"/>
			<point x="600" y="352" type="line"/>
			<point x="230" y="352" type="line"/>
			<point x="230" y="684" type="line"/>
			<point x="150" y="684" type="line"/>
		</contour>
	</outline>
</glyph>
<glyph name="bar_hyphen_greater.rem" format="2">
	<advance width="600"/>
	<outline>
		<contour>
			<point x="-1026" y="0" type="line"/>
			<point x="-947" y="0" type="line"/>
			<point x="-947" y="276" type="line"/>
			<point x="304" y="276" type="line"/>
			<point x="53" y="0" type="line"/>
			<point x="154" y="0" type="line"/>
			<point x="434" y="314" type="line"/>
			<point x="151" y="629" type="line"/>
			<point x="49" y="629" type="line"/>
			<point x="303" y="353" type="line"/>
			<point x="-947" y="353" type="line"/>
			<point x="-947" y="629" type="line"/>
			<point x="-1026" y="629" type="line"/>
		</contour>
	</outline>
</glyph>
<glyph name="braceleft_hyphen.rem" format="2">
	<advance width="600"/>
	<outline>
		<contour>
			<point x="-17" y="792" type="line"/>
			<point x="-161" y="792" type="line" smooth="yes"/>
			<point x="-276" y="792"/>
			<point x="-329" y="733"/>
			<point x="-329" y="655" type="curve" smooth="yes"/>
			<point x="-329" y="562"/>
			<point x="-224" y="493"/>
			<point x="-224" y="424" type="curve" smooth="yes"/>
			<point x="-224" y="392"/>
			<point x="-243" y="353"/>
			<point x="-311" y="353" type="curve" smooth="yes"/>
			<point x="-383" y="353" type="line"/>
			<point x="-383" y="277" type="line"/>
			<point x="-311" y="277" type="line" smooth="yes"/>
			<point x="-243" y="277"/>
			<point x="-224" y="239"/>
			<point x="-224" y="209" type="curve" smooth="yes"/>
			<point x="-224" y="139"/>
			<point x="-329" y="70"/>
			<point x="-329" y="-26" type="curve" smooth="yes"/>
			<point x="-329" y="-103"/>
			<point x="-269" y="-163"/>
			<point x="-161" y="-163" type="curve" smooth="yes"/>
			<point x="-17" y="-163" type="line"/>
			<point x="-17" y="-99" type="line"/>
			<point x="-141" y="-99" type="line" smooth="yes"/>
			<point x="-202" y="-99"/>
			<point x="-243" y="-74"/>
			<point x="-243" y="-19" type="curve" smooth="yes"/>
			<point x="-243" y="55"/>
			<point x="-140" y="114"/>
			<point x="-140" y="198" type="curve" smooth="yes"/>
			<point x="-140" y="239"/>
			<point x="-166" y="266"/>
			<point x="-204" y="279" type="curve"/>
			<point x="426" y="279" type="line"/>
			<point x="426" y="350" type="line"/>
			<point x="-206" y="350" type="line"/>
			<point x="-167" y="364"/>
			<point x="-140" y="392"/>
			<point x="-140" y="433" type="curve" smooth="yes"/>
			<point x="-140" y="520"/>
			<point x="-243" y="574"/>
			<point x="-243" y="647" type="curve" smooth="yes"/>
			<point x="-243" y="702"/>
			<point x="-203" y="728"/>
			<point x="-139" y="728" type="curve" smooth="yes"/>
			<point x="-17" y="728" type="line"/>
		</contour>
	</outline>
</glyph>
<glyph name="braceright_braceright.cLig" format="2">
	<advance width="600"/>
	<outline>
		<contour>
			<point x="37" y="792" type="line"/>
			<point x="37" y="728" type="line"/>
			<point x="183" y="728" type="line" smooth="yes"/>
			<point x="248" y="728"/>
			<point x="287" y="700"/>
			<point x="287" y="644" type="curve"/>
			<point x="287" y="565"/>
			<point x="185" y="511"/>
			<point x="185" y="418" type="curve" smooth="yes"/>
			<point x="185" y="363"/>
			<point x="236" y="325"/>
			<point x="304" y="314" type="curve"/>
			<point x="235" y="303"/>
			<point x="185" y="265"/>
			<point x="185" y="211" type="curve" smooth="yes"/>
			<point x="185" y="118"/>
			<point x="287" y="61"/>
			<point x="287" y="-14" type="curve" smooth="yes"/>
			<point x="287" y="-71"/>
			<point x="245" y="-98"/>
			<point x="180" y="-98" type="curve" smooth="yes"/>
			<point x="-154" y="-98" type="line"/>
			<point x="-101" y="-81"/>
			<point x="-84" y="-41"/>
			<point x="-84" y="-4" type="curve" smooth="yes"/>
			<point x="-84" y="84"/>
			<point x="-184" y="142"/>
			<point x="-184" y="209" type="curve" smooth="yes"/>
			<point x="-184" y="240"/>
			<point x="-163" y="277"/>
			<point x="-86" y="277" type="curve" smooth="yes"/>
			<point x="-20" y="277" type="line"/>
			<point x="-20" y="353" type="line"/>
			<point x="-86" y="353" type="line" smooth="yes"/>
			<point x="-165" y="353"/>
			<point x="-187" y="393"/>
			<point x="-187" y="423" type="curve" smooth="yes"/>
			<point x="-187" y="496"/>
			<point x="-84" y="558"/>
			<point x="-84" y="651" type="curve"/>
			<point x="-84" y="730"/>
			<point x="-135" y="792"/>
			<point x="-252" y="792" type="curve" smooth="yes"/>
			<point x="-428" y="792" type="line"/>
			<point x="-428" y="728" type="line"/>
			<point x="-273" y="728" type="line" smooth="yes"/>
			<point x="-208" y="728"/>
			<point x="-169" y="701"/>
			<point x="-169" y="644" type="curve"/>
			<point x="-169" y="569"/>
			<point x="-270" y="512"/>
			<point x="-270" y="420" type="curve" smooth="yes"/>
			<point x="-270" y="364"/>
			<point x="-219" y="325"/>
			<point x="-153" y="314" type="curve"/>
			<point x="-219" y="302"/>
			<point x="-271" y="266"/>
			<point x="-271" y="208" type="curve" smooth="yes"/>
			<point x="-271" y="119"/>
			<point x="-169" y="61"/>
			<point x="-169" y="-14" type="curve" smooth="yes"/>
			<point x="-169" y="-71"/>
			<point x="-212" y="-98"/>
			<point x="-277" y="-98" type="curve" smooth="yes"/>
			<point x="-435" y="-98" type="line"/>
			<point x="-435" y="-163" type="line"/>
			<point x="204" y="-163" type="line" smooth="yes"/>
			<point x="313" y="-163"/>
			<point x="372" y="-98"/>
			<point x="372" y="-22" type="curve" smooth="yes"/>
			<point x="372" y="73"/>
			<point x="269" y="136"/>
			<point x="269" y="207" type="curve" smooth="yes"/>
			<point x="269" y="238"/>
			<point x="291" y="277"/>
			<point x="368" y="277" type="curve" smooth="yes"/>
			<point x="437" y="277" type="line"/>
			<point x="437" y="353" type="line"/>
			<point x="368" y="353" type="line" smooth="yes"/>
			<point x="292" y="353"/>
			<point x="269" y="392"/>
			<point x="269" y="423" type="curve" smooth="yes"/>
			<point x="269" y="495"/>
			<point x="372" y="555"/>
			<point x="372" y="651" type="curve"/>
			<point x="372" y="730"/>
			<point x="319" y="792"/>
			<point x="204" y="792" type="curve" smooth="yes"/>
		</contour>
	</outline>
</glyph>
<glyph name="bracketleft_bracketleft_numbersign.cLig" format="2">
	<advance width="600"/>
	<outline>
		<contour>
			<point x="-137" y="236" type="line"/>
			<point x="-137" y="168" type="line"/>
			<point x="-4" y="168" type="line"/>
			<point x="-20" y="0" type="line"/>
			<point x="52" y="0" type="line"/>
			<point x="68" y="168" type="line"/>
			<point x="209" y="168" type="line"/>
			<point x="193" y="0" type="line"/>
			<point x="263" y="0" type="line"/>
			<point x="280" y="168" type="line"/>
			<point x="394" y="168" type="line"/>
			<point x="394" y="236" type="line"/>
			<point x="286" y="236" type="line"/>
			<point x="308" y="459" type="line"/>
			<point x="418" y="459" type="line"/>
			<point x="418" y="528" type="line"/>
			<point x="314" y="528" type="line"/>
			<point x="329" y="684" type="line"/>
			<point x="258" y="684" type="line"/>
			<point x="243" y="528" type="line"/>
			<point x="102" y="528" type="line"/>
			<point x="116" y="684" type="line"/>
			<point x="46" y="684" type="line"/>
			<point x="31" y="528" type="line"/>
			<point x="-137" y="528" type="line"/>
			<point x="-137" y="459" type="line"/>
			<point x="24" y="459" type="line"/>
			<point x="3" y="236" type="line"/>
		</contour>
		<contour>
			<point x="75" y="236" type="line"/>
			<point x="95" y="459" type="line"/>
			<point x="237" y="459" type="line"/>
			<point x="216" y="236" type="line"/>
		</contour>
		<contour>
			<point x="-982" y="-163" type="line"/>
			<point x="-598" y="-163" type="line"/>
			<point x="-598" y="-99" type="line"/>
			<point x="-902" y="-99" type="line"/>
			<point x="-902" y="728" type="line"/>
			<point x="-598" y="728" type="line"/>
			<point x="-598" y="792" type="line"/>
			<point x="-982" y="792" type="line"/>
		</contour>
		<contour>
			<point x="-511" y="-163" type="line"/>
			<point x="-189" y="-163" type="line"/>
			<point x="-189" y="-99" type="line"/>
			<point x="-431" y="-99" type="line"/>
			<point x="-431" y="728" type="line"/>
			<point x="-189" y="728" type="line"/>
			<point x="-189" y="792" type="line"/>
			<point x="-511" y="792" type="line"/>
		</contour>
	</outline>
</glyph>
<glyph name="bracketleft_numbersign.cLig" format="2">
	<advance width="600"/>
	<outline>
		<contour>
			<point x="-102" y="236" type="line"/>
			<point x="-102" y="168" type="line"/>
			<point x="31" y="168" type="line"/>
			<point x="15" y="0" type="line"/>
			<point x="87" y="0" type="line"/>
			<point x="103" y="168" type="line"/>
			<point x="244" y="168" type="line"/>
			<point x="228" y="0" type="line"/>
			<point x="298" y="0" type="line"/>
			<point x="315" y="168" type="line"/>
			<point x="429" y="168" type="line"/>
			<point x="429" y="236" type="line"/>
			<point x="321" y="236" type="line"/>
			<point x="343" y="459" type="line"/>
			<point x="453" y="459" type="line"/>
			<point x="453" y="528" type="line"/>
			<point x="349" y="528" type="line"/>
			<point x="364" y="684" type="line"/>
			<point x="293" y="684" type="line"/>
			<point x="278" y="528" type="line"/>
			<point x="137" y="528" type="line"/>
			<point x="151" y="684" type="line"/>
			<point x="81" y="684" type="line"/>
			<point x="66" y="528" type="line"/>
			<point x="-102" y="528" type="line"/>
			<point x="-102" y="459" type="line"/>
			<point x="59" y="459" type="line"/>
			<point x="38" y="236" type="line"/>
		</contour>
		<contour>
			<point x="110" y="236" type="line"/>
			<point x="130" y="459" type="line"/>
			<point x="272" y="459" type="line"/>
			<point x="251" y="236" type="line"/>
		</contour>
		<contour>
			<point x="-119" y="-99" type="line"/>
			<point x="-323" y="-99" type="line"/>
			<point x="-323" y="728" type="line"/>
			<point x="-119" y="728" type="line"/>
			<point x="-119" y="792" type="line"/>
			<point x="-402" y="792" type="line"/>
			<point x="-402" y="-163" type="line"/>
			<point x="-119" y="-163" type="line"/>
		</contour>
	</outline>
</glyph>
<glyph name="bracketright_bracketright.cLig" format="2">
	<advance width="600"/>
	<outline>
		<contour>
			<point x="418" y="792" type="line"/>
			<point x="34" y="792" type="line"/>
			<point x="34" y="728" type="line"/>
			<point x="338" y="728" type="line"/>
			<point x="338" y="-99" type="line"/>
			<point x="34" y="-99" type="line"/>
			<point x="34" y="-163" type="line"/>
			<point x="418" y="-163" type="line"/>
		</contour>
		<contour>
			<point x="-53" y="792" type="line"/>
			<point x="-375" y="792" type="line"/>
			<point x="-375" y="728" type="line"/>
			<point x="-133" y="728" type="line"/>
			<point x="-133" y="-99" type="line"/>
			<point x="-375" y="-99" type="line"/>
			<point x="-375" y="-163" type="line"/>
			<point x="-53" y="-163" type="line"/>
		</contour>
	</outline>
</glyph>
<glyph name="breve.cap" format="2">
	<advance width="600"/>
	<outline>
		<contour>
			<point x="300" y="741" type="curve" smooth="yes"/>
			<point x="392" y="741"/>
			<point x="444" y="783"/>
			<point x="444" y="884" type="curve"/>
			<point x="381" y="884" type="line"/>
			<point x="381" y="821"/>
			<point x="357" y="790"/>
			<point x="300" y="790" type="curve" smooth="yes"/>
			<point x="241" y="790"/>
			<point x="219" y="821"/>
			<point x="219" y="884" type="curve"/>
			<point x="156" y="884" type="line"/>
			<point x="156" y="783"/>
			<point x="204" y="741"/>
		</contour>
	</outline>
	<anchor name="_top" x="300" y="684"/>
</glyph>
<glyph name="caronSlovak" format="2">
	<advance width="600"/>
	<outline>
		<contour>
			<point x="247" y="576" type="line"/>
			<point x="301" y="576" type="line"/>
			<point x="360" y="750" type="line"/>
			<point x="273" y="750" type="line"/>
		</contour>
	</outline>
	<anchor name="_caron" x="273" y="750"/>
</glyph>
<glyph name="colon_colon_equal.cLig" format="2">
	<advance width="600"/>
	<outline>
		<contour>
			<point x="-877" y="89" type="curve" smooth="yes"/>
			<point x="-830" y="89"/>
			<point x="-804" y="107"/>
			<point x="-804" y="156" type="curve" smooth="yes"/>
			<point x="-804" y="204"/>
			<point x="-830" y="221"/>
			<point x="-877" y="221" type="curve" smooth="yes"/>
			<point x="-924" y="221"/>
			<point x="-950" y="204"/>
			<point x="-950" y="156" type="curve" smooth="yes"/>
			<point x="-950" y="107"/>
			<point x="-924" y="89"/>
		</contour>
		<contour>
			<point x="-877" y="375" type="curve" smooth="yes"/>
			<point x="-830" y="375"/>
			<point x="-804" y="393"/>
			<point x="-804" y="442" type="curve" smooth="yes"/>
			<point x="-804" y="490"/>
			<point x="-830" y="507"/>
			<point x="-877" y="507" type="curve" smooth="yes"/>
			<point x="-924" y="507"/>
			<point x="-950" y="490"/>
			<point x="-950" y="442" type="curve" smooth="yes"/>
			<point x="-950" y="393"/>
			<point x="-924" y="375"/>
		</contour>
		<contour>
			<point x="-510" y="89" type="curve" smooth="yes"/>
			<point x="-463" y="89"/>
			<point x="-437" y="107"/>
			<point x="-437" y="156" type="curve" smooth="yes"/>
			<point x="-437" y="204"/>
			<point x="-463" y="221"/>
			<point x="-510" y="221" type="curve" smooth="yes"/>
			<point x="-557" y="221"/>
			<point x="-583" y="204"/>
			<point x="-583" y="156" type="curve" smooth="yes"/>
			<point x="-583" y="107"/>
			<point x="-557" y="89"/>
		</contour>
		<contour>
			<point x="-510" y="375" type="curve" smooth="yes"/>
			<point x="-463" y="375"/>
			<point x="-437" y="393"/>
			<point x="-437" y="442" type="curve" smooth="yes"/>
			<point x="-437" y="490"/>
			<point x="-463" y="507"/>
			<point x="-510" y="507" type="curve" smooth="yes"/>
			<point x="-557" y="507"/>
			<point x="-583" y="490"/>
			<point x="-583" y="442" type="curve" smooth="yes"/>
			<point x="-583" y="393"/>
			<point x="-557" y="375"/>
		</contour>
		<contour>
			<point x="-189.2967625875" y="364" type="line"/>
			<point x="348.9226618875" y="364" type="line"/>
			<point x="348.9226618875" y="438" type="line"/>
			<point x="-189.2967625875" y="438" type="line"/>
		</contour>
		<contour>
			<point x="-189.2967625875" y="152" type="line"/>
			<point x="348.9226618875" y="152" type="line"/>
			<point x="348.9226618875" y="226" type="line"/>
			<point x="-189.2967625875" y="226" type="line"/>
		</contour>
	</outline>
</glyph>
<glyph name="colon_greater.cLig.x" format="2">
	<advance width="600"/>
	<outline>
		<contour>
			<point x="-14" y="-5" type="line"/>
			<point x="429" y="268" type="line"/>
			<point x="429" y="360" type="line"/>
			<point x="-14" y="634" type="line"/>
			<point x="-14" y="545" type="line"/>
			<point x="364" y="313" type="line"/>
			<point x="-14" y="81" type="line"/>
		</contour>
		<contour>
			<point x="-301" y="446" type="curve" smooth="yes"/>
			<point x="-254" y="446"/>
			<point x="-228" y="464"/>
			<point x="-228" y="513" type="curve" smooth="yes"/>
			<point x="-228" y="561"/>
			<point x="-254" y="578"/>
			<point x="-301" y="578" type="curve" smooth="yes"/>
			<point x="-348" y="578"/>
			<point x="-374" y="561"/>
			<point x="-374" y="513" type="curve" smooth="yes"/>
			<point x="-374" y="464"/>
			<point x="-348" y="446"/>
		</contour>
		<contour>
			<point x="-301" y="46" type="curve" smooth="yes"/>
			<point x="-254" y="46"/>
			<point x="-228" y="64"/>
			<point x="-228" y="113" type="curve" smooth="yes"/>
			<point x="-228" y="161"/>
			<point x="-254" y="178"/>
			<point x="-301" y="178" type="curve" smooth="yes"/>
			<point x="-348" y="178"/>
			<point x="-374" y="161"/>
			<point x="-374" y="113" type="curve" smooth="yes"/>
			<point x="-374" y="64"/>
			<point x="-348" y="46"/>
		</contour>
	</outline>
</glyph>
<glyph name="cordinal" format="2">
	<advance width="600"/>
	<outline>
		<contour>
			<point x="362" y="225" type="curve" smooth="yes"/>
			<point x="406" y="225"/>
			<point x="447" y="235"/>
			<point x="479" y="250" type="curve"/>
			<point x="479" y="308" type="line"/>
			<point x="451" y="294"/>
			<point x="409" y="284"/>
			<point x="366" y="284" type="curve" smooth="yes"/>
			<point x="260" y="284"/>
			<point x="191" y="347"/>
			<point x="191" y="462" type="curve" smooth="yes"/>
			<point x="191" y="574"/>
			<point x="261" y="637"/>
			<point x="365" y="637" type="curve" smooth="yes"/>
			<point x="409" y="637"/>
			<point x="449" y="627"/>
			<point x="479" y="611" type="curve"/>
			<point x="479" y="672" type="line"/>
			<point x="446" y="689"/>
			<point x="404" y="695"/>
			<point x="360" y="695" type="curve" smooth="yes"/>
			<point x="219" y="695"/>
			<point x="117" y="608"/>
			<point x="117" y="461" type="curve" smooth="yes"/>
			<point x="117" y="311"/>
			<point x="214" y="225"/>
		</contour>
	</outline>
</glyph>
<glyph name="eight.den" format="2">
	<advance width="600"/>
	<outline>
		<contour>
			<point x="299" y="-8" type="curve" smooth="yes"/>
			<point x="393" y="-8"/>
			<point x="457" y="31"/>
			<point x="457" y="109" type="curve" smooth="yes"/>
			<point x="457" y="175"/>
			<point x="413" y="200"/>
			<point x="370" y="210" type="curve"/>
			<point x="412" y="220"/>
			<point x="448" y="250"/>
			<point x="448" y="305" type="curve" smooth="yes"/>
			<point x="448" y="382"/>
			<point x="387" y="418"/>
			<point x="300" y="418" type="curve" smooth="yes"/>
			<point x="211" y="418"/>
			<point x="151" y="381"/>
			<point x="151" y="305" type="curve" smooth="yes"/>
			<point x="151" y="249"/>
			<point x="189" y="219"/>
			<point x="225" y="210" type="curve"/>
			<point x="179" y="200"/>
			<point x="143" y="171"/>
			<point x="143" y="109" type="curve" smooth="yes"/>
			<point x="143" y="30"/>
			<point x="207" y="-8"/>
		</contour>
		<contour>
			<point x="299" y="234" type="curve" smooth="yes"/>
			<point x="247" y="234"/>
			<point x="212" y="253"/>
			<point x="212" y="301" type="curve" smooth="yes"/>
			<point x="212" y="352"/>
			<point x="248" y="371"/>
			<point x="300" y="371" type="curve" smooth="yes"/>
			<point x="351" y="371"/>
			<point x="387" y="352"/>
			<point x="387" y="301" type="curve" smooth="yes"/>
			<point x="387" y="253"/>
			<point x="351" y="234"/>
		</contour>
		<contour>
			<point x="300" y="41" type="curve" smooth="yes"/>
			<point x="245" y="41"/>
			<point x="207" y="62"/>
			<point x="207" y="117" type="curve" smooth="yes"/>
			<point x="207" y="169"/>
			<point x="243" y="186"/>
			<point x="300" y="186" type="curve" smooth="yes"/>
			<point x="354" y="186"/>
			<point x="394" y="169"/>
			<point x="394" y="117" type="curve" smooth="yes"/>
			<point x="394" y="63"/>
			<point x="355" y="41"/>
		</contour>
	</outline>
</glyph>
<glyph name="equal.init" format="2">
	<advance width="600"/>
	<outline>
		<contour>
			<point x="174" y="383" type="line"/>
			<point x="600" y="383" type="line"/>
			<point x="600" y="458" type="line"/>
			<point x="174" y="458" type="line"/>
		</contour>
		<contour>
			<point x="174" y="171" type="line"/>
			<point x="600" y="171" type="line"/>
			<point x="600" y="246" type="line"/>
			<point x="174" y="246" type="line"/>
		</contour>
	</outline>
	<guideline x="361.5395683453" y="568.6187050359" angle="0" identifier="c2Y1Sn7BVk"/>
</glyph>
<glyph name="equal_bar_bar.rem" format="2">
	<advance width="600"/>
	<outline>
		<contour>
			<point x="353" y="-55" type="line"/>
			<point x="353" y="684" type="line"/>
			<point x="273" y="684" type="line"/>
			<point x="273" y="-55" type="line"/>
		</contour>
		<contour>
			<point x="-30" y="-55" type="line"/>
			<point x="-30" y="684" type="line"/>
			<point x="-110" y="684" type="line"/>
			<point x="-110" y="458" type="line"/>
			<point x="-1026" y="458" type="line"/>
			<point x="-1026" y="383" type="line"/>
			<point x="-110" y="383" type="line"/>
			<point x="-110" y="246" type="line"/>
			<point x="-1026" y="246" type="line"/>
			<point x="-1026" y="171" type="line"/>
			<point x="-110" y="171" type="line"/>
			<point x="-110" y="-55" type="line"/>
		</contour>
	</outline>
</glyph>
<glyph name="equal_equal_equal.cLig" format="2">
	<advance width="600"/>
	<outline>
		<contour>
			<point x="-1050" y="480" type="line"/>
			<point x="450" y="480" type="line"/>
			<point x="450" y="552" type="line"/>
			<point x="-1050" y="552" type="line"/>
		</contour>
		<contour>
			<point x="-1050" y="278" type="line"/>
			<point x="450" y="278" type="line"/>
			<point x="450" y="349" type="line"/>
			<point x="-1050" y="349" type="line"/>
		</contour>
		<contour>
			<point x="-1050" y="75" type="line"/>
			<point x="450" y="75" type="line"/>
			<point x="450" y="147" type="line"/>
			<point x="-1050" y="147" type="line"/>
		</contour>
	</outline>
</glyph>
<glyph name="equal_exclam_equal.rem" format="2">
	<advance width="600"/>
	<outline>
		<contour>
			<point x="-331" y="198" type="line"/>
			<point x="-270" y="198" type="line"/>
			<point x="-253" y="538" type="line"/>
			<point x="-253" y="684" type="line"/>
			<point x="-347" y="684" type="line"/>
			<point x="-347" y="539" type="line"/>
		</contour>
		<contour>
			<point x="-299" y="-12" type="curve" smooth="yes"/>
			<point x="-256" y="-12"/>
			<point x="-234" y="5"/>
			<point x="-234" y="48" type="curve" smooth="yes"/>
			<point x="-234" y="91"/>
			<point x="-256" y="108"/>
			<point x="-299" y="108" type="curve" smooth="yes"/>
			<point x="-344" y="108"/>
			<point x="-366" y="91"/>
			<point x="-366" y="48" type="curve" smooth="yes"/>
			<point x="-366" y="5"/>
			<point x="-344" y="-12"/>
		</contour>
		<contour>
			<point x="-1027.118705035" y="364" type="line"/>
			<point x="-541.830935245" y="364" type="line"/>
			<point x="-541.830935245" y="438" type="line"/>
			<point x="-1027.118705035" y="438" type="line"/>
		</contour>
		<contour>
			<point x="-1027.118705035" y="152" type="line"/>
			<point x="-541.830935245" y="152" type="line"/>
			<point x="-541.830935245" y="226" type="line"/>
			<point x="-1027.118705035" y="226" type="line"/>
		</contour>
		<contour>
			<point x="-58.118705035" y="364" type="line"/>
			<point x="427.169064755" y="364" type="line"/>
			<point x="427.169064755" y="438" type="line"/>
			<point x="-58.118705035" y="438" type="line"/>
		</contour>
		<contour>
			<point x="-58.118705035" y="152" type="line"/>
			<point x="427.169064755" y="152" type="line"/>
			<point x="427.169064755" y="226" type="line"/>
			<point x="-58.118705035" y="226" type="line"/>
		</contour>
	</outline>
</glyph>
<glyph name="equal_greater_greater.rem" format="2">
	<advance width="600"/>
	<outline>
		<contour>
			<point x="80" y="0" type="line"/>
			<point x="181" y="0" type="line"/>
			<point x="461" y="314" type="line"/>
			<point x="179" y="629" type="line"/>
			<point x="77" y="629" type="line"/>
			<point x="360" y="315" type="line"/>
		</contour>
		<contour>
			<point x="-1026" y="171" type="line"/>
			<point x="-141" y="171" type="line"/>
			<point x="-293" y="0" type="line"/>
			<point x="-192" y="0" type="line"/>
			<point x="85" y="313" type="line"/>
			<point x="-195" y="629" type="line"/>
			<point x="-296" y="629" type="line"/>
			<point x="-142" y="458" type="line"/>
			<point x="-1026" y="458" type="line"/>
			<point x="-1026" y="383" type="line"/>
			<point x="-76" y="383" type="line"/>
			<point x="-14" y="314" type="line"/>
			<point x="-74" y="246" type="line"/>
			<point x="-1026" y="246" type="line"/>
		</contour>
	</outline>
</glyph>
<glyph name="equal_less_less.rem" format="2">
	<advance width="600"/>
	<outline>
		<contour>
			<point x="497" y="629" type="line"/>
			<point x="394" y="629" type="line"/>
			<point x="116" y="316" type="line"/>
			<point x="397" y="0" type="line"/>
			<point x="500" y="0" type="line"/>
			<point x="216" y="316" type="line"/>
		</contour>
		<contour>
			<point x="115" y="629" type="line"/>
			<point x="14" y="629" type="line"/>
			<point x="-133" y="458" type="line"/>
			<point x="-1026" y="458" type="line"/>
			<point x="-1026" y="383" type="line"/>
			<point x="-98" y="383" type="line"/>
		</contour>
		<contour>
			<point x="-97" y="246" type="line"/>
			<point x="-1026" y="246" type="line"/>
			<point x="-1026" y="171" type="line"/>
			<point x="-132" y="171" type="line"/>
			<point x="17" y="0" type="line"/>
			<point x="118" y="0" type="line"/>
		</contour>
	</outline>
</glyph>
<glyph name="equal_slash_equal.rem" format="2">
	<advance width="600"/>
	<outline>
		<contour>
			<point x="-1027" y="158" type="line"/>
			<point x="-426" y="158" type="line"/>
			<point x="-573" y="-74" type="line"/>
			<point x="-491" y="-74" type="line"/>
			<point x="-345" y="158" type="line"/>
			<point x="427" y="158" type="line"/>
			<point x="427" y="232" type="line"/>
			<point x="-298" y="232" type="line"/>
			<point x="-211" y="370" type="line"/>
			<point x="427" y="370" type="line"/>
			<point x="427" y="444" type="line"/>
			<point x="-165" y="444" type="line"/>
			<point x="-35" y="650" type="line"/>
			<point x="-117" y="650" type="line"/>
			<point x="-246" y="444" type="line"/>
			<point x="-1027" y="444" type="line"/>
			<point x="-1027" y="370" type="line"/>
			<point x="-293" y="370" type="line"/>
			<point x="-380" y="232" type="line"/>
			<point x="-1027" y="232" type="line"/>
		</contour>
	</outline>
</glyph>
<glyph name="exclam_asciitilde.cLig" format="2">
	<advance width="600"/>
	<outline>
		<contour>
			<point x="-320" y="157" type="line"/>
			<point x="-125" y="157" type="line"/>
			<point x="-270" y="-74" type="line"/>
			<point x="-189" y="-74" type="line"/>
			<point x="-44" y="157" type="line"/>
			<point x="320" y="157" type="line"/>
			<point x="320" y="231" type="line"/>
			<point x="3" y="231" type="line"/>
			<point x="66" y="332" type="line"/>
			<point x="93" y="322"/>
			<point x="123" y="316"/>
			<point x="155" y="316" type="curve" smooth="yes"/>
			<point x="225" y="316"/>
			<point x="287" y="345"/>
			<point x="320" y="395" type="curve"/>
			<point x="320" y="483" type="line"/>
			<point x="266" y="409"/>
			<point x="213" y="388"/>
			<point x="148" y="390" type="curve" smooth="yes"/>
			<point x="134" y="390"/>
			<point x="120" y="393"/>
			<point x="107" y="396" type="curve"/>
			<point x="267" y="650" type="line"/>
			<point x="186" y="650" type="line"/>
			<point x="43" y="423" type="line"/>
			<point x="-17" y="455"/>
			<point x="-79" y="496"/>
			<point x="-160" y="496" type="curve" smooth="yes"/>
			<point x="-227" y="496"/>
			<point x="-288" y="468"/>
			<point x="-320" y="419" type="curve"/>
			<point x="-320" y="329" type="line"/>
			<point x="-276" y="396"/>
			<point x="-220" y="422"/>
			<point x="-160" y="422" type="curve" smooth="yes"/>
			<point x="-102" y="422"/>
			<point x="-52" y="390"/>
			<point x="4" y="360" type="curve"/>
			<point x="-78" y="231" type="line"/>
			<point x="-320" y="231" type="line"/>
		</contour>
	</outline>
</glyph>
<glyph name="exclam_equal.med" format="2">
	<advance width="600"/>
	<outline>
		<contour>
			<point x="269" y="198" type="line"/>
			<point x="330" y="198" type="line"/>
			<point x="347" y="538" type="line"/>
			<point x="347" y="684" type="line"/>
			<point x="253" y="684" type="line"/>
			<point x="253" y="539" type="line"/>
		</contour>
		<contour>
			<point x="494" y="383" type="line"/>
			<point x="600" y="383" type="line"/>
			<point x="600" y="458" type="line"/>
			<point x="494" y="458" type="line"/>
		</contour>
		<contour>
			<point x="0" y="383" type="line"/>
			<point x="106" y="383" type="line"/>
			<point x="106" y="458" type="line"/>
			<point x="0" y="458" type="line"/>
		</contour>
		<contour>
			<point x="494" y="171" type="line"/>
			<point x="600" y="171" type="line"/>
			<point x="600" y="246" type="line"/>
			<point x="494" y="246" type="line"/>
		</contour>
		<contour>
			<point x="0" y="171" type="line"/>
			<point x="106" y="171" type="line"/>
			<point x="106" y="246" type="line"/>
			<point x="0" y="246" type="line"/>
		</contour>
		<contour>
			<point x="301" y="-12" type="curve" smooth="yes"/>
			<point x="344" y="-12"/>
			<point x="366" y="5"/>
			<point x="366" y="48" type="curve" smooth="yes"/>
			<point x="366" y="91"/>
			<point x="344" y="108"/>
			<point x="301" y="108" type="curve" smooth="yes"/>
			<point x="256" y="108"/>
			<point x="234" y="91"/>
			<point x="234" y="48" type="curve" smooth="yes"/>
			<point x="234" y="5"/>
			<point x="256" y="-12"/>
		</contour>
	</outline>
</glyph>
<glyph name="exclam_equal_equal.cLig" format="2">
	<advance width="600"/>
	<outline>
		<contour>
			<point x="-1050" y="75" type="line"/>
			<point x="-480" y="75" type="line"/>
			<point x="-570" y="-75" type="line"/>
			<point x="-486" y="-75" type="line"/>
			<point x="-396" y="75" type="line"/>
			<point x="450" y="75" type="line"/>
			<point x="450" y="147" type="line"/>
			<point x="-353" y="147" type="line"/>
			<point x="-274" y="278" type="line"/>
			<point x="450" y="278" type="line"/>
			<point x="450" y="349" type="line"/>
			<point x="-232" y="349" type="line"/>
			<point x="-153" y="480" type="line"/>
			<point x="450" y="480" type="line"/>
			<point x="450" y="552" type="line"/>
			<point x="-110" y="552" type="line"/>
			<point x="-30" y="685" type="line"/>
			<point x="-114" y="685" type="line"/>
			<point x="-194" y="552" type="line"/>
			<point x="-1050" y="552" type="line"/>
			<point x="-1050" y="480" type="line"/>
			<point x="-237" y="480" type="line"/>
			<point x="-315" y="349" type="line"/>
			<point x="-1050" y="349" type="line"/>
			<point x="-1050" y="278" type="line"/>
			<point x="-358" y="278" type="line"/>
			<point x="-437" y="147" type="line"/>
			<point x="-1050" y="147" type="line"/>
		</contour>
	</outline>
</glyph>
<glyph name="exclam_exclam.cLig" format="2">
	<advance width="600"/>
	<outline>
		<contour>
			<point x="-258" y="198" type="line"/>
			<point x="-197" y="198" type="line"/>
			<point x="-180" y="538" type="line"/>
			<point x="-180" y="684" type="line"/>
			<point x="-274" y="684" type="line"/>
			<point x="-274" y="539" type="line"/>
		</contour>
		<contour>
			<point x="-226" y="-12" type="curve" smooth="yes"/>
			<point x="-183" y="-12"/>
			<point x="-161" y="5"/>
			<point x="-161" y="48" type="curve" smooth="yes"/>
			<point x="-161" y="91"/>
			<point x="-183" y="108"/>
			<point x="-226" y="108" type="curve" smooth="yes"/>
			<point x="-271" y="108"/>
			<point x="-293" y="91"/>
			<point x="-293" y="48" type="curve" smooth="yes"/>
			<point x="-293" y="5"/>
			<point x="-271" y="-12"/>
		</contour>
		<contour>
			<point x="196" y="198" type="line"/>
			<point x="257" y="198" type="line"/>
			<point x="274" y="538" type="line"/>
			<point x="274" y="684" type="line"/>
			<point x="180" y="684" type="line"/>
			<point x="180" y="539" type="line"/>
		</contour>
		<contour>
			<point x="228" y="-12" type="curve" smooth="yes"/>
			<point x="271" y="-12"/>
			<point x="293" y="5"/>
			<point x="293" y="48" type="curve" smooth="yes"/>
			<point x="293" y="91"/>
			<point x="271" y="108"/>
			<point x="228" y="108" type="curve" smooth="yes"/>
			<point x="183" y="108"/>
			<point x="161" y="91"/>
			<point x="161" y="48" type="curve" smooth="yes"/>
			<point x="161" y="5"/>
			<point x="183" y="-12"/>
		</contour>
	</outline>
</glyph>
<glyph name="exclam_exclam_exclam.rem" format="2">
	<advance width="600"/>
	<outline>
		<contour>
			<point x="-819" y="198" type="line"/>
			<point x="-758" y="198" type="line"/>
			<point x="-741" y="538" type="line"/>
			<point x="-741" y="684" type="line"/>
			<point x="-835" y="684" type="line"/>
			<point x="-835" y="539" type="line"/>
		</contour>
		<contour>
			<point x="-787" y="-12" type="curve" smooth="yes"/>
			<point x="-744" y="-12"/>
			<point x="-722" y="5"/>
			<point x="-722" y="48" type="curve" smooth="yes"/>
			<point x="-722" y="91"/>
			<point x="-744" y="108"/>
			<point x="-787" y="108" type="curve" smooth="yes"/>
			<point x="-832" y="108"/>
			<point x="-854" y="91"/>
			<point x="-854" y="48" type="curve" smooth="yes"/>
			<point x="-854" y="5"/>
			<point x="-832" y="-12"/>
		</contour>
		<contour>
			<point x="-331" y="198" type="line"/>
			<point x="-270" y="198" type="line"/>
			<point x="-253" y="538" type="line"/>
			<point x="-253" y="684" type="line"/>
			<point x="-347" y="684" type="line"/>
			<point x="-347" y="539" type="line"/>
		</contour>
		<contour>
			<point x="-299" y="-12" type="curve" smooth="yes"/>
			<point x="-256" y="-12"/>
			<point x="-234" y="5"/>
			<point x="-234" y="48" type="curve" smooth="yes"/>
			<point x="-234" y="91"/>
			<point x="-256" y="108"/>
			<point x="-299" y="108" type="curve" smooth="yes"/>
			<point x="-344" y="108"/>
			<point x="-366" y="91"/>
			<point x="-366" y="48" type="curve" smooth="yes"/>
			<point x="-366" y="5"/>
			<point x="-344" y="-12"/>
		</contour>
		<contour>
			<point x="157" y="198" type="line"/>
			<point x="218" y="198" type="line"/>
			<point x="235" y="538" type="line"/>
			<point x="235" y="684" type="line"/>
			<point x="141" y="684" type="line"/>
			<point x="141" y="539" type="line"/>
		</contour>
		<contour>
			<point x="189" y="-12" type="curve" smooth="yes"/>
			<point x="232" y="-12"/>
			<point x="254" y="5"/>
			<point x="254" y="48" type="curve" smooth="yes"/>
			<point x="254" y="91"/>
			<point x="232" y="108"/>
			<point x="189" y="108" type="curve" smooth="yes"/>
			<point x="144" y="108"/>
			<point x="122" y="91"/>
			<point x="122" y="48" type="curve" smooth="yes"/>
			<point x="122" y="5"/>
			<point x="144" y="-12"/>
		</contour>
	</outline>
</glyph>
<glyph name="exclam_exclam_period.cLig" format="2">
	<advance width="600"/>
	<outline>
		<contour>
			<point x="-819" y="198" type="line"/>
			<point x="-758" y="198" type="line"/>
			<point x="-741" y="538" type="line"/>
			<point x="-741" y="684" type="line"/>
			<point x="-835" y="684" type="line"/>
			<point x="-835" y="539" type="line"/>
		</contour>
		<contour>
			<point x="-787" y="-12" type="curve" smooth="yes"/>
			<point x="-744" y="-12"/>
			<point x="-722" y="5"/>
			<point x="-722" y="48" type="curve" smooth="yes"/>
			<point x="-722" y="91"/>
			<point x="-744" y="108"/>
			<point x="-787" y="108" type="curve" smooth="yes"/>
			<point x="-832" y="108"/>
			<point x="-854" y="91"/>
			<point x="-854" y="48" type="curve" smooth="yes"/>
			<point x="-854" y="5"/>
			<point x="-832" y="-12"/>
		</contour>
		<contour>
			<point x="-330" y="198" type="line"/>
			<point x="-269" y="198" type="line"/>
			<point x="-252" y="538" type="line"/>
			<point x="-252" y="684" type="line"/>
			<point x="-346" y="684" type="line"/>
			<point x="-346" y="539" type="line"/>
		</contour>
		<contour>
			<point x="-298" y="-12" type="curve" smooth="yes"/>
			<point x="-255" y="-12"/>
			<point x="-233" y="5"/>
			<point x="-233" y="48" type="curve" smooth="yes"/>
			<point x="-233" y="91"/>
			<point x="-255" y="108"/>
			<point x="-298" y="108" type="curve" smooth="yes"/>
			<point x="-343" y="108"/>
			<point x="-365" y="91"/>
			<point x="-365" y="48" type="curve" smooth="yes"/>
			<point x="-365" y="5"/>
			<point x="-343" y="-12"/>
		</contour>
		<contour>
			<point x="191" y="-12" type="curve" smooth="yes"/>
			<point x="238" y="-12"/>
			<point x="264" y="6"/>
			<point x="264" y="55" type="curve" smooth="yes"/>
			<point x="264" y="103"/>
			<point x="238" y="120"/>
			<point x="191" y="120" type="curve" smooth="yes"/>
			<point x="144" y="120"/>
			<point x="118" y="103"/>
			<point x="118" y="55" type="curve" smooth="yes"/>
			<point x="118" y="6"/>
			<point x="144" y="-12"/>
		</contour>
	</outline>
</glyph>
<glyph name="five.den" format="2">
	<advance width="600"/>
	<outline>
		<contour>
			<point x="296" y="-8" type="curve" smooth="yes"/>
			<point x="386" y="-8"/>
			<point x="444" y="47"/>
			<point x="444" y="132" type="curve" smooth="yes"/>
			<point x="444" y="210"/>
			<point x="397" y="250"/>
			<point x="310" y="250" type="curve" smooth="yes"/>
			<point x="282" y="250"/>
			<point x="256" y="247"/>
			<point x="231" y="240" type="curve"/>
			<point x="231" y="359" type="line"/>
			<point x="435" y="359" type="line"/>
			<point x="435" y="410" type="line"/>
			<point x="174" y="410" type="line"/>
			<point x="174" y="180" type="line"/>
			<point x="213" y="195"/>
			<point x="247" y="203"/>
			<point x="285" y="203" type="curve" smooth="yes"/>
			<point x="354" y="203"/>
			<point x="380" y="175"/>
			<point x="380" y="128" type="curve" smooth="yes"/>
			<point x="380" y="75"/>
			<point x="348" y="44"/>
			<point x="292" y="44" type="curve" smooth="yes"/>
			<point x="251" y="44"/>
			<point x="204" y="58"/>
			<point x="159" y="94" type="curve"/>
			<point x="159" y="37" type="line"/>
			<point x="194" y="10"/>
			<point x="239" y="-8"/>
		</contour>
	</outline>
</glyph>
<glyph name="five.numr" format="2">
	<advance width="600"/>
	<outline>
		<contour>
			<point x="296" y="366" type="curve" smooth="yes"/>
			<point x="372" y="366"/>
			<point x="422" y="412"/>
			<point x="422" y="483" type="curve" smooth="yes"/>
			<point x="422" y="550"/>
			<point x="382" y="583"/>
			<point x="306" y="583" type="curve" smooth="yes"/>
			<point x="282" y="583"/>
			<point x="263" y="580"/>
			<point x="244" y="575" type="curve"/>
			<point x="244" y="672" type="line"/>
			<point x="414" y="672" type="line"/>
			<point x="414" y="718" type="line"/>
			<point x="194" y="718" type="line"/>
			<point x="194" y="523" type="line"/>
			<point x="225" y="534"/>
			<point x="253" y="541"/>
			<point x="286" y="541" type="curve" smooth="yes"/>
			<point x="343" y="541"/>
			<point x="365" y="519"/>
			<point x="365" y="481" type="curve" smooth="yes"/>
			<point x="365" y="438"/>
			<point x="338" y="412"/>
			<point x="292" y="412" type="curve" smooth="yes"/>
			<point x="256" y="412"/>
			<point x="219" y="423"/>
			<point x="181" y="452" type="curve"/>
			<point x="181" y="402" type="line"/>
			<point x="210" y="379"/>
			<point x="247" y="366"/>
		</contour>
	</outline>
</glyph>
<glyph name="four.numr" format="2">
	<advance width="600"/>
	<outline>
		<contour>
			<point x="337" y="372" type="line"/>
			<point x="393" y="372" type="line"/>
			<point x="393" y="440" type="line"/>
			<point x="432" y="440" type="line"/>
			<point x="432" y="486" type="line"/>
			<point x="393" y="486" type="line"/>
			<point x="393" y="718" type="line"/>
			<point x="313" y="718" type="line"/>
			<point x="161" y="486" type="line"/>
			<point x="161" y="440" type="line"/>
			<point x="337" y="440" type="line"/>
		</contour>
		<contour>
			<point x="217" y="486" type="line"/>
			<point x="337" y="676" type="line"/>
			<point x="337" y="486" type="line"/>
		</contour>
	</outline>
</glyph>
<glyph name="grave.cap" format="2">
	<advance width="600"/>
	<outline>
		<contour>
			<point x="379" y="748" type="line"/>
			<point x="315" y="884" type="line"/>
			<point x="220" y="884" type="line"/>
			<point x="310" y="748" type="line"/>
		</contour>
	</outline>
	<anchor name="_top" x="345" y="684"/>
</glyph>
<glyph name="greater_equal.init" format="2">
	<advance width="600"/>
	<outline>
		<contour>
			<point x="267" y="383" type="line"/>
			<point x="600" y="383" type="line"/>
			<point x="600" y="458" type="line"/>
			<point x="302" y="458" type="line"/>
			<point x="153" y="629" type="line"/>
			<point x="52" y="629" type="line"/>
		</contour>
		<contour>
			<point x="55" y="0" type="line"/>
			<point x="156" y="0" type="line"/>
			<point x="303" y="171" type="line"/>
			<point x="600" y="171" type="line"/>
			<point x="600" y="246" type="line"/>
			<point x="268" y="246" type="line"/>
		</contour>
	</outline>
</glyph>
<glyph name="greater_equal.med" format="2">
	<advance width="600"/>
	<outline>
		<contour>
			<point x="135" y="0" type="line"/>
			<point x="236" y="0" type="line"/>
			<point x="389" y="171" type="line"/>
			<point x="600" y="171" type="line"/>
			<point x="600" y="246" type="line"/>
			<point x="455" y="246" type="line"/>
			<point x="516" y="314" type="line"/>
			<point x="454" y="383" type="line"/>
			<point x="600" y="383" type="line"/>
			<point x="600" y="458" type="line"/>
			<point x="387" y="458" type="line"/>
			<point x="233" y="629" type="line"/>
			<point x="132" y="629" type="line"/>
			<point x="287" y="458" type="line"/>
			<point x="0" y="458" type="line"/>
			<point x="0" y="383" type="line"/>
			<point x="354" y="383" type="line"/>
			<point x="415" y="315" type="line"/>
			<point x="354" y="246" type="line"/>
			<point x="0" y="246" type="line"/>
			<point x="0" y="171" type="line"/>
			<point x="288" y="171" type="line"/>
		</contour>
	</outline>
</glyph>
<glyph name="greater_equal.rem" format="2">
	<advance width="600"/>
	<outline>
		<contour>
			<point x="-273" y="383" type="line"/>
			<point x="450" y="383" type="line"/>
			<point x="450" y="458" type="line"/>
			<point x="-238" y="458" type="line"/>
			<point x="-387" y="629" type="line"/>
			<point x="-488" y="629" type="line"/>
		</contour>
		<contour>
			<point x="-485" y="0" type="line"/>
			<point x="-384" y="0" type="line"/>
			<point x="-237" y="171" type="line"/>
			<point x="450" y="171" type="line"/>
			<point x="450" y="246" type="line"/>
			<point x="-272" y="246" type="line"/>
		</contour>
	</outline>
</glyph>
<glyph name="greater_equal_greater.rem" format="2">
	<advance width="600"/>
	<outline>
		<contour>
			<point x="-1065" y="0" type="line"/>
			<point x="-964" y="0" type="line"/>
			<point x="-817" y="171" type="line"/>
			<point x="259" y="171" type="line"/>
			<point x="107" y="0" type="line"/>
			<point x="208" y="0" type="line"/>
			<point x="485" y="313" type="line"/>
			<point x="205" y="629" type="line"/>
			<point x="104" y="629" type="line"/>
			<point x="258" y="458" type="line"/>
			<point x="-818" y="458" type="line"/>
			<point x="-967" y="629" type="line"/>
			<point x="-1068" y="629" type="line"/>
			<point x="-853" y="383" type="line"/>
			<point x="324" y="383" type="line"/>
			<point x="386" y="314" type="line"/>
			<point x="325" y="246" type="line"/>
			<point x="-852" y="246" type="line"/>
		</contour>
	</outline>
</glyph>
<glyph name="greater_greater_equal.fina" format="2">
	<advance width="600"/>
	<outline>
		<contour>
			<point x="95" y="0" type="line"/>
			<point x="196" y="0" type="line"/>
			<point x="476" y="314" type="line"/>
			<point x="194" y="629" type="line"/>
			<point x="92" y="629" type="line"/>
			<point x="375" y="315" type="line"/>
		</contour>
		<contour>
			<point x="-600" y="171" type="line"/>
			<point x="-126" y="171" type="line"/>
			<point x="-278" y="0" type="line"/>
			<point x="-177" y="0" type="line"/>
			<point x="100" y="313" type="line"/>
			<point x="-180" y="629" type="line"/>
			<point x="-281" y="629" type="line"/>
			<point x="-127" y="458" type="line"/>
			<point x="-600" y="458" type="line"/>
			<point x="-600" y="383" type="line"/>
			<point x="-61" y="383" type="line"/>
			<point x="1" y="314" type="line"/>
			<point x="-59" y="246" type="line"/>
			<point x="-600" y="246" type="line"/>
		</contour>
	</outline>
</glyph>
<glyph name="greater_greater_equal.init" format="2">
	<advance width="600"/>
	<outline>
		<contour>
			<point x="-517" y="0" type="line"/>
			<point x="-414" y="0" type="line"/>
			<point x="-136" y="313" type="line"/>
			<point x="-417" y="629" type="line"/>
			<point x="-520" y="629" type="line"/>
			<point x="-236" y="313" type="line"/>
		</contour>
		<contour>
			<point x="77" y="383" type="line"/>
			<point x="600" y="383" type="line"/>
			<point x="600" y="458" type="line"/>
			<point x="112" y="458" type="line"/>
			<point x="-37" y="629" type="line"/>
			<point x="-138" y="629" type="line"/>
		</contour>
		<contour>
			<point x="-135" y="0" type="line"/>
			<point x="-34" y="0" type="line"/>
			<point x="113" y="171" type="line"/>
			<point x="600" y="171" type="line"/>
			<point x="600" y="246" type="line"/>
			<point x="78" y="246" type="line"/>
		</contour>
	</outline>
</glyph>
<glyph name="greater_greater_equal.rem" format="2">
	<advance width="600"/>
	<outline>
		<contour>
			<point x="-1097" y="0" type="line"/>
			<point x="-994" y="0" type="line"/>
			<point x="-716" y="313" type="line"/>
			<point x="-997" y="629" type="line"/>
			<point x="-1100" y="629" type="line"/>
			<point x="-816" y="313" type="line"/>
		</contour>
		<contour>
			<point x="-503" y="383" type="line"/>
			<point x="426" y="383" type="line"/>
			<point x="426" y="458" type="line"/>
			<point x="-468" y="458" type="line"/>
			<point x="-617" y="629" type="line"/>
			<point x="-718" y="629" type="line"/>
		</contour>
		<contour>
			<point x="-715" y="0" type="line"/>
			<point x="-614" y="0" type="line"/>
			<point x="-467" y="171" type="line"/>
			<point x="426" y="171" type="line"/>
			<point x="426" y="246" type="line"/>
			<point x="-502" y="246" type="line"/>
		</contour>
	</outline>
</glyph>
<glyph name="greater_greater_greater.cLig" format="2">
	<advance width="600"/>
	<outline>
		<contour>
			<point x="-1105" y="39" type="line"/>
			<point x="-655" y="256" type="line"/>
			<point x="-655" y="348" type="line"/>
			<point x="-1105" y="565" type="line"/>
			<point x="-1105" y="479" type="line"/>
			<point x="-727" y="302" type="line"/>
			<point x="-1105" y="126" type="line"/>
		</contour>
		<contour>
			<point x="-521" y="39" type="line"/>
			<point x="-71" y="256" type="line"/>
			<point x="-71" y="348" type="line"/>
			<point x="-521" y="565" type="line"/>
			<point x="-521" y="479" type="line"/>
			<point x="-143" y="302" type="line"/>
			<point x="-521" y="126" type="line"/>
		</contour>
		<contour>
			<point x="63" y="39" type="line"/>
			<point x="513" y="256" type="line"/>
			<point x="513" y="348" type="line"/>
			<point x="63" y="565" type="line"/>
			<point x="63" y="479" type="line"/>
			<point x="441" y="302" type="line"/>
			<point x="63" y="126" type="line"/>
		</contour>
	</outline>
</glyph>
<glyph name="greater_hyphen.init" format="2">
	<advance width="600"/>
	<outline>
		<contour>
			<point x="89" y="0" type="line"/>
			<point x="192" y="0" type="line"/>
			<point x="436" y="276" type="line"/>
			<point x="600" y="276" type="line"/>
			<point x="600" y="353" type="line"/>
			<point x="433" y="353" type="line"/>
			<point x="189" y="629" type="line"/>
			<point x="86" y="629" type="line"/>
			<point x="367" y="313" type="line"/>
		</contour>
	</outline>
</glyph>
<glyph name="greater_hyphen.med" format="2">
	<advance width="600"/>
	<outline>
		<contour>
			<point x="138" y="0" type="line"/>
			<point x="236" y="0" type="line"/>
			<point x="482" y="275" type="line"/>
			<point x="600" y="275" type="line"/>
			<point x="600" y="352" type="line"/>
			<point x="481" y="352" type="line"/>
			<point x="233" y="629" type="line"/>
			<point x="135" y="629" type="line"/>
			<point x="385" y="352" type="line"/>
			<point x="0" y="352" type="line"/>
			<point x="0" y="275" type="line"/>
			<point x="385" y="275" type="line"/>
		</contour>
	</outline>
</glyph>
<glyph name="greater_hyphen_greater.rem" format="2">
	<advance width="600"/>
	<outline>
		<contour>
			<point x="-1059" y="0" type="line"/>
			<point x="-956" y="0" type="line"/>
			<point x="-712" y="276" type="line"/>
			<point x="335" y="276" type="line"/>
			<point x="84" y="0" type="line"/>
			<point x="186" y="0" type="line"/>
			<point x="465" y="314" type="line"/>
			<point x="183" y="629" type="line"/>
			<point x="80" y="629" type="line"/>
			<point x="334" y="353" type="line"/>
			<point x="-715" y="353" type="line"/>
			<point x="-959" y="629" type="line"/>
			<point x="-1062" y="629" type="line"/>
			<point x="-781" y="313" type="line"/>
		</contour>
	</outline>
</glyph>
<glyph name="hyphen_asciitilde.cLig" format="2">
	<advance width="600"/>
	<outline>
		<contour>
			<point x="-395" y="273" type="line"/>
			<point x="-12" y="273" type="line"/>
			<point x="-6" y="319"/>
			<point x="17" y="345"/>
			<point x="49" y="345" type="curve" smooth="yes"/>
			<point x="122" y="345"/>
			<point x="140" y="212"/>
			<point x="252" y="212" type="curve" smooth="yes"/>
			<point x="325" y="212"/>
			<point x="378" y="259"/>
			<point x="378" y="402" type="curve"/>
			<point x="306" y="402" type="line"/>
			<point x="306" y="323"/>
			<point x="288" y="290"/>
			<point x="247" y="290" type="curve"/>
			<point x="174" y="290"/>
			<point x="152" y="422"/>
			<point x="46" y="422" type="curve" smooth="yes"/>
			<point x="-5" y="422"/>
			<point x="-41" y="397"/>
			<point x="-61" y="350" type="curve"/>
			<point x="-395" y="350" type="line"/>
		</contour>
	</outline>
</glyph>
<glyph name="hyphen_greater_greater.rem" format="2">
	<advance width="600"/>
	<outline>
		<contour>
			<point x="79" y="0" type="line"/>
			<point x="180" y="0" type="line"/>
			<point x="458" y="313" type="line"/>
			<point x="177" y="629" type="line"/>
			<point x="76" y="629" type="line"/>
			<point x="356" y="314" type="line"/>
		</contour>
		<contour>
			<point x="-1042" y="276" type="line"/>
			<point x="-80" y="276" type="line"/>
			<point x="-331" y="0" type="line"/>
			<point x="-230" y="0" type="line"/>
			<point x="50" y="314" type="line"/>
			<point x="-233" y="629" type="line"/>
			<point x="-335" y="629" type="line"/>
			<point x="-81" y="353" type="line"/>
			<point x="-1042" y="353" type="line"/>
		</contour>
	</outline>
</glyph>
<glyph name="hyphen_less.rem" format="2">
	<advance width="600"/>
	<outline>
		<contour>
			<point x="475" y="629" type="line"/>
			<point x="372" y="629" type="line"/>
			<point x="128" y="353" type="line"/>
			<point x="-462" y="353" type="line"/>
			<point x="-462" y="276" type="line"/>
			<point x="131" y="276" type="line"/>
			<point x="375" y="0" type="line"/>
			<point x="478" y="0" type="line"/>
			<point x="197" y="316" type="line"/>
		</contour>
	</outline>
</glyph>
<glyph name="hyphen_less_less.rem" format="2">
	<advance width="600"/>
	<outline>
		<contour>
			<point x="462" y="629" type="line"/>
			<point x="359" y="629" type="line"/>
			<point x="80" y="315" type="line"/>
			<point x="362" y="0" type="line"/>
			<point x="465" y="0" type="line"/>
			<point x="180" y="315" type="line"/>
		</contour>
		<contour>
			<point x="83" y="629" type="line"/>
			<point x="-19" y="629" type="line"/>
			<point x="-263" y="353" type="line"/>
			<point x="-1075" y="353" type="line"/>
			<point x="-1075" y="276" type="line"/>
			<point x="-261" y="276" type="line"/>
			<point x="-16" y="0" type="line"/>
			<point x="86" y="0" type="line"/>
			<point x="-194" y="316" type="line"/>
		</contour>
	</outline>
</glyph>
<glyph name="less_asciitilde.cLig" format="2">
	<advance width="600"/>
	<outline>
		<contour>
			<point x="-121" y="-2" type="line"/>
			<point x="-375" y="274" type="line"/>
			<point x="100" y="274" type="line"/>
			<point x="106" y="320"/>
			<point x="129" y="346"/>
			<point x="161" y="346" type="curve" smooth="yes"/>
			<point x="234" y="346"/>
			<point x="252" y="213"/>
			<point x="364" y="213" type="curve" smooth="yes"/>
			<point x="437" y="213"/>
			<point x="490" y="260"/>
			<point x="490" y="403" type="curve"/>
			<point x="418" y="403" type="line"/>
			<point x="418" y="324"/>
			<point x="400" y="291"/>
			<point x="359" y="291" type="curve"/>
			<point x="286" y="291"/>
			<point x="264" y="423"/>
			<point x="158" y="423" type="curve" smooth="yes"/>
			<point x="107" y="423"/>
			<point x="71" y="398"/>
			<point x="51" y="351" type="curve"/>
			<point x="-376" y="351" type="line"/>
			<point x="-125" y="627" type="line"/>
			<point x="-227" y="627" type="line"/>
			<point x="-506" y="313" type="line"/>
			<point x="-224" y="-2" type="line"/>
		</contour>
	</outline>
</glyph>
<glyph name="less_asterisk.cLig" format="2">
	<advance width="600"/>
	<outline>
		<contour>
			<point x="-57" y="-5" type="line"/>
			<point x="-57" y="83" type="line"/>
			<point x="-437" y="314" type="line"/>
			<point x="-57" y="545" type="line"/>
			<point x="-57" y="634" type="line"/>
			<point x="-500" y="360" type="line"/>
			<point x="-500" y="268" type="line"/>
		</contour>
		<contour>
			<point x="434" y="157" type="line"/>
			<point x="478" y="233" type="line"/>
			<point x="297" y="314" type="line"/>
			<point x="479" y="396" type="line"/>
			<point x="436" y="471" type="line"/>
			<point x="274" y="355" type="line"/>
			<point x="294" y="553" type="line"/>
			<point x="208" y="553" type="line"/>
			<point x="228" y="354" type="line"/>
			<point x="64" y="472" type="line"/>
			<point x="20" y="397" type="line"/>
			<point x="204" y="315" type="line"/>
			<point x="21" y="233" type="line"/>
			<point x="65" y="157" type="line"/>
			<point x="228" y="276" type="line"/>
			<point x="208" y="75" type="line"/>
			<point x="294" y="75" type="line"/>
			<point x="273" y="274" type="line"/>
		</contour>
	</outline>
</glyph>
<glyph name="less_asterisk_greater.cLig" format="2">
	<advance width="600"/>
	<outline>
		<contour>
			<point x="39" y="-5" type="line"/>
			<point x="482" y="268" type="line"/>
			<point x="482" y="360" type="line"/>
			<point x="39" y="634" type="line"/>
			<point x="39" y="545" type="line"/>
			<point x="419" y="314" type="line"/>
			<point x="39" y="83" type="line"/>
		</contour>
		<contour>
			<point x="-639" y="-5" type="line"/>
			<point x="-639" y="83" type="line"/>
			<point x="-1019" y="314" type="line"/>
			<point x="-639" y="545" type="line"/>
			<point x="-639" y="634" type="line"/>
			<point x="-1082" y="360" type="line"/>
			<point x="-1082" y="268" type="line"/>
		</contour>
		<contour>
			<point x="-115" y="157" type="line"/>
			<point x="-71" y="233" type="line"/>
			<point x="-253" y="314" type="line"/>
			<point x="-70" y="396" type="line"/>
			<point x="-113" y="471" type="line"/>
			<point x="-275" y="355" type="line"/>
			<point x="-255" y="553" type="line"/>
			<point x="-342" y="553" type="line"/>
			<point x="-321" y="354" type="line"/>
			<point x="-486" y="472" type="line"/>
			<point x="-529" y="397" type="line"/>
			<point x="-345" y="315" type="line"/>
			<point x="-528" y="233" type="line"/>
			<point x="-485" y="157" type="line"/>
			<point x="-321" y="276" type="line"/>
			<point x="-342" y="75" type="line"/>
			<point x="-255" y="75" type="line"/>
			<point x="-276" y="274" type="line"/>
		</contour>
	</outline>
</glyph>
<glyph name="less_bar_bar.cLig" format="2">
	<advance width="600"/>
	<outline>
		<contour>
			<point x="259" y="-79" type="line"/>
			<point x="259" y="708" type="line"/>
			<point x="179" y="708" type="line"/>
			<point x="179" y="-79" type="line"/>
		</contour>
		<contour>
			<point x="-301" y="708" type="line"/>
			<point x="-381" y="708" type="line"/>
			<point x="-927" y="361" type="line"/>
			<point x="-927" y="268" type="line"/>
			<point x="-381" y="-79" type="line"/>
			<point x="-301" y="-79" type="line"/>
		</contour>
		<contour>
			<point x="-381" y="12" type="line"/>
			<point x="-860" y="314" type="line"/>
			<point x="-381" y="617" type="line"/>
		</contour>
	</outline>
</glyph>
